<svg class="w-100 db trans" preserveAspectRatio="xMinYMin meet"
    xmlns="http://www.w3.org/2000/svg" fill="none" viewBox="0 0 230 80" aria-hidden="true">
    <!-- <path fill="#0E3252" d="M95.865 34.919h-8.567l-1.402 2.867c-.077.154-.153.256-.204.282-.051.025-.153.05-.332.05h-1.682c-.153 0-.23-.05-.23-.178 0-.026.051-.128.128-.307l7.572-15.002h.918l7.572 15.002c.077.179.128.281.128.307 0 .128-.077.179-.23.179H97.6c-.051 0-.102-.026-.153-.077a1.367 1.367 0 0 1-.179-.256l-1.402-2.867Zm-7.547-1.971h6.603l-2.065-4.122c-.127-.23-.28-.589-.484-1.05-.204-.46-.357-.87-.485-1.228l-.204-.538h-.153c-.484 1.357-.892 2.33-1.147 2.842l-2.065 4.096Z"></path> -->
    <!-- <path fill="#0E3252" d="M99.51 38.22h-1.937a.31.31 0 0 1-.23-.102 1.611 1.611 0 0 1-.203-.282l-1.377-2.816h-8.44l-1.376 2.816c-.051.128-.153.282-.255.333-.076.051-.204.051-.382.051h-1.683c-.28 0-.332-.179-.332-.281 0-.051.026-.077.077-.205l.076-.154 7.598-15.078h1.046l.025.051 7.623 15.155c.051.128.077.154.077.205.05.128 0 .307-.306.307Zm-12.263-3.43h8.695l1.427 2.918c.077.103.128.18.153.23.026.026.051.052.077.052h1.937c.128 0 .128-.026.128-.077l-.051-.102-.077-.154-7.52-14.95h-.791l-7.598 15.078c-.026.077-.051.103-.051.128 0 .026 0 .051.127.051h1.683c.179 0 .28-.025.28-.05.026 0 .077-.078.154-.231l1.427-2.893Zm7.828-1.74H88.14l2.141-4.276c.153-.307.561-1.203 1.148-2.842l.025-.076h.306l.23.614c.127.333.28.742.484 1.229l.102.205c.153.358.28.64.382.844l2.117 4.301Zm-6.604-.206h6.272l-1.989-3.968c-.102-.204-.229-.486-.407-.844l-.102-.205c-.204-.487-.383-.922-.485-1.255l-.178-.46c-.587 1.612-.995 2.483-1.148 2.79l-1.963 3.942ZM103.361 24.575c-.077 0-.153-.052-.23-.128-.076-.077-.127-.154-.127-.23v-1.23c0-.076.051-.153.127-.23.077-.077.153-.128.23-.128h14.431c.076 0 .153.051.229.128.077.077.128.153.128.23v1.23c0 .076-.051.153-.128.23-.076.076-.153.128-.229.128h-6.094v13.21a.413.413 0 0 1-.076.23c-.051.076-.128.076-.204.076h-1.658c-.076 0-.153 0-.204-.077a.413.413 0 0 1-.076-.23v-13.21H103.361Z"></path> -->
    <!-- <path fill="#0E3252" d="M111.418 38.22h-1.658c-.076 0-.204 0-.28-.128-.051-.102-.102-.205-.102-.282V24.678h-6.043c-.127 0-.229-.103-.306-.154-.076-.077-.153-.18-.153-.307v-1.229c0-.102.051-.205.153-.307.077-.077.179-.154.306-.154h14.457c.102 0 .204.051.306.154.102.102.153.205.153.307v1.229c0 .128-.102.23-.153.307-.102.102-.204.154-.306.154H111.8v13.107a.384.384 0 0 1-.102.282c-.051.153-.178.153-.28.153Zm-8.057-15.488c-.026 0-.077.026-.153.102-.077.077-.102.128-.102.154v1.229c0 .026.025.077.102.154.076.076.127.102.153.102h6.246V37.81c0 .052.026.103.051.18.026.025.051.025.128.025h1.657c.077 0 .102 0 .128-.025.051-.052.051-.128.051-.18V24.473h6.17c.025 0 .076-.026.153-.102.076-.077.102-.128.102-.154v-1.229c0-.026-.026-.077-.102-.154-.077-.076-.128-.102-.153-.102h-14.431ZM138.673 37.81a.311.311 0 0 1-.102.23c-.076.077-.153.077-.229.077h-1.658c-.076 0-.153 0-.229-.077a.311.311 0 0 1-.102-.23v-5.99h-10.657v5.99a.315.315 0 0 1-.102.23c-.077.077-.153.077-.23.077h-1.657c-.077 0-.153 0-.23-.077a.315.315 0 0 1-.102-.23V22.936c0-.076.026-.153.102-.23a.312.312 0 0 1 .23-.102h1.657c.077 0 .153.025.23.102a.315.315 0 0 1 .102.23v6.912h10.657v-6.912c0-.076.025-.153.102-.23a.31.31 0 0 1 .229-.102h1.658a.31.31 0 0 1 .229.102.311.311 0 0 1 .102.23V37.81Z"></path> -->
    <!-- <path fill="#0E3252" d="M138.341 38.22h-1.657c-.076 0-.204 0-.306-.102a.373.373 0 0 1-.127-.307v-5.888h-10.428v5.888c0 .128-.051.205-.128.307-.102.102-.229.102-.305.102h-1.658c-.076 0-.204 0-.306-.102a.373.373 0 0 1-.127-.307V22.937c0-.102.051-.205.127-.307a.371.371 0 0 1 .306-.128h1.658c.101 0 .203.051.305.128a.53.53 0 0 1 .128.307v6.81h10.428v-6.81c0-.128.051-.205.127-.307a.47.47 0 0 1 .306-.128h1.657c.102 0 .204.051.306.128.102.102.128.18.128.307v14.874c0 .128-.051.205-.128.307-.102.102-.204.102-.306.102Zm-12.722-6.528h10.861v6.093c0 .051 0 .103.077.154.051.051.076.051.153.051h1.657c.076 0 .102 0 .153-.051.076-.077.076-.128.076-.154V22.937c0-.051 0-.102-.076-.153-.051-.052-.102-.077-.153-.077h-1.657c-.051 0-.102 0-.153.077-.051.076-.077.128-.077.153v7.015h-10.861v-7.015c0-.051-.026-.102-.077-.153-.076-.052-.127-.077-.152-.077h-1.658c-.051 0-.102 0-.153.077-.076.076-.076.128-.076.153v14.874c0 .051 0 .102.076.153.051.052.077.052.153.052h1.658c.076 0 .101 0 .152-.052.051-.076.077-.128.077-.153v-6.119ZM147.953 31.128v5.069h9.765c.077 0 .153.051.23.128.076.077.127.153.127.23v1.23c0 .076-.051.153-.127.23a.312.312 0 0 1-.23.102H145.99a.409.409 0 0 1-.229-.077.311.311 0 0 1-.102-.23V22.962c0-.077.025-.154.102-.23a.31.31 0 0 1 .229-.103h11.473c.077 0 .153.051.23.128.076.077.127.153.127.23v1.23c0 .076-.051.153-.127.23-.077.076-.153.128-.23.128h-9.51v4.556h8.745c.077 0 .153.052.23.128.076.077.127.154.127.23v1.23c0 .076-.051.153-.127.23-.077.077-.153.128-.23.128l-8.745.051Z"></path> -->
    <!-- <path fill="#0E3252" d="M157.718 38.246H145.99a.38.38 0 0 1-.28-.103c-.102-.102-.153-.205-.153-.307V22.963c0-.103.051-.23.127-.308a.423.423 0 0 1 .306-.128h11.473c.102 0 .204.051.306.154.102.102.153.205.153.307v1.229c0 .128-.102.23-.153.307-.102.102-.204.154-.306.154h-9.408v4.326h8.643c.128 0 .23.102.306.154.077.076.153.179.153.307v1.229c0 .102-.051.204-.153.307-.076.077-.178.153-.306.153l-8.643.052v4.864h9.663c.128 0 .23.102.306.153.102.103.153.205.153.308v1.228c0 .128-.102.23-.153.307-.102.128-.204.18-.306.18ZM145.99 22.732c-.051 0-.102.026-.153.077-.051.051-.076.102-.076.153v14.874c0 .051 0 .102.076.154.051.025.102.05.153.05h11.728c.051 0 .102 0 .153-.076.077-.077.102-.128.102-.154v-1.228c0-.026-.025-.077-.102-.154-.076-.077-.127-.102-.153-.102h-9.867v-5.274l8.847-.051c.051 0 .102-.026.153-.103.077-.076.102-.128.102-.153v-1.229c0-.025-.025-.077-.102-.153-.076-.077-.127-.103-.153-.103h-8.847v-4.787h9.612c.026 0 .077-.026.153-.102.077-.077.102-.128.102-.154v-1.229c0-.026-.025-.077-.102-.154-.076-.076-.127-.102-.153-.102H145.99ZM167.203 27.494c-.179-.18-.332-.384-.485-.59a5.541 5.541 0 0 1-.331-.486l-.128-.153h-.076v11.57a.315.315 0 0 1-.102.231.412.412 0 0 1-.23.077h-1.657a.409.409 0 0 1-.229-.077.311.311 0 0 1-.102-.23V22.962c0-.076.025-.153.102-.23a.31.31 0 0 1 .229-.102h1.224l10.096 10.368a7.364 7.364 0 0 1 .969 1.203l.153.205h.102v-11.52c0-.077.026-.154.102-.23a.312.312 0 0 1 .23-.103h1.657a.31.31 0 0 1 .229.102.311.311 0 0 1 .102.23V37.76a.311.311 0 0 1-.102.23.31.31 0 0 1-.229.103h-1.198l-10.326-10.598Z"></path> -->
    <!-- <path fill="#0E3252" d="M165.851 38.246h-1.657a.38.38 0 0 1-.28-.102c-.102-.103-.153-.205-.153-.307V22.963c0-.102.051-.23.127-.307a.423.423 0 0 1 .306-.128h1.275l10.147 10.419c.204.205.408.435.587.691.178.23.306.41.382.563l.077.077V22.912c0-.128.051-.205.127-.307a.371.371 0 0 1 .306-.128h1.657c.128 0 .204.05.306.128.102.102.128.179.128.307v14.873c0 .128-.051.205-.128.308a.37.37 0 0 1-.306.128h-1.249l-10.377-10.65a5.45 5.45 0 0 1-.484-.589 3.426 3.426 0 0 1-.332-.512v-.025V37.81c0 .128-.051.205-.127.307-.153.077-.255.128-.332.128Zm-1.657-15.513c-.051 0-.102.025-.153.076-.051.052-.076.103-.076.154v14.874c0 .05 0 .102.076.153.051.026.102.051.153.051h1.657c.051 0 .102-.025.179-.05.051-.052.051-.103.051-.154V26.163h.229l.153.205c.102.153.204.307.332.486.153.205.306.41.484.589l10.301 10.573h1.172c.051 0 .102 0 .153-.077.051-.077.077-.128.077-.154V22.912c0-.051 0-.103-.077-.154-.076-.077-.127-.077-.153-.077h-1.657c-.051 0-.102 0-.153.077-.051.077-.076.128-.076.154v11.622h-.255l-.179-.256a7.364 7.364 0 0 0-.969-1.203l-10.071-10.342h-1.198ZM188.314 37.81a.315.315 0 0 1-.102.23c-.077.077-.153.077-.23.077h-1.657c-.076 0-.153 0-.229-.077a.311.311 0 0 1-.102-.23V22.936c0-.076.025-.153.102-.23a.31.31 0 0 1 .229-.102h1.657c.077 0 .153.025.23.102a.315.315 0 0 1 .102.23V37.81Z"></path> -->
    <!-- <path fill="#0E3252" d="M187.982 38.22h-1.657c-.076 0-.204 0-.306-.102a.406.406 0 0 1-.127-.307V22.937c0-.102.051-.205.127-.307a.371.371 0 0 1 .306-.128h1.657c.128 0 .204.051.306.128.102.102.128.18.128.307v14.874c0 .128-.051.205-.128.307-.102.102-.229.102-.306.102Zm-1.657-15.513c-.051 0-.102 0-.153.077-.051.05-.076.102-.076.153v14.874c0 .051 0 .102.076.153.051.052.077.052.153.052h1.657c.077 0 .102 0 .153-.052.077-.076.077-.128.077-.153V22.937c0-.051 0-.102-.077-.153-.076-.077-.127-.077-.153-.077h-1.657ZM205.83 34.919h-8.567l-1.402 2.867c-.077.154-.153.256-.204.282-.051.025-.153.05-.332.05h-1.682c-.153 0-.23-.05-.23-.178 0-.026.051-.128.128-.307l7.572-15.002h.918l7.572 15.002c.077.179.128.281.128.307 0 .128-.077.179-.23.179H207.563c-.051 0-.102-.026-.153-.077a1.346 1.346 0 0 1-.178-.256l-1.402-2.867Zm-7.573-1.971h6.604l-2.065-4.122c-.128-.23-.281-.589-.485-1.05-.204-.46-.357-.87-.484-1.228l-.204-.538h-.153c-.485 1.357-.893 2.33-1.147 2.842l-2.066 4.096Z"></path> -->
    <!-- <path fill="#0E3252" d="M209.476 38.22h-1.938a.312.312 0 0 1-.23-.102 1.637 1.637 0 0 1-.204-.282l-1.376-2.816h-8.389l-1.376 2.816c-.051.128-.153.282-.255.333-.077.051-.204.051-.383.051h-1.683c-.28 0-.331-.179-.331-.281 0-.051.026-.077.077-.205l.051-.154 7.597-15.078h1.046l.025.051 7.573 15.002c.025.077.051.128.076.179.051.102.076.154.076.18-.025.127-.051.306-.356.306Zm-12.29-3.43h8.695l.025.051 1.377 2.867c.076.103.127.18.153.23.025.026.051.052.076.052h1.938c.128 0 .128-.026.128-.077l-.051-.102a1.246 1.246 0 0 1-.077-.18l-7.521-14.95h-.765l-7.598 15.079c-.026.076-.051.102-.051.128 0 .025 0 .05.127.05h1.683c.204 0 .281-.025.281-.05.025 0 .076-.077.153-.23l1.427-2.868Zm7.853-1.74h-6.935l2.142-4.276c.153-.307.561-1.178 1.147-2.842l.026-.076h.306l.229.614c.128.333.281.742.485 1.229l.076.205c.153.358.281.665.408.844l2.116 4.301Zm-6.603-.206h6.272l-1.989-3.968c-.102-.204-.229-.486-.408-.87l-.076-.205c-.204-.486-.383-.921-.485-1.254l-.178-.461c-.587 1.613-.995 2.483-1.148 2.79l-1.988 3.968ZM218.017 27.494a5.344 5.344 0 0 1-.485-.59 5.541 5.541 0 0 1-.331-.486l-.128-.153h-.076v11.57a.315.315 0 0 1-.102.231.412.412 0 0 1-.23.077h-1.657a.409.409 0 0 1-.229-.077.311.311 0 0 1-.102-.23V22.962c0-.076.025-.153.102-.23a.31.31 0 0 1 .229-.102h1.224l10.096 10.368a7.364 7.364 0 0 1 .969 1.203l.153.205h.102v-11.52c0-.077.026-.154.102-.23a.312.312 0 0 1 .23-.103h1.657a.31.31 0 0 1 .229.102.311.311 0 0 1 .102.23V37.76a.311.311 0 0 1-.102.23.31.31 0 0 1-.229.103h-1.198l-10.326-10.598Z"></path> -->
    <!-- <path fill="#0E3252" d="M216.665 38.246h-1.657a.38.38 0 0 1-.28-.102c-.102-.103-.153-.205-.153-.307V22.963c0-.102.051-.205.127-.307a.371.371 0 0 1 .306-.128h1.275l10.147 10.419c.204.205.408.435.587.691.178.23.306.41.382.563l.077.077V22.912c0-.128.051-.205.127-.307a.423.423 0 0 1 .306-.128h1.657c.102 0 .204.05.306.128.102.102.128.179.128.307v14.873c0 .128-.051.205-.128.308a.42.42 0 0 1-.306.128h-1.249L217.94 27.57a5.979 5.979 0 0 1-.51-.614c-.127-.18-.255-.359-.331-.512v-.026 11.366c0 .128-.051.205-.128.308-.127.102-.229.153-.306.153Zm-1.657-15.513c-.051 0-.102 0-.153.076-.051.052-.076.103-.076.154v14.874c0 .05 0 .102.076.153.051.026.102.051.153.051h1.657c.051 0 .102-.025.179-.05.051-.052.051-.103.051-.154V26.163h.229l.153.205c.102.153.204.307.332.486.153.205.306.41.484.589l10.301 10.573h1.172c.051 0 .102-.026.153-.077.077-.077.077-.128.077-.154V22.912c0-.051 0-.103-.077-.154-.051-.051-.102-.077-.153-.077h-1.657c-.051 0-.102.026-.153.077-.076.077-.076.128-.076.154v11.622h-.255l-.179-.256a7.364 7.364 0 0 0-.969-1.203l-10.071-10.342h-1.198ZM83.55 46.337c-.076-.077-.102-.154-.102-.205 0-.102.051-.154.153-.154h1.963c.255 0 .46.103.612.308l3.876 5.094 1.096 1.587h.153c.382-.563.74-1.075 1.096-1.587l3.876-5.094a.726.726 0 0 1 .612-.308h1.963c.102 0 .153.052.153.154 0 .051-.026.128-.102.205l-6.553 8.653v6.17a.414.414 0 0 1-.076.23c-.051.077-.128.077-.204.077h-1.657c-.077 0-.153 0-.204-.077a.414.414 0 0 1-.077-.23v-6.17l-6.578-8.653Z"></path> -->
    <!-- <path fill="#0E3252" d="M92.091 61.568h-1.657c-.076 0-.204 0-.28-.128-.051-.102-.102-.205-.102-.282v-6.144l-6.578-8.627a.412.412 0 0 1-.128-.281c0-.154.102-.256.255-.256h1.963c.28 0 .536.128.689.358l3.875 5.094 1.071 1.536h.051c.408-.588.74-1.075 1.07-1.536l3.876-5.094c.179-.23.408-.358.689-.358h1.963c.153 0 .255.102.255.256a.412.412 0 0 1-.128.281l-6.527 8.602v6.144a.386.386 0 0 1-.102.281c-.05.154-.178.154-.255.154Zm-8.49-15.488c-.05 0-.05 0-.05.051 0 0 0 .051.076.128l6.629 8.679v6.195c0 .051.025.102.05.179.026.026.052.026.128.026h1.657c.077 0 .102 0 .128-.026.05-.051.05-.128.05-.18v-6.194l.026-.026 6.553-8.653c.076-.077.076-.128.076-.153 0-.052 0-.052-.05-.052H96.91c-.23 0-.408.077-.535.256l-3.876 5.095c-.331.46-.688.947-1.096 1.561l-.026.052h-.254l-1.148-1.613-3.875-5.069c-.128-.18-.306-.256-.536-.256h-1.963ZM111.825 58.267h-8.566l-1.403 2.867c-.076.153-.153.256-.204.281-.051.026-.153.052-.331.052h-1.683c-.153 0-.23-.052-.23-.18 0-.025.052-.128.128-.307l7.573-15.002h.917l7.573 15.002c.076.18.127.282.127.307 0 .128-.076.18-.229.18H113.559c-.051 0-.102-.026-.153-.077a1.346 1.346 0 0 1-.178-.256l-1.403-2.867Zm-7.547-1.972h6.604l-2.065-4.121c-.128-.23-.281-.59-.485-1.05-.204-.46-.357-.87-.484-1.229l-.204-.537h-.153c-.484 1.357-.892 2.33-1.147 2.841l-2.066 4.096Z"></path> -->
    <!-- <path fill="#0E3252" d="M115.497 61.568h-1.938a.31.31 0 0 1-.229-.102 1.585 1.585 0 0 1-.204-.282l-1.377-2.816h-8.439l-1.377 2.816c-.051.128-.153.282-.255.333-.077.051-.204.051-.383.051h-1.682c-.28 0-.332-.18-.332-.282 0-.05.026-.076.077-.204l.05-.154 7.599-15.078h1.045l.025.05 7.624 15.156c.051.128.076.154.076.205.051.128 0 .307-.28.307Zm-12.289-3.405h8.694l1.428 2.919c.076.102.127.179.153.23.025.026.051.051.076.051h1.938c.127 0 .127-.025.127-.077l-.051-.102-.076-.154-7.522-14.95h-.79l-7.598 15.078c-.025.077-.05.103-.05.128 0 .026 0 .052.127.052h1.682c.179 0 .281-.026.281-.052.025 0 .076-.076.153-.23l1.428-2.893Zm7.852-1.766h-6.934l2.141-4.275c.153-.308.561-1.204 1.147-2.842l.026-.077h.306l.229.615c.128.332.281.742.485 1.228l.102.205c.153.359.28.666.382.845l2.116 4.3Zm-6.603-.205h6.272l-1.989-3.968c-.102-.205-.229-.486-.408-.87l-.102-.205c-.204-.487-.382-.922-.484-1.255l-.179-.46c-.586 1.612-.994 2.483-1.147 2.79l-1.963 3.968ZM133.242 51.994c-.128 0-.23-.025-.281-.076-.051-.052-.076-.18-.102-.359-.076-1.075-.56-1.997-1.427-2.713-.867-.717-2.065-1.076-3.57-1.076-1.708 0-3.085.538-4.156 1.639-1.07 1.075-1.631 2.56-1.631 4.403 0 1.843.535 3.302 1.631 4.378 1.071 1.075 2.474 1.638 4.156 1.638 1.53 0 2.703-.333 3.57-.973.867-.64 1.351-1.485 1.453-2.56.025-.179.051-.307.102-.358.051-.051.153-.077.331-.077h1.428c.281 0 .408.077.408.205 0 1.613-.663 2.944-2.014 4.045-1.326 1.1-3.111 1.638-5.354 1.638-2.346 0-4.258-.691-5.788-2.15-1.53-1.434-2.269-3.38-2.269-5.837 0-2.458.765-4.378 2.295-5.837 1.529-1.434 3.442-2.176 5.787-2.176 2.295 0 4.08.589 5.405 1.818 1.301 1.203 1.964 2.585 1.964 4.096 0 .179-.128.256-.383.256l-1.555.076Z"></path> -->
    <!-- <path fill="#0E3252" d="M127.811 61.824c-2.371 0-4.334-.742-5.864-2.176-1.555-1.485-2.295-3.405-2.295-5.914 0-2.457.791-4.454 2.32-5.913 1.53-1.46 3.493-2.202 5.865-2.202 2.32 0 4.155.614 5.481 1.843 1.326 1.23 1.989 2.637 1.989 4.173 0 .154-.077.358-.484.358l-1.581.077c-.102 0-.281-.025-.357-.102-.077-.077-.102-.205-.128-.41-.076-1.05-.535-1.945-1.402-2.636-.867-.717-2.014-1.05-3.518-1.05-1.658 0-3.034.538-4.105 1.587-1.046 1.05-1.581 2.509-1.581 4.352 0 1.792.535 3.251 1.581 4.327 1.045 1.05 2.422 1.587 4.105 1.587 1.478 0 2.651-.333 3.518-.973.841-.614 1.326-1.46 1.428-2.483.025-.23.051-.359.127-.435.077-.077.204-.103.408-.103h1.428c.459 0 .51.205.51.307 0 1.613-.688 3.021-2.04 4.148-1.326 1.1-3.11 1.638-5.405 1.638Zm.026-15.974c-2.295 0-4.233.716-5.712 2.15-1.504 1.434-2.269 3.353-2.269 5.76 0 2.458.74 4.326 2.244 5.76 1.504 1.433 3.365 2.125 5.711 2.125 2.244 0 3.977-.512 5.278-1.613 1.326-1.1 1.963-2.406 1.963-3.968 0-.077-.153-.102-.306-.102h-1.428c-.204 0-.255.025-.255.05-.025.026-.051.129-.076.308-.102 1.075-.612 1.971-1.504 2.637-.893.665-2.117.998-3.646.998-1.709 0-3.136-.563-4.233-1.664-1.096-1.1-1.657-2.611-1.657-4.454 0-1.87.561-3.38 1.657-4.48 1.097-1.101 2.524-1.664 4.233-1.664 1.555 0 2.728.358 3.646 1.1.892.743 1.402 1.69 1.478 2.79 0 .052.026.257.077.282.025.026.076.052.204.052l1.555-.077c.28 0 .28-.103.28-.154 0-1.484-.637-2.841-1.912-4.019-1.275-1.229-3.085-1.818-5.328-1.818ZM156.418 61.158a.311.311 0 0 1-.102.23c-.076.077-.153.077-.229.077h-1.657c-.077 0-.153 0-.23-.077a.315.315 0 0 1-.102-.23v-5.99h-10.657v5.99a.315.315 0 0 1-.102.23c-.077.077-.153.077-.23.077h-1.657c-.076 0-.153 0-.229-.077a.311.311 0 0 1-.102-.23V46.284c0-.077.025-.154.102-.23a.31.31 0 0 1 .229-.103h1.657c.077 0 .153.026.23.103a.315.315 0 0 1 .102.23v6.912h10.657v-6.912c0-.077.026-.154.102-.23a.312.312 0 0 1 .23-.103h1.657a.31.31 0 0 1 .229.103.311.311 0 0 1 .102.23v14.874Z"></path> -->
    <!-- <path fill="#0E3252" d="M156.087 61.568h-1.658c-.076 0-.204 0-.306-.102a.406.406 0 0 1-.127-.308V55.27h-10.428v5.888c0 .128-.051.205-.127.308-.102.102-.23.102-.306.102h-1.658c-.076 0-.204 0-.306-.102a.373.373 0 0 1-.127-.308V46.285c0-.128.051-.205.127-.307a.423.423 0 0 1 .306-.128h1.658c.102 0 .204.05.306.128.102.102.127.179.127.307v6.81h10.428v-6.81c0-.103.051-.205.127-.307a.371.371 0 0 1 .306-.128h1.658c.127 0 .204.05.306.128.102.102.127.179.127.307v14.873c0 .128-.051.205-.127.308-.102.102-.204.102-.306.102Zm-12.723-6.502h10.861v6.092c0 .052 0 .103.077.154.051.051.076.051.153.051h1.657c.077 0 .102 0 .153-.051.077-.077.077-.128.077-.154V46.285c0-.051 0-.103-.077-.154-.076-.077-.127-.077-.153-.077h-1.657c-.051 0-.102 0-.153.077-.051.077-.077.128-.077.154v7.014h-10.861v-7.014c0-.051 0-.103-.076-.154-.077-.077-.128-.077-.153-.077h-1.658c-.051 0-.102.026-.153.077-.076.077-.076.128-.076.154v14.873c0 .052 0 .103.076.154.051.051.077.051.153.051h1.658c.076 0 .102 0 .153-.051.051-.077.076-.128.076-.154v-6.092ZM162.027 47.948c-.076 0-.153-.051-.229-.128-.077-.077-.128-.154-.128-.23v-1.255c0-.077.051-.154.128-.23.076-.077.153-.128.229-.128h14.457c.076 0 .153.05.229.128.077.076.128.153.128.23v1.229c0 .077-.051.153-.128.23-.076.077-.153.128-.229.128h-6.094v13.21a.413.413 0 0 1-.076.23c-.051.077-.128.077-.204.077h-1.658c-.076 0-.153 0-.204-.077a.413.413 0 0 1-.076-.23v-13.21H162.027v.026Z"></path> -->
    <!-- <path fill="#0E3252" d="M170.11 61.568h-1.658c-.076 0-.204 0-.28-.128-.051-.103-.102-.205-.102-.282V48.051h-6.043c-.102 0-.204-.051-.306-.154-.102-.102-.153-.204-.153-.307v-1.254c0-.103.051-.205.153-.307.102-.103.204-.154.306-.154h14.457c.127 0 .229.102.306.154.101.102.152.204.152.307v1.229c0 .102-.051.204-.152.307-.077.077-.179.153-.306.153h-5.992v13.108a.388.388 0 0 1-.102.281c-.076.154-.204.154-.28.154Zm-8.083-15.488c-.025 0-.076.025-.153.102-.076.077-.102.128-.102.154v1.229c0 .025.026.076.102.153.077.077.128.103.153.103h6.247v13.337c0 .051.025.103.051.18.025.025.051.025.127.025h1.658c.076 0 .102 0 .127-.026.051-.05.051-.128.051-.179V47.821h6.196c.051 0 .102-.026.153-.103.076-.077.102-.128.102-.153v-1.23c0-.025-.026-.076-.102-.153-.077-.077-.128-.102-.153-.102h-14.457ZM182.602 56.243c.23 0 .357.128.357.358 0 2.1 1.632 3.149 4.844 3.149 1.505 0 2.601-.282 3.289-.82.689-.537 1.046-1.254 1.046-2.175 0-1.23-.867-1.946-2.627-2.074l-4.283-.307c-3.008-.205-4.513-1.51-4.513-3.789 0-1.306.561-2.458 1.709-3.43 1.121-.973 2.753-1.485 4.869-1.485 2.244 0 3.876.435 4.947 1.331 1.045.896 1.58 2.074 1.58 3.507 0 .18-.127.256-.382.256h-1.53c-.229 0-.357-.153-.382-.435-.077-.768-.434-1.408-1.097-1.946-.663-.512-1.708-.768-3.085-.768-1.3 0-2.345.282-3.11.82-.765.537-1.148 1.228-1.148 2.099 0 1.1.816 1.74 2.448 1.869l4.207.307c1.683.128 2.881.563 3.62 1.28.74.717 1.122 1.638 1.122 2.74 0 1.228-.535 2.38-1.657 3.404-1.096 1.024-2.754 1.536-4.946 1.536-2.269 0-4.003-.435-5.252-1.357-1.25-.922-1.862-2.125-1.862-3.533v-.256c0-.179.102-.281.306-.281h1.53Z"></path> -->
    <path fill="#0E3252" d="M187.88 61.798c-2.32 0-4.079-.46-5.303-1.382-1.25-.947-1.887-2.176-1.887-3.61v-.255c0-.257.153-.385.408-.385h1.504c.281 0 .459.18.459.461 0 2.023 1.581 3.047 4.742 3.047 1.454 0 2.55-.282 3.238-.794.663-.538 1.02-1.229 1.02-2.1 0-1.177-.841-1.842-2.524-1.97l-4.283-.308c-3.06-.204-4.589-1.51-4.589-3.89 0-1.332.586-2.51 1.733-3.508 1.148-.998 2.805-1.51 4.921-1.51 2.295 0 3.926.435 4.997 1.356 1.071.922 1.607 2.1 1.607 3.584 0 .154-.077.359-.485.359h-1.53c-.153 0-.459-.077-.484-.538-.077-.768-.434-1.356-1.071-1.868-.637-.513-1.657-.743-3.034-.743-1.275 0-2.295.282-3.059.82-.74.537-1.122 1.177-1.122 1.996 0 1.05.765 1.639 2.345 1.767l4.207.307c1.683.128 2.932.563 3.697 1.33.765.743 1.173 1.69 1.173 2.817 0 1.28-.561 2.432-1.683 3.482-1.096 1.023-2.753 1.535-4.997 1.535Zm-6.782-5.452c-.178 0-.204.102-.204.179v.256c0 1.382.612 2.56 1.81 3.456 1.199.896 2.907 1.357 5.176 1.357 2.193 0 3.799-.487 4.87-1.485 1.071-.998 1.606-2.125 1.606-3.328 0-1.075-.357-1.946-1.096-2.663-.74-.716-1.938-1.126-3.57-1.254l-4.207-.307c-1.682-.128-2.549-.794-2.549-1.971 0-.896.408-1.613 1.198-2.176.79-.563 1.861-.845 3.162-.845 1.402 0 2.473.256 3.161.794.688.511 1.071 1.203 1.147 1.996.026.308.179.333.281.333h1.53c.28 0 .28-.102.28-.154 0-1.433-.51-2.56-1.53-3.43-1.02-.87-2.651-1.306-4.869-1.306-2.066 0-3.697.487-4.794 1.46-1.122.973-1.657 2.073-1.657 3.353 0 2.253 1.479 3.482 4.411 3.687l4.283.307c1.81.128 2.728.87 2.728 2.176 0 .922-.357 1.69-1.096 2.253-.714.563-1.861.845-3.366.845-3.289 0-4.946-1.101-4.946-3.252 0-.179-.076-.256-.255-.256h-1.504v-.025ZM37.148 71.143c15.897 0 28.785-12.94 28.785-28.903 0-15.962-12.888-28.902-28.785-28.902-15.898 0-28.785 12.94-28.785 28.902 0 15.963 12.887 28.903 28.785 28.903Z"></path>
    <path fill="#A71F2E" d="M41.023 75.008c-1.173.102-2.371.18-3.595.18C16.751 75.187 0 58.341 0 37.58 0 16.819 16.75 0 37.428 0c1.199 0 2.397.051 3.595.18C22.03 1.996 7.164 18.047 7.164 37.58c0 5.198 1.046 10.164 2.958 14.67-1.224-3.252-1.76-6.503-1.76-10.01 0-15.949 12.876-28.902 28.786-28.902.663 0 1.3.025 1.938.076-14.992.999-26.848 13.517-26.848 28.826 0 15.309 11.856 27.827 26.848 28.826-.638.05-1.275.076-1.938.076a28.856 28.856 0 0 1-12.697-2.944c-3.442-1.536-6.476-4.275-8.261-6.144 6.12 7.168 14.915 12.007 24.833 12.954Z"></path>
    <path fill="#A71F2E" d="M11.244 69.068c-.026 3.277 1.198 6.784 4.155 9.14C24.96 76.416 34.853 77.49 44.21 80c.23-.615.484-1.23.714-1.844-8.95-.588-17.77-2.585-26.108-5.836-2.6-.973-5.048-2.228-7.572-3.252Z"></path>
    <path fill="#fff" d="M37.148 27.137c-2.448 0-4.437 1.997-4.437 4.454 0 2.458 1.99 4.454 4.437 4.454s4.436-1.996 4.436-4.454a4.432 4.432 0 0 0-4.436-4.454Zm0 6.45a2.006 2.006 0 0 1-2.014-2.022c0-1.126.917-2.022 2.014-2.022a2.023 2.023 0 0 1 0 4.045ZM49.003 46.03c-.306 6.297-5.481 11.34-11.855 11.34-6.349 0-11.525-5.043-11.856-11.34h5.43v2.457h-2.574c1.147 3.404 4.13 5.939 7.776 6.4v-15.95H33.45v-2.431h7.368v2.432h-2.473v15.949c3.62-.487 6.604-3.021 7.75-6.4h-2.498v-2.458h5.405Z"></path>
</svg>