<?xml version="1.0" encoding="UTF-8" standalone="no"?>
<!-- Created with Inkscape (http://www.inkscape.org/) -->

<svg
   width="16.098852mm"
   height="16.901735mm"
   viewBox="0 0 16.098853 16.901735"
   version="1.1"
   id="svg1"
   xml:space="preserve"
   inkscape:version="1.3.2 (091e20e, 2023-11-25, custom)"
   sodipodi:docname="background-dark.svg"
   xmlns:inkscape="http://www.inkscape.org/namespaces/inkscape"
   xmlns:sodipodi="http://sodipodi.sourceforge.net/DTD/sodipodi-0.dtd"
   xmlns="http://www.w3.org/2000/svg"
   xmlns:svg="http://www.w3.org/2000/svg"><sodipodi:namedview
     id="namedview1"
     pagecolor="#ffffff"
     bordercolor="#000000"
     borderopacity="0.25"
     inkscape:showpageshadow="2"
     inkscape:pageopacity="0.0"
     inkscape:pagecheckerboard="true"
     inkscape:deskcolor="#d1d1d1"
     inkscape:document-units="mm"
     inkscape:zoom="12.852107"
     inkscape:cx="31.901383"
     inkscape:cy="31.940287"
     inkscape:window-width="1920"
     inkscape:window-height="1017"
     inkscape:window-x="1352"
     inkscape:window-y="-8"
     inkscape:window-maximized="1"
     inkscape:current-layer="layer1" /><defs
     id="defs1" /><g
     inkscape:label="Layer 1"
     inkscape:groupmode="layer"
     id="layer1"
     transform="translate(-111.27223,-134.97804)"><ellipse
       style="fill:none;fill-opacity:1;stroke:none;stroke-width:0.134334;stroke-opacity:0.028777"
       id="path3"
       cx="119.32166"
       cy="143.42891"
       rx="8.0494261"
       ry="8.4508677" /><g
       id="g3"
       style="fill:#a7a7a7;fill-opacity:0.1"><path
         style="fill:#a7a7a7;fill-opacity:0.1;stroke-width:0.0732843;stroke-opacity:0.028777"
         d="m 119.2109,137.86769 c 0.0774,4.2675 -2.95936,7.60255 -5.91588,10.60209 1.10675,-0.59962 2.35429,-0.96801 3.64355,-0.852 2.75074,0.24749 5.60778,0.63429 7.16002,-1.34267 -3.07406,1.34551 -4.25676,0.82261 -6.53461,0.60559 -0.30836,-0.0294 -0.84541,-0.0453 -1.45294,0.11663 1.83576,-2.06796 3.60928,-4.15618 3.98246,-6.70021 1.26868,0.76831 1.48715,1.76272 1.39074,2.74496 -0.27186,1.2359 -1.06042,1.96791 -3.37121,2.90265 2.33171,-0.0626 4.04055,-0.97377 4.33376,-3.01344 0.0585,-2.20476 -0.88726,-3.93745 -3.23589,-5.06323 z"
         id="path2"
         sodipodi:nodetypes="ccscsccccccc" /><path
         d="m 125.3483,145.77125 c 0,0.58666 -0.9863,1.34706 -1.42974,1.77422 -0.0432,0.0422 -0.0865,0.0844 -0.13096,0.12786 -0.83972,0.77112 -2.01286,1.19629 -3.22886,1.24157 -0.67101,0.0134 -1.30295,-0.0707 -1.96145,-0.17642 -0.83889,-0.13453 -1.6199,-0.19216 -2.47074,-0.15295 -0.0933,0.003 -0.18669,0.005 -0.28288,0.008 -0.54403,0.0219 -1.06932,0.0862 -1.60207,0.17955 -0.44734,0.0756 -0.44734,0.0756 -0.68856,-0.004 0.5585,-0.25138 1.09649,-0.49091 1.71567,-0.6118 0.0827,-0.0169 0.16532,-0.0339 0.25048,-0.0514 0.98633,-0.18842 1.9491,-0.17469 2.94655,-0.0539 0.5544,0.0595 1.1107,0.0582 1.66851,0.0594 0.0486,3.2e-4 0.0971,6.2e-4 0.14708,9e-4 0.52079,0.003 0.99521,-9e-4 1.49264,-0.13858 0.0739,-0.0196 0.14781,-0.0393 0.22396,-0.0595 0.95119,-0.29652 1.68983,-0.75555 2.42103,-1.34764 0.0889,-0.0642 0.17821,-0.128 0.26808,-0.19119 0.24963,-0.18064 0.45624,-0.38692 0.66126,-0.60415 z"
         fill="#2f2f2f"
         id="path5"
         style="fill:#a7a7a7;fill-opacity:0.1;stroke-width:0.0661327" /><path
         d="m 118.50409,149.17681 c 1.2199,0.27045 2.42813,0.14779 3.63241,-0.11065 0.0953,-0.0204 0.19062,-0.0408 0.28594,-0.0611 -0.43005,0.41777 -1.22641,0.65972 -1.85865,0.73416 -1.05125,0.0566 -1.98634,-0.024 -2.98539,-0.31187 -0.59949,-0.14297 -1.22186,-0.13441 -1.83994,-0.15081 -0.093,-0.003 -0.18578,-0.005 -0.28148,-0.008 -0.22786,-0.006 -0.45572,-0.0127 -0.68359,-0.0188 1.1449,-0.51768 2.53943,-0.34368 3.7307,-0.0729 z"
         fill="#0799d9"
         id="path9"
         style="fill:#a7a7a7;fill-opacity:0.1;stroke-width:0.0661327" /><path
         d="m 114.92942,137.10171 c 0.34308,0.0403 0.62889,0.15674 0.93825,0.28296 0.054,0.0219 0.10791,0.0439 0.16351,0.0664 0.44184,0.18284 0.85295,0.39119 1.25729,0.6295 0.0616,0.0346 0.1231,0.0691 0.18653,0.10467 0.86191,0.49401 0.86191,0.49401 1.10021,0.81303 0.0334,0.30827 -0.0271,0.58307 -0.10722,0.88328 -0.0199,0.0756 -0.0398,0.15127 -0.0603,0.22919 -0.0155,0.0568 -0.031,0.11373 -0.047,0.17231 -0.13708,-0.14476 -0.27209,-0.28922 -0.39819,-0.44117 -0.33814,-0.40279 -0.75801,-0.74518 -1.31748,-0.90479 0.0173,0.0474 0.0173,0.0474 0.035,0.0957 0.0475,0.19399 0.0472,0.37762 0.0485,0.57587 3.1e-4,0.0415 6e-4,0.083 9.5e-4,0.12578 6.9e-4,0.13444 6.9e-4,0.26888 4.8e-4,0.40333 -2e-5,0.0457 -4e-5,0.0914 -6e-5,0.13848 -0.002,0.98577 -0.0871,1.92272 -0.37077,2.88228 -0.0272,0.0935 -0.0272,0.0935 -0.0548,0.1888 -0.29097,0.89876 -0.80238,1.7538 -1.44647,2.50311 -0.0405,0.0474 -0.0809,0.0949 -0.12249,0.14375 -0.29068,0.3409 -0.58361,0.68032 -0.87833,1.01867 -0.0715,-0.12236 -0.0715,-0.12236 -0.0305,-0.24178 0.0345,-0.0719 0.0345,-0.0719 0.0696,-0.14513 0.0376,-0.0793 0.0376,-0.0793 0.076,-0.16024 0.0269,-0.0554 0.0538,-0.1108 0.0815,-0.16789 0.0258,-0.0542 0.0516,-0.10844 0.0782,-0.1643 0.10698,-0.2241 0.21465,-0.4465 0.33425,-0.66593 0.17643,-0.35113 0.27411,-0.72817 0.38731,-1.09694 0.0126,-0.0406 0.0251,-0.0811 0.0381,-0.12296 0.72948,-2.36023 0.7008,-4.44642 0.0674,-6.83012 -0.0294,-0.13231 -0.0294,-0.13231 -0.0294,-0.31586 z"
         fill="#2d2d2d"
         id="path4"
         style="fill:#a7a7a7;fill-opacity:0.1;stroke-width:0.0661327" /></g></g></svg>
