<?xml version="1.0" encoding="UTF-8" standalone="no"?>
<!-- Created with Inkscape (http://www.inkscape.org/) -->

<svg
   width="19.300613mm"
   height="19.300613mm"
   viewBox="0 0 19.300613 19.300613"
   version="1.1"
   id="svg1"
   inkscape:export-filename="Final.png"
   inkscape:export-xdpi="96"
   inkscape:export-ydpi="96"
   inkscape:version="1.3.2 (091e20e, 2023-11-25, custom)"
   sodipodi:docname="background.svg"
   xmlns:inkscape="http://www.inkscape.org/namespaces/inkscape"
   xmlns:sodipodi="http://sodipodi.sourceforge.net/DTD/sodipodi-0.dtd"
   xmlns="http://www.w3.org/2000/svg"
   xmlns:svg="http://www.w3.org/2000/svg">
  <sodipodi:namedview
     id="namedview1"
     pagecolor="#ffffff"
     bordercolor="#000000"
     borderopacity="0.25"
     inkscape:showpageshadow="2"
     inkscape:pageopacity="0.0"
     inkscape:pagecheckerboard="true"
     inkscape:deskcolor="#d1d1d1"
     inkscape:document-units="mm"
     inkscape:zoom="11.254716"
     inkscape:cx="36.4736"
     inkscape:cy="36.4736"
     inkscape:window-width="1920"
     inkscape:window-height="1017"
     inkscape:window-x="1352"
     inkscape:window-y="-8"
     inkscape:window-maximized="1"
     inkscape:current-layer="layer1"
     showgrid="false" />
  <defs
     id="defs1" />
  <g
     inkscape:label="Layer 1"
     inkscape:groupmode="layer"
     id="layer1"
     transform="translate(-11.285815,-1.478268)">
    <circle
       style="opacity:1;fill:#fafafa;fill-opacity:1;stroke:#28170b;stroke-width:0.264583;stroke-dasharray:none"
       id="path1"
       cx="20.936121"
       cy="11.128574"
       r="9.5180149" />
    <path
       d="m 20.542449,4.7216026 c 0.235796,0.078908 0.425227,0.1558436 0.615613,0.3053713 0.04237,0.033022 0.08474,0.066044 0.128387,0.1000665 0.04406,0.035334 0.08812,0.070669 0.13352,0.1070735 0.04629,0.036832 0.09258,0.073663 0.140265,0.1116113 1.199868,0.9628508 2.546716,2.2900796 2.673216,3.8265837 0.06727,1.2245431 -0.190031,2.3041001 -1.071934,3.2700621 -0.85974,0.837678 -2.075767,1.255346 -3.294804,1.436099 -0.125075,0.0036 -0.250409,0.0053 -0.375409,0 0.193203,-0.117227 0.339547,-0.180422 0.553729,-0.251984 1.258686,-0.452554 2.343512,-1.084912 2.901504,-2.232094 0.269656,-0.662936 0.287625,-1.6626673 0.01642,-2.3271211 -0.522945,-1.0618796 -0.522945,-1.0618796 -1.444447,-1.8172795 -0.01103,0.058931 -0.02207,0.1178616 -0.03344,0.1785782 -0.300863,1.4903558 -0.890719,2.8769534 -1.690763,4.2017244 -0.06822,0.113876 -0.134319,0.2288 -0.20006,0.343876 -0.227857,0.39668 -0.489488,0.753035 -0.784254,1.111243 -0.125562,0.154611 -0.241775,0.310997 -0.355759,0.472738 -0.322014,0.44737 -0.698632,0.859648 -1.065225,1.277007 0.04413,-0.0049 0.08826,-0.0099 0.13374,-0.01494 1.044104,-0.0983 2.154154,-0.154259 3.183942,0.04912 1.590002,0.30828 3.015728,0.03922 4.388184,-0.746345 0.05865,-0.03559 0.117304,-0.07117 0.177733,-0.107841 0.05091,-0.02995 0.101818,-0.0599 0.15427,-0.09076 0.09979,-0.05943 0.198271,-0.120673 0.296221,-0.182582 -0.02013,0.03382 -0.04027,0.06766 -0.06101,0.102502 -0.122103,0.233958 -0.216435,0.474334 -0.314405,0.717516 0.07433,-0.02255 0.148662,-0.0451 0.225245,-0.06834 0.02478,-0.06766 0.04955,-0.135302 0.07508,-0.205004 0.04955,0 0.09911,0 0.150165,0 0,0.0451 0,0.0902 0,0.13667 0.04955,0 0.09911,0 0.150163,0 0,0.0451 0,0.0902 0,0.13667 0.09911,-0.06765 0.198216,-0.135304 0.300328,-0.205006 0.04955,0.0902 0.09911,0.180405 0.150163,0.27334 0.501659,-0.306045 0.885438,-0.676584 1.276393,-1.093357 0,0.655272 -1.035899,1.504594 -1.501638,1.98171 -0.04539,0.04713 -0.09078,0.09425 -0.137552,0.142809 -0.881961,0.861297 -2.114101,1.336189 -3.391261,1.386766 -0.704757,0.01496 -1.368481,-0.07899 -2.060096,-0.197046 -0.881096,-0.150266 -1.701386,-0.214625 -2.595017,-0.170837 -0.09804,0.003 -0.196088,0.0062 -0.297101,0.0093 -0.571391,0.02451 -1.12311,0.09626 -1.682653,0.200549 -0.469844,0.08449 -0.469844,0.08449 -0.723194,-0.0049 0.123885,-0.06766 0.24777,-0.135303 0.375409,-0.205004 -0.0209,-0.07611 -0.0209,-0.07611 -0.04223,-0.153754 -0.03275,-0.187359 -0.01423,-0.28311 0.04223,-0.46126 -0.129837,0.02131 -0.259664,0.04268 -0.389487,0.06407 -0.0723,0.01189 -0.144598,0.02378 -0.219087,0.03603 -0.197986,0.03331 -0.39542,0.06846 -0.592736,0.104903 0.264252,-0.28481 0.534558,-0.562707 0.811823,-0.837102 0.308621,-0.307718 0.601622,-0.623637 0.888958,-0.947878 0.158515,-0.176917 0.320043,-0.350795 0.483284,-0.524073 0.420106,-0.4464 0.814362,-0.905656 1.19462,-1.381028 0.04278,-0.05118 0.08556,-0.102358 0.129633,-0.155088 0.734745,-0.90483 1.288839,-1.946753 1.747414,-2.9883143 0.02244,-0.049527 0.04488,-0.099055 0.068,-0.1500831 0.683192,-1.5178936 0.806524,-2.9412608 0.757898,-4.56499 z"
       fill="#0498dc"
       id="path2"
       style="stroke-width:0.0716289" />
    <path
       d="m 28.371578,13.326551 c 0,0.722974 -1.096323,1.660045 -1.589229,2.186458 -0.04804,0.05201 -0.09608,0.103997 -0.145575,0.157564 -0.933407,0.950285 -2.23742,1.474243 -3.589077,1.530046 -0.745865,0.0165 -1.448306,-0.08715 -2.180264,-0.217406 -0.93249,-0.16579 -1.800629,-0.236798 -2.746386,-0.188486 -0.103762,0.0033 -0.207526,0.0068 -0.314432,0.01033 -0.60472,0.02705 -1.188623,0.106213 -1.780804,0.221271 -0.497249,0.09322 -0.497249,0.09322 -0.765377,-0.0055 0.131109,-0.07464 0.26222,-0.149282 0.397305,-0.226186 -0.01475,-0.05599 -0.0295,-0.11196 -0.0447,-0.169638 -0.03413,-0.203561 -0.02295,-0.316382 0.0447,-0.508918 -0.131111,0 -0.262222,0 -0.397305,0 0.227967,-0.216303 0.501606,-0.259837 0.804546,-0.339278 0.05685,-0.01604 0.113699,-0.03209 0.172271,-0.0486 1.076789,-0.285651 2.172194,-0.313904 3.281918,-0.3062 0.20882,0.0013 0.417612,0.0016 0.626438,0.0015 0.134143,3.68e-4 0.268286,8.09e-4 0.402428,0.0013 0.09263,1.26e-4 0.09263,1.26e-4 0.187115,2.55e-4 0.304601,0.0027 0.585504,0.02311 0.882201,0.08781 1.398047,0.07865 2.537426,-0.0697 3.65523,-0.904741 0.225344,-0.191107 0.436383,-0.387624 0.63569,-0.603162 0.07946,0.226185 0.07946,0.226185 0.07946,0.452372 0.05244,-0.02487 0.104889,-0.04976 0.158923,-0.0754 0.02622,-0.07465 0.05245,-0.149283 0.07946,-0.226186 0.05244,0 0.104889,0 0.158924,0 0,0.04975 0,0.09952 0,0.150791 0.05245,0 0.104889,0 0.158921,0 0,0.04975 0,0.09952 0,0.150791 0.104889,-0.07464 0.209778,-0.149284 0.317847,-0.226187 0.07866,0.149283 0.07866,0.149283 0.158923,0.301582 0.530921,-0.337665 0.937086,-0.74649 1.350845,-1.206323 z"
       fill="#ecf4f4"
       id="path3"
       style="fill:#f9f9f9;fill-opacity:1;stroke:none;stroke-width:0.0774015;stroke-opacity:1" />
    <path
       d="m 15.737208,4.6532677 c 0.360346,0.045015 0.660538,0.1750683 0.98545,0.3160486 0.05668,0.024483 0.113348,0.048965 0.171738,0.074191 0.464066,0.2042154 0.895842,0.4369364 1.320514,0.7031181 0.06465,0.038582 0.129306,0.077165 0.195917,0.1169166 0.905269,0.5517764 0.905269,0.5517764 1.155558,0.9081059 0.03508,0.3443174 -0.02841,0.6512617 -0.112623,0.9865842 -0.0209,0.084476 -0.04181,0.1689525 -0.06335,0.2559886 -0.01626,0.063511 -0.03252,0.1270224 -0.04928,0.1924584 -0.143983,-0.161686 -0.28578,-0.3230416 -0.418223,-0.4927583 -0.355132,-0.449907 -0.796122,-0.8323382 -1.383735,-1.0106081 0.01819,0.052903 0.01819,0.052903 0.03675,0.1068733 0.04988,0.2166682 0.04948,0.4217843 0.05094,0.6432082 3.15e-4,0.046362 6.3e-4,0.092724 9.85e-4,0.1404912 7.35e-4,0.1501703 7.35e-4,0.300327 5.1e-4,0.4504984 -2e-5,0.051045 -4.1e-5,0.1020897 -6.2e-5,0.1546813 -0.0021,1.1010522 -0.09151,2.1475819 -0.389423,3.2193509 -0.02845,0.104384 -0.02845,0.104384 -0.05748,0.210878 -0.305615,1.003875 -0.842731,1.958913 -1.519235,2.795855 -0.04245,0.05298 -0.08491,0.105969 -0.128643,0.16056 -0.305298,0.380767 -0.612969,0.759881 -0.922503,1.137802 -0.07508,-0.13667 -0.07508,-0.13667 -0.03204,-0.270052 0.03619,-0.08025 0.03619,-0.08025 0.07311,-0.162113 0.03949,-0.0886 0.03949,-0.0886 0.07977,-0.178978 0.02826,-0.06189 0.05653,-0.123764 0.08564,-0.187521 0.0271,-0.06056 0.0542,-0.12112 0.08212,-0.183516 0.112369,-0.250306 0.225461,-0.498717 0.351066,-0.743808 0.185304,-0.3922 0.287894,-0.813324 0.406791,-1.225223 0.0132,-0.04532 0.0264,-0.09065 0.04,-0.137342 0.766176,-2.6362534 0.736038,-4.9664168 0.07066,-7.6288883 -0.03089,-0.1477975 -0.03089,-0.1477975 -0.03089,-0.352802 z"
       fill="#2d2d2d"
       id="path4"
       style="stroke-width:0.0716289" />
    <path
       d="m 27.675228,13.536796 c 0,0.655274 -1.035899,1.504594 -1.501637,1.98171 -0.04539,0.04713 -0.09078,0.09426 -0.137552,0.142809 -0.881961,0.861297 -2.114102,1.336189 -3.391261,1.386767 -0.704757,0.01496 -1.368481,-0.07899 -2.060096,-0.197047 -0.881095,-0.150265 -1.701386,-0.214624 -2.595017,-0.170837 -0.09804,0.003 -0.196088,0.0062 -0.297102,0.0093 -0.571391,0.02451 -1.123109,0.09626 -1.682652,0.20055 -0.469844,0.08449 -0.469844,0.08449 -0.723194,-0.0049 0.58659,-0.280786 1.151635,-0.548326 1.801964,-0.683348 0.08681,-0.01894 0.173634,-0.03788 0.263081,-0.05739 1.035936,-0.210465 2.047126,-0.195123 3.094744,-0.06021 0.582292,0.06654 1.166558,0.06499 1.752437,0.06635 0.05097,3.42e-4 0.101945,6.84e-4 0.154462,0.0011 0.546998,0.003 1.045287,-0.0013 1.567729,-0.154788 0.07762,-0.02193 0.155243,-0.04386 0.235217,-0.06647 0.999039,-0.331181 1.774828,-0.84391 2.542813,-1.505235 0.09335,-0.07173 0.187151,-0.142974 0.281557,-0.213547 0.262175,-0.201774 0.479189,-0.432177 0.694507,-0.674807 z"
       fill="#2f2f2f"
       id="path5"
       style="stroke-width:0.0716289" />
    <path
       d="m 23.846052,8.1383442 c 0.418111,0.380539 0.400268,1.0251481 0.403565,1.5332629 -0.01178,1.0996489 -0.39369,2.0941729 -1.229466,2.9085019 -0.855604,0.756098 -2.184857,1.270705 -3.377805,1.304768 -0.04984,-0.0021 -0.09969,-0.0042 -0.151044,-0.0064 0.193203,-0.117227 0.339548,-0.180422 0.553729,-0.251984 1.258687,-0.452554 2.343512,-1.084912 2.901504,-2.232094 0.302775,-0.744358 0.268125,-1.7798375 -0.07655,-2.5043644 -0.04051,-0.087736 -0.04051,-0.087736 -0.08183,-0.1772435 -0.07015,-0.1472405 -0.142741,-0.2928658 -0.218501,-0.43777 0.185828,0.033825 0.185828,0.033825 0.37541,0.068335 0.02081,0.082274 0.04162,0.1645481 0.06306,0.2493153 0.02746,0.1076651 0.05493,0.215328 0.08241,0.3229889 0.02055,0.081393 0.02055,0.081393 0.0415,0.1644307 0.01331,0.051972 0.02662,0.1039437 0.04033,0.1574904 0.01219,0.047953 0.02437,0.095906 0.03694,0.1453116 0.033,0.1278916 0.033,0.1278916 0.111175,0.2588249 0.01729,0.1620378 0.03087,0.3244141 0.04224,0.4868861 0.0063,0.08756 0.01258,0.175119 0.01906,0.265331 0.0068,0.101213 0.0068,0.101213 0.01379,0.204471 0.02478,-0.112752 0.04955,-0.225505 0.07508,-0.341674 0.02478,0 0.04955,0 0.07508,0 0,0.202954 0,0.405909 0,0.615013 0.123886,0.02255 0.24777,0.0451 0.37541,0.06834 0.02478,-0.157852 0.04955,-0.315706 0.07508,-0.478343 -0.04955,0 -0.09911,0 -0.150164,0 0,-0.0451 0,-0.0902 0,-0.13667 0.07433,0 0.148662,0 0.225246,0 -0.0083,-0.219286 -0.0181,-0.4384969 -0.02816,-0.6577222 -0.0023,-0.061749 -0.0047,-0.1234991 -0.0071,-0.1871199 -0.0162,-0.336676 -0.0579,-0.6137151 -0.190052,-0.9318629 -0.0094,-0.23063 -0.0094,-0.23063 0,-0.410009 z"
       fill="#0a99d7"
       id="path7"
       style="stroke-width:0.0716289" />
    <path
       d="m 20.706691,17.487137 c 1.281264,0.302082 2.550258,0.165074 3.815098,-0.12359 0.100107,-0.02278 0.200216,-0.04556 0.300328,-0.06834 -0.451673,0.466636 -1.288094,0.736874 -1.95213,0.820018 -1.104127,0.06321 -2.086247,-0.02677 -3.135548,-0.348348 -0.629647,-0.159684 -1.283307,-0.15012 -1.932479,-0.168434 -0.09756,-0.003 -0.19512,-0.0059 -0.295635,-0.0089 -0.239317,-0.0072 -0.478639,-0.01418 -0.71797,-0.02096 1.202482,-0.578226 2.667148,-0.383887 3.918336,-0.08142 z"
       fill="#0799d9"
       id="path9"
       style="stroke-width:0.0716289" />
    <path
       d="m 19.716548,15.99685 c 0,0.02255 0,0.0451 0,0.06834 -0.272548,0 -0.545094,0 -0.825901,0 0,0.0451 0,0.0902 0,0.13667 0.198216,0.02255 0.396432,0.0451 0.600656,0.06834 0,0.0902 0,0.180404 0,0.27334 -0.264361,0.07164 -0.51907,0.08498 -0.793933,0.0977 -0.09763,0.0049 -0.195253,0.0098 -0.295837,0.01486 -0.05125,0.0025 -0.102488,0.0051 -0.155284,0.0077 -0.822251,0.04111 -1.625819,0.09688 -2.432493,0.256417 -0.211609,0.03115 -0.328714,0.03177 -0.527039,-0.03497 0.58659,-0.280787 1.151635,-0.548327 1.801964,-0.683349 0.08681,-0.01893 0.173634,-0.03788 0.263081,-0.05739 0.790786,-0.160131 1.557437,-0.169179 2.364786,-0.147614 z"
       fill="#343434"
       id="path12"
       style="stroke-width:0.0716289" />
    <path
       d="m 15.737208,13.058452 c 0.150163,0.13667 0.150163,0.13667 0.159549,0.316049 -0.0031,0.05355 -0.0062,0.107115 -0.0094,0.162295 0.04955,0 0.09911,0 0.150164,0 0.0062,-0.04228 0.01239,-0.08457 0.01877,-0.128128 0.05631,-0.145211 0.05631,-0.145211 0.211168,-0.230629 0.04801,-0.01691 0.09601,-0.03382 0.145471,-0.05125 -0.12789,0.914318 -1.212291,1.881679 -1.801965,2.596724 -0.07508,-0.13667 -0.07508,-0.13667 -0.03204,-0.270053 0.02412,-0.0535 0.04825,-0.106994 0.0731,-0.162112 0.02633,-0.05907 0.05265,-0.118126 0.07977,-0.178978 0.02826,-0.06188 0.05653,-0.123764 0.08564,-0.18752 0.0271,-0.06056 0.0542,-0.121121 0.08213,-0.183517 0.117798,-0.262397 0.237728,-0.523754 0.362212,-0.783581 0.107578,-0.232287 0.189771,-0.465484 0.269238,-0.706572 0.05602,-0.124391 0.05602,-0.124391 0.206182,-0.192725 z"
       fill="#2d2e2e"
       id="path15"
       style="stroke-width:0.0716289" />
    <path
       d="m 20.842776,17.500217 c 0,0.02255 0,0.0451 0,0.06834 -0.346878,0 -0.693756,0 -1.051146,0 0.181796,0.16546 0.285395,0.172779 0.534958,0.213547 0.102496,0.01718 0.102496,0.01718 0.207063,0.0347 0.05246,0.0083 0.104915,0.01656 0.158962,0.02509 -0.02478,0.0451 -0.04956,0.0902 -0.07508,0.13667 -0.06175,-0.01322 -0.123499,-0.02642 -0.187118,-0.04004 -0.08382,-0.0178 -0.167632,-0.03559 -0.253989,-0.05392 -0.12282,-0.02616 -0.12282,-0.02616 -0.248122,-0.05286 -0.09465,-0.0192 -0.189311,-0.03841 -0.286836,-0.05819 -0.05358,-0.01186 -0.107165,-0.02372 -0.162372,-0.03593 -0.559771,-0.115421 -1.114246,-0.130569 -1.68652,-0.143443 -0.09688,-0.0027 -0.193763,-0.0053 -0.293582,-0.008 -0.236869,-0.0064 -0.473739,-0.01225 -0.710638,-0.01762 1.239523,-0.596037 2.763743,-0.372885 4.054422,-0.06834 z"
       fill="#2aa1cc"
       id="path16"
       style="stroke-width:0.0716289" />
    <path
       d="m 18.890647,16.065185 c 1.413045,-0.01261 1.413045,-0.01261 2.102293,0.06834 -0.09911,0.02255 -0.198216,0.0451 -0.300327,0.06834 -0.0068,0.04264 -0.01355,0.08527 -0.02053,0.129196 -0.05455,0.144144 -0.05455,0.144144 -0.1748,0.215681 -0.402889,0.12742 -0.776275,0.219237 -1.188993,0.06513 -0.03872,-0.02255 -0.07743,-0.0451 -0.117315,-0.06834 0.09911,-0.02255 0.198217,-0.0451 0.300328,-0.06834 0,-0.0451 0,-0.0902 0,-0.13667 -0.222993,-0.02255 -0.445987,-0.0451 -0.675738,-0.06834 0.02478,-0.06765 0.04956,-0.135303 0.07508,-0.205004 z"
       fill="#2b2b2b"
       id="path18"
       style="stroke-width:0.0716289" />
    <path
       d="m 19.341138,6.6349779 c 0.07433,0.045101 0.148663,0.090202 0.225247,0.1366697 0.03364,0.3440399 -0.02854,0.6517469 -0.112624,0.9865841 -0.0209,0.084476 -0.04181,0.1689525 -0.06335,0.2559887 -0.01626,0.063512 -0.03252,0.1270227 -0.04927,0.1924586 C 19.294198,8.1531217 19.247257,8.0995642 19.198894,8.0443838 19.105229,7.9381015 19.010647,7.832467 18.914111,7.7283352 18.799586,7.5695043 18.777967,7.4351882 18.740484,7.2499914 c -0.04955,-0.045101 -0.09911,-0.090202 -0.150165,-0.1366696 0.225247,-0.068335 0.225247,-0.068335 0.450492,-0.068335 0.01161,-0.063423 0.01161,-0.063423 0.02346,-0.1281278 0.05162,-0.1452115 0.05162,-0.1452115 0.276863,-0.2818807 z"
       fill="#353535"
       id="path20"
       style="stroke-width:0.0716289" />
    <path
       d="m 21.959619,15.159748 c 0.07027,-5.29e-4 0.140532,-0.0011 0.212928,-0.0016 0.101044,2.64e-4 0.101044,2.64e-4 0.204129,5.35e-4 0.06058,1.53e-4 0.12115,3.07e-4 0.183562,4.67e-4 0.159586,0.01768 0.159586,0.01768 0.384831,0.154353 -0.271157,0.24679 -0.701962,0.17627 -1.069917,0.187921 -0.08508,0.0038 -0.170149,0.0076 -0.257801,0.01148 -0.08255,0.0029 -0.165116,0.0058 -0.250175,0.0088 -0.07532,0.0027 -0.150646,0.0055 -0.228252,0.0082 -0.245636,-0.01268 -0.442388,-0.06888 -0.671557,-0.148082 0,-0.02255 0,-0.0451 0,-0.06834 0.506928,-0.118882 0.969782,-0.157783 1.492252,-0.153753 z"
       fill="#0297dc"
       id="path26"
       style="stroke-width:0.0716289" />
    <path
       d="m 19.641466,17.363547 c 0,0.0451 0,0.0902 0,0.13667 -0.238227,0.10841 -0.494659,0.07659 -0.756098,0.07501 -0.08967,-1.45e-4 -0.08967,-1.45e-4 -0.181158,-2.92e-4 -0.191259,-3.84e-4 -0.38251,-0.0013 -0.573767,-0.0021 -0.129535,-3.42e-4 -0.259071,-6.54e-4 -0.388607,-8.95e-4 -0.31783,-7.54e-4 -0.635655,-0.002 -0.953481,-0.0033 0.783061,-0.379761 1.984055,-0.212167 2.853111,-0.205005 z"
       fill="#0b93ce"
       id="path34"
       style="stroke-width:0.0716289" />
    <path
       d="m 15.962454,11.691756 c 0.43172,0.111044 0.43172,0.111044 0.600655,0.341674 0,-0.0451 0,-0.0902 0,-0.13667 0.04955,0 0.09911,0 0.150163,0 0.04956,-0.0451 0.09911,-0.0902 0.150164,-0.136669 0,0.0451 0,0.0902 0,0.136669 0.07433,-0.02255 0.148663,-0.0451 0.225245,-0.06834 -0.07433,0.202954 -0.148661,0.405909 -0.225245,0.615013 -0.09911,0 -0.198216,0 -0.300327,0 0,-0.0451 0,-0.0902 0,-0.13667 -0.04955,0 -0.09911,0 -0.150164,0 -0.02478,-0.112752 -0.04956,-0.225505 -0.07508,-0.341674 -0.07433,0 -0.148662,0 -0.225246,0 0,0.0902 0,0.180405 0,0.27334 0,0.06765 0,0.135302 0,0.205004 -0.09911,0.02255 -0.198216,0.0451 -0.300328,0.06834 0.07508,-0.585726 0.07508,-0.585726 0.150166,-0.820017 z"
       fill="#363636"
       id="path36"
       style="stroke-width:0.0716289" />
    <path
       d="m 16.63819,11.418416 c 0.09911,0 0.198216,0 0.300328,0 0.150163,0.205005 0.150163,0.205005 0.122008,0.354488 -0.01549,0.04087 -0.03097,0.08175 -0.04692,0.123856 -0.04955,0 -0.09911,0 -0.150164,0 -0.04955,0.0451 -0.09911,0.0902 -0.150164,0.13667 0,-0.0451 0,-0.0902 0,-0.13667 -0.04955,0 -0.09911,0 -0.150163,0 0.02478,0.112752 0.04955,0.225505 0.07508,0.341675 -0.05729,-0.05355 -0.114594,-0.107116 -0.173627,-0.162296 -0.194944,-0.184338 -0.194944,-0.184338 -0.427029,-0.316048 0.02478,-0.06766 0.04956,-0.135304 0.07508,-0.205005 0.148662,0 0.297324,0 0.450491,0 0.02478,-0.0451 0.04955,-0.0902 0.07508,-0.13667 z"
       fill="#272727"
       id="path44"
       style="stroke-width:0.0716289" />
    <path
       d="m 15.737208,4.6532677 c 0.34542,0.062876 0.585393,0.1438043 0.900982,0.2733394 -0.09385,0.1067731 -0.09385,0.1067731 -0.225245,0.2050045 -0.164242,-0.021355 -0.164242,-0.021355 -0.300328,-0.068335 0,0.045101 0,0.090202 0,0.1366697 0.07433,0.022551 0.148663,0.045101 0.225246,0.068335 C 16.056306,5.4049509 16.056306,5.4049509 15.887371,5.4049509 15.837818,5.1568955 15.788264,4.90884 15.737208,4.6532677 Z"
       fill="#363636"
       id="path45"
       style="stroke-width:0.0716289" />
    <path
       d="m 19.266057,10.325059 c 0.07861,0.254643 0.08067,0.487236 0.07508,0.751683 -0.04955,0 -0.09911,0 -0.150164,0 0,0.0451 0,0.0902 0,0.13667 -0.103238,0.111044 -0.103238,0.111044 -0.225246,0.205004 -0.04955,0 -0.09911,0 -0.150163,0 -0.02478,0.112753 -0.04956,0.225505 -0.07508,0.341675 -0.04955,-0.02255 -0.09911,-0.0451 -0.150165,-0.06834 0.108361,-0.323763 0.253197,-0.614234 0.422336,-0.913979 0.03659,-0.06567 0.03659,-0.06567 0.07391,-0.132665 0.05956,-0.106812 0.119484,-0.213451 0.179493,-0.320053 z"
       fill="#1699cf"
       id="path55"
       style="stroke-width:0.0716289" />
    <path
       d="m 25.122444,15.928515 c -0.07433,0.03382 -0.07433,0.03382 -0.150163,0.06834 0,0.0902 0,0.180404 0,0.27334 -0.04955,0 -0.09911,0 -0.150165,0 0.02478,0.06765 0.04955,0.135303 0.07508,0.205005 -0.140778,0.04271 -0.140778,0.04271 -0.300328,0.06834 -0.04955,-0.0451 -0.09911,-0.0902 -0.150163,-0.13667 0,-0.0451 0,-0.0902 0,-0.13667 0.07433,-0.02255 0.148662,-0.0451 0.225246,-0.06834 -0.177158,-0.161238 -0.283732,-0.170251 -0.525574,-0.205005 0.383703,-0.232815 0.547639,-0.193405 0.976065,-0.06834 z"
       fill="#393939"
       id="path60"
       style="stroke-width:0.0716289" />
    <path
       d="m 25.662095,15.360482 c 0.136087,0.08969 0.136087,0.08969 0.28625,0.226359 -0.06039,0.0085 -0.120788,0.01691 -0.183013,0.02563 -0.09524,0.02114 -0.09524,0.02114 -0.192397,0.04271 -0.02478,0.0451 -0.04955,0.0902 -0.07508,0.13667 0.07433,0 0.148662,0 0.225246,0 -0.09351,0.255325 -0.19777,0.286157 -0.450492,0.410008 0.02478,-0.180403 0.04956,-0.360807 0.07508,-0.546678 -0.02478,0.02255 -0.04956,0.0451 -0.07508,0.06834 -0.04955,-0.06765 -0.09911,-0.135302 -0.150164,-0.205004 0.331142,-0.217666 0.331142,-0.217666 0.539651,-0.158024 z"
       fill="#3a3a3a"
       id="path64"
       style="stroke-width:0.0716289" />
    <path
       d="m 27.675228,13.536796 c 0,0.282905 -0.162802,0.441175 -0.337868,0.661994 -0.04835,0.06217 -0.04835,0.06217 -0.09766,0.125592 -0.0796,0.102227 -0.15984,0.20404 -0.240203,0.305771 -0.09911,-0.06766 -0.198217,-0.135302 -0.300328,-0.205004 0.03271,-0.02405 0.06543,-0.0481 0.09913,-0.07287 0.32901,-0.24824 0.608562,-0.513071 0.876932,-0.81548 z"
       fill="#3c3c3c"
       id="path69"
       style="stroke-width:0.0716289" />
    <path
       d="m 17.614255,12.853448 c 0.02478,0.0451 0.04955,0.0902 0.07508,0.13667 -0.110498,0.255289 -0.110498,0.255289 -0.300327,0.341674 -0.02323,0.05497 -0.04646,0.109934 -0.07039,0.166566 -0.07977,0.175108 -0.07977,0.175108 -0.305021,0.311778 -0.02478,0.06766 -0.04955,0.135303 -0.07508,0.205004 -0.09911,-0.02255 -0.198216,-0.0451 -0.300327,-0.06834 0.04907,-0.04968 0.04907,-0.04968 0.09913,-0.100367 0.311676,-0.319281 0.601253,-0.64742 0.876933,-0.992991 z"
       fill="#209eca"
       id="path73"
       style="stroke-width:0.0716289" />
    <path
       d="m 14.911307,14.766823 c 0.07433,0 0.148662,0 0.225245,0 0.04955,0.0451 0.09911,0.0902 0.150165,0.13667 -0.334491,0.405908 -0.334491,0.405908 -0.675738,0.820018 -0.02478,-0.0451 -0.04955,-0.0902 -0.07508,-0.13667 0.05494,-0.141588 0.117052,-0.280914 0.183013,-0.41855 0.03552,-0.07488 0.07104,-0.14975 0.107637,-0.226894 0.02797,-0.05761 0.05594,-0.115219 0.08476,-0.174574 z"
       fill="#404344"
       id="path75"
       style="stroke-width:0.0716289" />
    <path
       d="m 18.890647,16.065185 c 0.396432,0 0.792865,0 1.20131,0 0,0.02255 0,0.0451 0,0.06834 -0.07124,0.0085 -0.142467,0.01691 -0.21586,0.02563 -0.241138,0.02336 -0.241138,0.02336 -0.384794,0.179379 -0.162483,-0.0016 -0.162483,-0.0016 -0.347254,-0.02563 -0.06137,-0.0076 -0.122724,-0.01515 -0.185945,-0.02296 -0.04704,-0.0065 -0.09408,-0.01304 -0.142538,-0.01976 0.02478,-0.06765 0.04955,-0.135303 0.07508,-0.205005 z"
       fill="#232323"
       id="path79"
       style="stroke-width:0.0716289" />
    <path
       d="m 16.168929,16.671656 c 0.06001,0.01392 0.120014,0.02784 0.181838,0.04217 0.04529,0.01145 0.09059,0.0229 0.13726,0.0347 0,0.02255 0,0.0451 0,0.06834 -0.396433,0.0451 -0.792865,0.0902 -1.20131,0.13667 0.304785,-0.277397 0.457751,-0.384141 0.882212,-0.281881 z"
       fill="#474746"
       id="path90"
       style="stroke-width:0.0716289" />
    <path
       d="m 20.467367,16.475194 c 0.02478,0.06765 0.04955,0.135303 0.07508,0.205004 0.04955,0 0.09911,0 0.150163,0 0,0.0451 0,0.0902 0,0.13667 -0.272546,-0.02255 -0.545094,-0.0451 -0.8259,-0.06834 0.337869,-0.230631 0.337869,-0.230631 0.600655,-0.27334 z"
       fill="#393939"
       id="path95"
       style="stroke-width:0.0716289" />
    <path
       d="m 17.389009,9.7783802 c 0.04955,0 0.09911,0 0.150165,0 -0.02478,0.2255048 -0.04955,0.4510098 -0.07508,0.6833478 -0.07433,0.02255 -0.148662,0.0451 -0.225245,0.06833 -0.02478,-0.135303 -0.04955,-0.270606 -0.07508,-0.410009 0.07433,0.02255 0.148662,0.0451 0.225245,0.06833 0,-0.135303 0,-0.2706055 0,-0.4100078 z"
       fill="#343434"
       id="path99"
       style="stroke-width:0.0716289" />
    <path
       d="m 21.818841,17.841891 c 0.222994,0 0.445987,0 0.675737,0 0,0.0451 0,0.0902 0,0.13667 0.04955,0.02255 0.09911,0.0451 0.150164,0.06834 -0.24777,0 -0.495541,0 -0.750818,0 -0.02478,-0.06765 -0.04955,-0.135303 -0.07508,-0.205004 z"
       fill="#019ce3"
       id="path101"
       style="stroke-width:0.0716289" />
    <path
       d="m 26.173591,14.903493 c 0.09911,0.0902 0.198216,0.180404 0.300327,0.273339 -0.07433,0.06766 -0.148662,0.135303 -0.225245,0.205005 -0.02478,-0.06765 -0.04956,-0.135303 -0.07508,-0.205005 -0.09911,0.02255 -0.198217,0.0451 -0.300328,0.06834 0.131393,-0.264798 0.131393,-0.264798 0.300328,-0.341674 z"
       fill="#373737"
       id="path103"
       style="stroke-width:0.0716289" />
    <path
       d="m 16.412945,4.9949419 c 0.09911,0 0.198216,0 0.300327,0 -0.04306,0.1959329 -0.06468,0.2638716 -0.225245,0.410009 -0.187705,-0.09396 -0.187705,-0.09396 -0.37541,-0.2050045 0,-0.045101 0,-0.090202 0,-0.1366697 0.09911,0.022551 0.198216,0.045101 0.300328,0.068334 0,-0.045101 0,-0.090202 0,-0.1366688 z"
       fill="#252525"
       id="path110"
       style="stroke-width:0.0716289" />
    <path
       d="m 15.737208,13.058452 c 0.04955,0.0451 0.09911,0.0902 0.150163,0.13667 -0.02478,0.06765 -0.04955,0.135303 -0.07508,0.205004 -0.192397,0.08115 -0.192397,0.08115 -0.375409,0.13667 0.04519,-0.138067 0.09558,-0.274782 0.150164,-0.410009 0.04955,-0.02255 0.09911,-0.0451 0.150164,-0.06834 z"
       fill="#353535"
       id="path117"
       style="stroke-width:0.0716289" />
    <path
       d="m 21.668677,13.263457 c -0.154093,0.153603 -0.225747,0.205156 -0.450491,0.273339 -0.07433,-0.06766 -0.148662,-0.135303 -0.225246,-0.205005 0.422336,-0.145211 0.422336,-0.145211 0.675737,-0.06834 z"
       fill="#0b9ad8"
       id="path122"
       style="stroke-width:0.0716289" />
    <path
       d="m 17.914583,12.511773 c 0.07433,0.02255 0.148661,0.0451 0.225245,0.06834 -0.04955,0.0902 -0.09911,0.180405 -0.150163,0.27334 -0.09911,0 -0.198217,0 -0.300328,0 0.140779,-0.264798 0.140779,-0.264798 0.225246,-0.341674 z"
       fill="#159dd5"
       id="path125"
       style="stroke-width:0.0716289" />
    <path
       d="m 25.197526,15.586841 c -0.02478,0.112752 -0.04955,0.225505 -0.07508,0.341674 -0.222993,-0.03382 -0.222993,-0.03382 -0.450491,-0.06834 0.272172,-0.27334 0.272172,-0.27334 0.525573,-0.27334 z"
       fill="#313332"
       id="path129"
       style="stroke-width:0.0716289" />
    <path
       d="m 18.515238,5.9516296 c 0.222993,0.1353029 0.222993,0.1353029 0.450491,0.2733394 -0.07433,0.067652 -0.148662,0.1353029 -0.225245,0.2050044 -0.02478,-0.045101 -0.04955,-0.090202 -0.07508,-0.1366697 -0.04955,-0.022551 -0.09911,-0.045101 -0.150164,-0.068334 0,-0.045101 0,-0.090202 0,-0.1366697 -0.04955,-0.022551 -0.09911,-0.045101 -0.150164,-0.068335 0.04955,-0.022551 0.09911,-0.045101 0.150164,-0.068334 z"
       fill="#3f3f3f"
       id="path135"
       style="stroke-width:0.0716289" />
    <path
       d="m 17.313928,16.201854 c 0.02478,0.06765 0.04955,0.135304 0.07508,0.205005 -0.17344,0.02255 -0.346879,0.0451 -0.525573,0.06834 -0.02478,-0.06765 -0.04955,-0.135304 -0.07508,-0.205005 0.187002,-0.04695 0.328772,-0.06834 0.525573,-0.06834 z"
       fill="#3d3d3d"
       id="path136"
       style="stroke-width:0.0716289" />
    <path
       d="m 22.945069,11.418416 c 0.02478,0 0.04956,0 0.07508,0 0,0.202955 0,0.405909 0,0.615014 -0.09911,-0.06765 -0.198216,-0.135303 -0.300327,-0.205005 0.07433,-0.135303 0.148662,-0.270606 0.225244,-0.410009 z"
       fill="#1ea0d4"
       id="path137"
       style="stroke-width:0.0716289" />
    <path
       d="m 16.187699,10.598398 c 0.02478,0.0902 0.04955,0.180404 0.07508,0.27334 0.07433,0.02255 0.148662,0.0451 0.225246,0.06834 -0.04956,0 -0.09911,0 -0.150164,0 -0.0093,0.04369 -0.01858,0.08739 -0.02816,0.132399 -0.01549,0.04651 -0.03097,0.09302 -0.04692,0.140941 -0.07433,0.03382 -0.07433,0.03382 -0.150164,0.06834 0.02478,-0.225505 0.04955,-0.45101 0.07508,-0.683348 z"
       fill="#4b4b4b"
       id="path139"
       style="stroke-width:0.0716289" />
    <path
       d="m 21.143104,15.381837 c -0.02478,0.0451 -0.04956,0.0902 -0.07508,0.136669 -0.198217,-0.0451 -0.396433,-0.0902 -0.600655,-0.136669 0,-0.02255 0,-0.0451 0,-0.06834 0.283733,-0.07174 0.424152,-0.07583 0.675738,0.06834 z"
       fill="#089cd3"
       id="path140"
       style="stroke-width:0.0716289" />
    <path
       d="m 24.146379,15.99685 c 0.506803,0.05125 0.506803,0.05125 0.675737,0.205004 -0.04955,0 -0.09911,0 -0.150163,0 -0.02478,0.0451 -0.04955,0.0902 -0.07508,0.13667 -0.04955,-0.02255 -0.09911,-0.0451 -0.150164,-0.06834 0,-0.06765 0,-0.135303 0,-0.205005 -0.09911,-0.02255 -0.198216,-0.0451 -0.300327,-0.06834 z"
       fill="#262626"
       id="path146"
       style="stroke-width:0.0716289" />
    <path
       d="m 15.737208,13.7418 c 0.04955,0 0.09911,0 0.150163,0 0.05162,0.123857 0.05162,0.123857 0.07508,0.27334 -0.107929,0.119586 -0.107929,0.119586 -0.225245,0.205004 -0.07014,-0.205709 -0.07842,-0.264217 -1e-6,-0.478344 z"
       fill="#353532"
       id="path148"
       style="stroke-width:0.0716289" />
    <path
       d="m 16.863436,5.1316116 c 0.356639,0.051251 0.356639,0.051251 0.525573,0.2050045 -0.148662,0.022551 -0.297324,0.045101 -0.450491,0.068335 -0.02478,-0.090202 -0.04955,-0.180404 -0.07508,-0.2733394 z"
       fill="#353535"
       id="path153"
       style="stroke-width:0.0716289" />
    <ellipse
       style="fill:#2b2a33;fill-opacity:0.98000002;stroke:none;stroke-width:0.116054;stroke-opacity:1"
       id="path6"
       cx="20.936094"
       cy="11.126189"
       rx="9.65028"
       ry="9.6479216" />
  </g>
</svg>
