<?xml version="1.0" encoding="UTF-8" standalone="no"?>
<!-- Created with Inkscape (http://www.inkscape.org/) -->

<svg
   width="8.9958334mm"
   height="8.9958334mm"
   viewBox="0 0 8.9958331 8.9958333"
   version="1.1"
   id="svg1"
   inkscape:export-filename="Final.png"
   inkscape:export-xdpi="96"
   inkscape:export-ydpi="96"
   inkscape:version="1.3.2 (091e20e, 2023-11-25, custom)"
   sodipodi:docname="login-logo.svg"
   xmlns:inkscape="http://www.inkscape.org/namespaces/inkscape"
   xmlns:sodipodi="http://sodipodi.sourceforge.net/DTD/sodipodi-0.dtd"
   xmlns="http://www.w3.org/2000/svg"
   xmlns:svg="http://www.w3.org/2000/svg">
  <sodipodi:namedview
     id="namedview1"
     pagecolor="#ffffff"
     bordercolor="#000000"
     borderopacity="0.25"
     inkscape:showpageshadow="2"
     inkscape:pageopacity="0.0"
     inkscape:pagecheckerboard="true"
     inkscape:deskcolor="#d1d1d1"
     inkscape:document-units="mm"
     inkscape:zoom="24.147059"
     inkscape:cx="17.041413"
     inkscape:cy="17"
     inkscape:window-width="1920"
     inkscape:window-height="1017"
     inkscape:window-x="1352"
     inkscape:window-y="-8"
     inkscape:window-maximized="1"
     inkscape:current-layer="layer1" />
  <defs
     id="defs1" />
  <g
     inkscape:label="Layer 1"
     inkscape:groupmode="layer"
     id="layer1"
     transform="translate(-11.285815,-1.4782675)">
    <circle
       style="fill:none;fill-opacity:1;stroke:#fafafa;stroke-width:0.12332;stroke-dasharray:none;stroke-opacity:1"
       id="path1"
       cx="15.783731"
       cy="5.9761844"
       r="4.4362569" />
    <g
       id="g1"
       transform="matrix(1.0517339,0,0,1.0517339,8.0245728,6.4796669)">
      <path
         d="m 7.1754404,-3.4307426 c 0.109903,0.036778 0.198195,0.072637 0.286932,0.1423306 0.01975,0.015391 0.0395,0.030783 0.05984,0.04664 0.02054,0.016469 0.04107,0.032938 0.06223,0.049906 0.02158,0.017167 0.04315,0.034334 0.06538,0.052021 0.559247,0.4487757 1.187001,1.0673845 1.245961,1.7835345 0.03135,0.57074799 -0.08857,1.07391929 -0.499618,1.52414509 -0.400717,0.39043378 -0.967496,0.58510488 -1.535677,0.66935208 -0.0583,0.00168 -0.116714,0.00247 -0.174975,0 0.09005,-0.054638 0.15826,-0.084093 0.258088,-0.1174473 0.586662,-0.2109312 1.092289,-0.50566728 1.352364,-1.04035788 0.125684,-0.3089883 0.134059,-0.77495359 0.0077,-1.08464919 -0.24374,-0.494932 -0.24374,-0.494932 -0.673243,-0.8470168 -0.0051,0.027467 -0.01029,0.054934 -0.01559,0.083234 -0.14023,0.6946408 -0.415156,1.34092079 -0.788049,1.95838399 -0.0318,0.053077 -0.0626,0.1066416 -0.09325,0.1602774 -0.106202,0.1848888 -0.228146,0.35098248 -0.365533,0.51793988 -0.05852,0.072063 -0.11269,0.1449527 -0.165816,0.2203387 -0.150088,0.2085149 -0.325626,0.40067383 -0.496492,0.59520093 0.02057,-0.00228 0.04114,-0.00461 0.06233,-0.00696 0.486647,-0.045817 1.004031,-0.071899 1.484006,0.022894 0.741084,0.1436864 1.405602,0.01828 2.0452913,-0.34786433 l 0.08284,-0.050264 c 0.02373,-0.013959 0.04746,-0.027919 0.0719,-0.042302 0.04651,-0.0277 0.09241,-0.056245 0.138066,-0.0851 C 9.5558585,0.90909825 9.5015146,1.0382479 9.4151447,1.1556965 L 8.8139515,1.4782677 8.1453216,1.6324606 C 6.0432698,1.5016538 6.3242699,1.5765273 5.7755117,1.6789238 L 4.9007904,1.8563752 c -0.06052,0.00993 -0.121027,0.019893 -0.181536,0.029862 -0.0337,0.00554 -0.0674,0.011084 -0.102115,0.016793 -0.09228,0.015525 -0.184301,0.031909 -0.276269,0.048894 0.123166,-0.1327472 0.249153,-0.2622724 0.378384,-0.3901653 0.143845,-0.1434245 0.28041,-0.2906713 0.414334,-0.441797 0.07388,-0.082459 0.149169,-0.16350223 0.225255,-0.24426553 0.195807,-0.2080628 0.379566,-0.4221177 0.556801,-0.64368408 0.01994,-0.023854 0.03988,-0.047708 0.06042,-0.072285 0.342458,-0.4217327 0.600716,-0.9073632 0.814454,-1.39282509 0.01046,-0.023084 0.02092,-0.046169 0.03169,-0.069952 0.318429,-0.7074758 0.375913,-1.3708938 0.353249,-2.1276987 z"
         fill="#0498dc"
         id="path2"
         style="stroke-width:0.0333856"
         sodipodi:nodetypes="cccccccccccccccccccccccccccccccccccccccccc" />
      <path
         d="m 5.1761612,-3.5841036 c 0.167954,0.020981 0.30787,0.081598 0.459309,0.1473073 0.02642,0.011411 0.05283,0.022822 0.08005,0.03458 0.216297,0.095183 0.417544,0.2036519 0.615479,0.3277167 0.03013,0.017983 0.06027,0.035966 0.09131,0.054494 0.421938,0.2571778 0.421938,0.2571778 0.538595,0.4232596 0.01635,0.1604831 -0.01324,0.303547 -0.05249,0.4598377 -0.0097,0.039373 -0.01949,0.078747 -0.02953,0.1193138 -0.0076,0.029602 -0.01516,0.059204 -0.02297,0.089703 -0.06711,-0.07536 -0.1332,-0.1505666 -0.19493,-0.2296701 -0.165524,-0.2096974 -0.371065,-0.387945 -0.644946,-0.4710348 0.0085,0.024658 0.0085,0.024658 0.01713,0.049813 0.02325,0.1009869 0.02306,0.1965895 0.02374,0.2997931 1.47e-4,0.021609 2.93e-4,0.043218 4.59e-4,0.065482 3.42e-4,0.069993 3.42e-4,0.1399796 2.38e-4,0.2099731 -1e-5,0.023792 -2e-5,0.047583 -2.9e-5,0.072096 -9.79e-4,0.5131901 -0.04265,1.00096757 -0.181507,1.50050907 -0.01326,0.048652 -0.01326,0.048652 -0.02679,0.098288 -0.142444,0.4678965 -0.392789,0.9130307 -0.708101,1.3031216 -0.01979,0.024693 -0.03957,0.049391 -0.05996,0.074835 -0.142296,0.177472 -0.285699,0.3541733 -0.42997,0.5303188 -0.03499,-0.063701 -0.03499,-0.063701 -0.01493,-0.1258687 0.01687,-0.037404 0.01687,-0.037404 0.03407,-0.075559 0.01841,-0.041296 0.01841,-0.041296 0.03718,-0.08342 0.01317,-0.028846 0.02635,-0.057685 0.03992,-0.087402 0.01263,-0.028227 0.02526,-0.056453 0.03828,-0.085535 0.05237,-0.1166653 0.105085,-0.23244775 0.163628,-0.34668235 0.08637,-0.1828007 0.134185,-0.3790826 0.189602,-0.5710648 0.0062,-0.021123 0.01231,-0.042251 0.01864,-0.064014 0.357108,-1.22873225 0.343061,-2.31479945 0.03293,-3.55575225 -0.0144,-0.068887 -0.0144,-0.068887 -0.0144,-0.1644377 z"
         fill="#2d2d2d"
         id="path4"
         style="stroke-width:0.0333856" />
      <path
         d="m 10.414114,0.55222604 c 0,0.30541696 -0.4828293,0.70127706 -0.6999101,0.92365626 -0.02116,0.021967 -0.042311,0.043934 -0.064111,0.066562 C 9.2390117,1.9438867 8.6647121,2.1652294 8.0694298,2.1888034 7.7409431,2.1957734 7.4315828,2.1519864 7.1092222,2.0969614 6.6985451,2.0269244 6.3162085,1.9969272 5.8996882,2.0173364 c -0.045701,0.0014 -0.091392,0.00289 -0.1384794,0.00433 -0.2663246,0.011424 -0.523479,0.044866 -0.7842816,0.093474 -0.2189938,0.03938 -0.2189938,0.03938 -0.3370798,-0.00228 0.2734087,-0.1308717 0.5367763,-0.2555695 0.8398936,-0.318502 0.040461,-0.00883 0.080931,-0.017656 0.1226211,-0.026749 0.4828483,-0.098096 0.9541625,-0.090945 1.442456,-0.028063 0.2714057,0.031014 0.5437314,0.030291 0.8168091,0.030925 0.02376,1.594e-4 0.047521,3.188e-4 0.071991,5.127e-4 0.2549544,0.0014 0.4872064,-6.06e-4 0.7307166,-0.072145 0.036181,-0.010221 0.072361,-0.020443 0.1096339,-0.030981 0.4656517,-0.1543603 0.827245,-0.3933385 1.1852022,-0.70157586 0.043509,-0.033433 0.08723,-0.066639 0.1312321,-0.099532 0.1222,-0.094045 0.22335,-0.2014336 0.323709,-0.31452106 z"
         fill="#2f2f2f"
         id="path5"
         style="stroke-width:0.0333859" />
      <path
         d="m 7.2715019,2.3251051 c 0.597185,0.1407977 1.188651,0.076939 1.778181,-0.057604 0.04666,-0.010618 0.09332,-0.021235 0.13998,-0.031853 -0.21052,0.2174946 -0.600368,0.34345 -0.909869,0.3822025 -0.514623,0.029462 -0.97238,-0.012477 -1.461449,-0.1623617 -0.293473,-0.074427 -0.598138,-0.06997 -0.900711,-0.078506 -0.04547,-0.0014 -0.09094,-0.00275 -0.137792,-0.00415 -0.111544,-0.00336 -0.223089,-0.00661 -0.334639,-0.00977 0.560465,-0.2695056 1.243132,-0.1789261 1.826299,-0.037949 z"
         fill="#0799d9"
         id="path9"
         style="stroke-width:0.0333856" />
    </g>
  </g>
</svg>
