<?xml version="1.0" encoding="utf-8"?>
<!-- Generator: Adobe Illustrator 27.5.0, SVG Export Plug-In . SVG Version: 6.00 Build 0)  -->
<svg version="1.1" id="Layer_1" xmlns="http://www.w3.org/2000/svg" xmlns:xlink="http://www.w3.org/1999/xlink" x="0px" y="0px"
	 viewBox="0 0 450 450" style="enable-background:new 0 0 450 450;" xml:space="preserve">
<g>
	<path style="fill:#BFBFBF;" d="M77.247,339.361c0,5.936,77.76,10.747,141.132,10.747s156.192-4.812,156.192-10.747
		s-92.82-10.747-156.192-10.747S77.247,333.425,77.247,339.361z"/>
	<g>
		<path style="fill:#E6E6E6;" d="M279.287,332.36c0,0,6.641,2.367,6.89,2.693c0.249,0.317,0,1.265,0,1.265h-10.815v-3.958H279.287z"
			/>
		<path style="fill:#E6E6E6;" d="M271.413,332.36c0,0-6.641,2.367-6.89,2.693c-0.249,0.317,0,1.265,0,1.265h10.815v-3.958H271.413z"
			/>
		<polygon style="fill:#D99C8B;" points="267.508,285.503 271.428,332.36 275.362,332.36 279.268,332.36 283.375,285.861 
			284.467,273.337 266.385,273.337 		"/>
		<polygon style="fill:#798F91;" points="263.088,284.101 261.236,311.328 290.832,311.328 288.205,283.631 284.467,273.337 
			266.385,273.337 		"/>
		<g>
			<g>
				<rect x="272.812" y="237.509" style="fill:#BD897A;" width="5.21" height="7.477"/>
			</g>
		</g>
		<g>
			<path style="fill:#E8A795;" d="M262.407,283.143c0,0,0.432-0.163,0.547-0.748c0.115-0.595-1.044-1.591-1.044-1.591l1.149-14.857
				l2.299-6.04l-5.273,0.238l-0.757,5.992l-0.146,14.638c-0.081,1.428-1.155,2.894-0.982,3.699c0.638,0.863,1.697,2.55,2.573,2.55
				c0.916-0.402,2.123-1.112,2.598-2.367C263.179,283.909,262.407,283.143,262.407,283.143z"/>
			<polygon style="fill:#BD897A;" points="264.35,262.556 265.358,259.907 260.085,260.145 259.965,261.096 			"/>
			<path style="fill:#81999C;" d="M265.599,243.673c-2.401,0.182-5.87,16.869-5.87,16.869l5.28,1.179l3.02-9.585
				C268.029,252.136,267.161,243.634,265.599,243.673z"/>
		</g>
		<g>
			<path style="fill:#E8A795;" d="M288.267,283.143c0,0-0.431-0.163-0.547-0.748c-0.115-0.595,1.045-1.591,1.045-1.591
				s0.043,0,0.12,0l-1.476-15.307l-1.475-4.757l4.52-0.832l0.992,5.352l0.047,15.516c0.082,1.428,1.155,2.894,0.983,3.699
				c-0.637,0.863-1.696,2.55-2.573,2.55c-0.916-0.402-2.123-1.112-2.597-2.367C287.496,283.909,288.267,283.143,288.267,283.143z"/>
			<polygon style="fill:#BD897A;" points="286.238,261.72 285.934,260.74 290.453,259.907 290.674,261.096 			"/>
			<path style="fill:#81999C;" d="M285.075,243.673c2.401,0.182,5.734,16.314,5.734,16.314l-5.205,1.11l-2.96-8.961
				C282.645,252.136,283.513,243.634,285.075,243.673z"/>
		</g>
		<g>
			<path style="fill:#E8A795;" d="M269.821,234.514c-0.861,0.182-1.718-0.458-1.922-1.423c-0.2-0.965,0.337-1.889,1.198-2.072
				C269.958,230.844,270.681,234.338,269.821,234.514z"/>
		</g>
		<g>
			<path style="fill:#E8A795;" d="M280.898,234.514c0.86,0.182,1.722-0.458,1.921-1.423c0.2-0.965-0.337-1.889-1.198-2.072
				C280.76,230.844,280.036,234.338,280.898,234.514z"/>
		</g>
		<g>
			<g>
				<path style="fill:#E8A795;" d="M275.402,240.903c8.503-3.528,5.991-12.238,5.991-12.238s-0.291-4.01-5.836-4.01
					c-4.834,0-6.023,4.11-6.023,4.11S267.241,237.708,275.402,240.903z"/>
			</g>
		</g>
		<path style="fill:#CCCCCC;" d="M268.76,231.136c0.582-0.125,1.206,0.981,1.206,0.981l0.241-4.242c0,0,3.166,4.151,9.48,3.144
			c-1.173-2.729,0.824-3.153,0.824-3.153s0.507,4.642,0.487,4.459c0.307-1.198,1.156-1.073,1.156-1.073s1.818-8.519-6.705-8.519
			C266.929,222.733,268.747,230.894,268.76,231.136z"/>
		<path style="fill:#C26767;" d="M275.361,238.473c0.977,0,1.706-0.649,1.706-0.807c0-0.158-0.974-0.641-1.206-0.641
			c-0.233,0-0.404,0.257-0.499,0.257c-0.1,0-0.271-0.257-0.504-0.257c-0.233,0-1.206,0.482-1.206,0.641
			C273.651,237.824,274.379,238.473,275.361,238.473z"/>
		<path style="fill:#99B5B8;" d="M266.313,271.247l-1.898,5.751h22.146l-2.152-6.47c0,0-1.174-7.572-1.021-15.316
			c0.81-0.987,1.285-2.138,1.285-3.374c0-0.978-0.297-1.907-0.825-2.741c0.288-1.993,0.719-3.853,1.356-5.425
			c-0.441-0.307-6.192-1.84-6.393-1.879h-0.005c-0.187-0.029-0.354-0.144-0.484,0l-2.578,3.019c-0.091,0.105-0.216,0.153-0.34,0.173
			c-0.13-0.02-0.254-0.068-0.346-0.173l-2.578-3.019c-0.125-0.144-0.297-0.029-0.484,0h-0.005c-0.201,0.038-5.952,1.571-6.393,1.879
			c0.537,1.764,0.93,3.623,1.203,5.521c-0.484,0.815-0.758,1.706-0.758,2.645c0,1.237,0.475,2.387,1.285,3.374
			C267.64,263.685,266.313,271.247,266.313,271.247z"/>
		<g>
			<circle style="fill:#576573;" cx="275.488" cy="246.415" r="0.581"/>
			<path style="fill:#576573;" d="M278.142,246.021c0,0.321-0.26,0.581-0.581,0.581s-0.581-0.26-0.581-0.581
				c0-0.321,0.26-0.58,0.581-0.58S278.142,245.701,278.142,246.021z"/>
			<path style="fill:#576573;" d="M279.6,244.532c0,0.321-0.26,0.58-0.58,0.58c-0.321,0-0.581-0.26-0.581-0.58
				s0.26-0.581,0.581-0.581C279.34,243.952,279.6,244.212,279.6,244.532z"/>
			<path style="fill:#576573;" d="M280.253,242.746c0,0.32-0.26,0.58-0.581,0.58c-0.321,0-0.581-0.26-0.581-0.58
				c0-0.321,0.26-0.581,0.581-0.581C279.993,242.165,280.253,242.425,280.253,242.746z"/>
			<path style="fill:#576573;" d="M272.835,246.021c0,0.321,0.26,0.581,0.581,0.581c0.321,0,0.581-0.26,0.581-0.581
				c0-0.321-0.26-0.58-0.581-0.58C273.094,245.441,272.835,245.701,272.835,246.021z"/>
			<circle style="fill:#576573;" cx="272.006" cy="244.532" r="0.581"/>
			<path style="fill:#576573;" d="M270.724,242.746c0,0.32,0.26,0.58,0.581,0.58c0.32,0,0.58-0.26,0.58-0.58
				c0-0.321-0.26-0.581-0.58-0.581C270.984,242.165,270.724,242.425,270.724,242.746z"/>
			<path style="fill:#576573;" d="M275.52,246.539c-4.047,0-4.536-4.442-4.54-4.487c-0.007-0.068,0.043-0.129,0.112-0.136
				c0.064-0.008,0.129,0.044,0.136,0.112c0.017,0.174,0.472,4.263,4.292,4.263c3.821,0,4.164-4.217,4.168-4.26
				c0.004-0.068,0.062-0.129,0.133-0.115c0.068,0.005,0.12,0.064,0.115,0.133C279.932,242.094,279.569,246.539,275.52,246.539z"/>
		</g>
	</g>
	<g>
		<path style="fill:#2B2B2B;" d="M189.068,331.556c0,0,7.196,3.198,7.534,3.627c0.338,0.428,0,1.723,0,1.723h-15.631v-5.351H189.068
			z"/>
		<path style="fill:#2B2B2B;" d="M172.869,331.556c0,0-7.196,3.198-7.53,3.627c-0.338,0.428,0,1.723,0,1.723h15.631v-5.351H172.869z
			"/>
		<polygon style="fill:#665046;" points="168.952,279.826 172.608,331.556 180.971,331.556 189.068,331.556 192.99,279.826 
			190.752,268.164 171.337,268.164 		"/>
		<rect x="178.217" y="231.827" style="fill:#B38072;" width="5.709" height="9.996"/>
		<g>
			<path style="fill:#D99C8B;" d="M167.815,282.643c0,0,0.509-0.2,0.647-0.895c0.133-0.694-1.228-1.856-1.228-1.856
				s-0.056-0.01-0.142-0.01h0.185l0.314-15.232v-3.141l1.105-7.255l-4.831-1.143l-1.199,8.939l1.356,17.793
				c-0.095,1.685-1.361,3.418-1.161,4.36c0.751,1.009,1.999,3.008,3.037,3.008c1.071-0.486,2.499-1.314,3.056-2.789
				C168.728,283.538,167.815,282.643,167.815,282.643z"/>
			<polygon style="fill:#C99182;" points="168.695,254.255 167.786,260.215 163.059,259.129 163.864,253.113 			"/>
		</g>
		<g>
			<path style="fill:#D99C8B;" d="M194.418,283.243c0,0-0.51-0.2-0.642-0.886c-0.139-0.694,1.228-1.866,1.228-1.866
				s0.052,0,0.142-0.009l-0.185,0.009l-0.315-15.232v-3.141l-1.108-7.263l4.831-1.134l1.199,8.939l-1.356,17.792
				c0.099,1.686,1.366,3.408,1.161,4.36c-0.753,1.009-1.999,2.999-3.032,2.999c-1.076-0.476-2.5-1.313-3.056-2.789
				C193.508,284.138,194.418,283.243,194.418,283.243z"/>
			<polygon style="fill:#C99182;" points="193.537,254.856 194.446,260.824 199.178,259.73 198.369,253.722 			"/>
		</g>
		<path style="fill:#8DD97A;" d="M198.126,250.409c-0.053-6.226-2.285-9.119-2.285-9.119c-0.219-2.143-11.757-4.047-11.885-3.913
			l-2.861,3.817l-2.861-3.817c-0.128-0.134-11.666,1.77-11.885,3.913c0,0-1.257,2.599-2.275,9.148l0,0l-0.005,0.02
			c0,0.018-0.005,0.048-0.01,0.066h0.005l-1.399,7.425l6.288,1.448l0.89-8.873h0.028l-0.074,26.553l22.593,0.94l-0.071-27.493h0.019
			l1.347,9.692l5.569-0.981L198.126,250.409z"/>
		<path style="fill:#583C31;" d="M195.841,241.29c-0.385-2.441-11.757-4.047-11.885-3.913c0,0,2.058,4.644-2.861,4.644
			c-4.919,0-2.861-4.644-2.861-4.644c-0.128-0.134-11.613,1.446-11.885,3.913l3.494,9.234h0.028l-0.499,27.252l23.296,0.441
			l-0.349-27.693h0.019L195.841,241.29z"/>
		<path style="fill:#C2C2C2;" d="M173.95,224.798c-1.081,2.047,1.342,9.178,3.022,9.178c1.686,0,6.416,0,8.082,0
			c1.671,0,4.575-7.626,3.089-9.13c-1.856-1.266-6.497-2.846-6.497-2.846S175.345,223.589,173.95,224.798z"/>
		<g>
			<path style="fill:#D99C8B;" d="M174.826,228.93c-0.956,0.2-1.914-0.515-2.137-1.58c-0.219-1.076,0.376-2.105,1.333-2.304
				C174.979,224.846,175.788,228.73,174.826,228.93z"/>
		</g>
		<g>
			<path style="fill:#D99C8B;" d="M187.145,228.93c0.956,0.2,1.919-0.515,2.137-1.58c0.224-1.076-0.37-2.105-1.328-2.304
				C186.997,224.846,186.188,228.73,187.145,228.93z"/>
		</g>
		<path style="fill:#D99C8B;" d="M181.037,236.032c7.464,0,6.659-13.604,6.659-13.604s-0.324-4.465-6.492-4.465
			c-5.373,0-6.697,4.569-6.697,4.569S173.683,236.032,181.037,236.032z"/>
		<path style="fill:#C2C2C2;" d="M173.645,225.169c0.652-0.142,1.347,1.095,1.347,1.095s0.025-4.272,0.267-4.721
			c1.907-4.15,4.497,2.854,8.934-1.504c2.109-0.838,2.523,1.494,2.523,1.494s0.561,5.16,0.542,4.96
			c0.338-1.324,1.281-1.19,1.281-1.19s2.023-9.472-7.45-9.472C171.613,215.83,173.632,224.903,173.645,225.169z"/>
		<g>
			<path style="fill:#BFBFBF;" d="M181.109,231.178c-0.386,0.599-3.153,0.642-3.153,0.642l0.116-0.383
				c0.23-0.758,0.923-1.28,1.714-1.292l1.307-0.02L181.109,231.178z"/>
			<path style="fill:#BFBFBF;" d="M181.109,231.178c0.404,0.587,3.172,0.544,3.172,0.544l-0.128-0.38
				c-0.253-0.75-0.962-1.251-1.753-1.239l-1.307,0.02L181.109,231.178z"/>
		</g>
		<g>
			<g>
				<path style="fill:#453535;" d="M180.488,224.447c-0.308-0.454-4.995-0.025-5.255,0.552c-0.26,0.577,0.111,1.628,0.111,1.628
					l0.016,0c-0.036-0.476,0.001-0.88,0.07-1.054c0.283-0.706,4.315-1.024,4.903-0.593c0.214,0.157,0.276,0.831,0.098,1.595h0.001
					C180.431,226.576,181.124,225.381,180.488,224.447z"/>
				<path style="opacity:0.5;fill:#FFFFFF;" d="M180.333,224.981c-0.588-0.431-4.62-0.113-4.903,0.593
					c-0.069,0.174-0.106,0.578-0.07,1.054c0.072,0.956,0.439,2.205,1.453,2.494c2.262,0.394,3.307-1.212,3.618-2.546
					C180.609,225.812,180.547,225.138,180.333,224.981z"/>
			</g>
			<path style="fill:#E8E8E8;" d="M180.745,226.92c-0.062,0.251-0.218,0.428-0.35,0.396c-0.132-0.032-0.188-0.262-0.126-0.513
				c0.062-0.251,0.218-0.428,0.35-0.396C180.751,226.439,180.807,226.669,180.745,226.92z"/>
			<polygon style="fill:#453535;" points="175.24,226.047 174.728,226.03 174.692,225.429 175.192,225.252 			"/>
			<g>
				<path style="fill:#453535;" d="M186.97,225.032c-0.257-0.579-4.941-1.033-5.252-0.581c-0.64,0.931,0.045,2.129,0.045,2.129
					h0.001c-0.174-0.765-0.108-1.439,0.106-1.594c0.59-0.428,4.621-0.087,4.9,0.62c0.068,0.174,0.103,0.578,0.065,1.054l0.016,0
					C186.851,226.659,187.227,225.611,186.97,225.032z"/>
				<path style="opacity:0.5;fill:#FFFFFF;" d="M186.77,225.605c-0.279-0.707-4.309-1.048-4.9-0.62
					c-0.215,0.156-0.28,0.83-0.106,1.594c0.304,1.335,1.34,2.947,3.604,2.565c1.015-0.283,1.39-1.531,1.466-2.486
					C186.873,226.183,186.839,225.779,186.77,225.605z"/>
			</g>
			<path style="fill:#E8E8E8;" d="M181.434,226.916c0.06,0.251,0.216,0.429,0.348,0.397c0.132-0.032,0.189-0.261,0.129-0.512
				c-0.06-0.251-0.216-0.429-0.348-0.397C181.432,226.435,181.374,226.665,181.434,226.916z"/>
			<polygon style="fill:#453535;" points="186.957,226.079 187.47,226.065 187.509,225.464 187.01,225.284 			"/>
			
				<rect x="180.914" y="225.464" transform="matrix(0.0028 -1 1 0.0028 -45.3989 406.4551)" style="fill:#453535;" width="0.385" height="1.055"/>
			
				<rect x="180.779" y="224.788" transform="matrix(0.0027 -1 1 0.0027 -44.7036 405.804)" style="fill:#453535;" width="0.66" height="1.055"/>
		</g>
	</g>
	<g>
		<path style="fill:#2B2B2B;" d="M215.292,330.507c0,0,7.816,3.474,8.183,3.94c0.367,0.465,0,1.872,0,1.872h-16.978v-5.812H215.292z
			"/>
		<path style="fill:#2B2B2B;" d="M197.699,330.507c0,0-7.816,3.474-8.178,3.94c-0.367,0.465,0,1.872,0,1.872h16.978v-5.812H197.699z
			"/>
		<polygon style="fill:#333C4A;" points="193.444,274.321 197.415,330.507 206.498,330.507 215.292,330.507 219.552,274.321 
			217.122,261.655 196.034,261.655 		"/>
		<rect x="203.846" y="222.188" style="fill:#BD8779;" width="5.459" height="11.395"/>
		<g>
			<path style="fill:#FFB7A4;" d="M192.209,277.381c0,0,0.553-0.217,0.703-0.972c0.145-0.754-1.334-2.016-1.334-2.016
				s-0.061-0.011-0.155-0.011h0.201l0.341-16.544v-3.411l1.2-7.88l-5.247-1.241l-1.302,9.709l1.473,19.325
				c-0.103,1.831-1.478,3.712-1.261,4.736c0.816,1.096,2.172,3.267,3.298,3.267c1.163-0.527,2.715-1.427,3.319-3.029
				C193.201,278.353,192.209,277.381,192.209,277.381z"/>
			<polygon style="fill:#C99182;" points="193.165,246.548 192.178,253.021 187.044,251.842 187.917,245.307 			"/>
		</g>
		<g>
			<path style="fill:#FFB7A4;" d="M221.103,278.033c0,0-0.554-0.217-0.698-0.962c-0.15-0.754,1.334-2.026,1.334-2.026
				s0.056,0,0.155-0.01l-0.201,0.01l-0.342-16.544v-3.411l-1.204-7.889l5.247-1.231l1.302,9.709l-1.473,19.325
				c0.108,1.831,1.483,3.702,1.261,4.736c-0.817,1.096-2.171,3.257-3.293,3.257c-1.169-0.517-2.715-1.426-3.319-3.029
				C220.115,279.005,221.103,278.033,221.103,278.033z"/>
			<polygon style="fill:#C99182;" points="220.147,247.2 221.134,253.683 226.273,252.494 225.394,245.969 			"/>
		</g>
		<path style="fill:#77A7FB;" d="M225.131,242.371c-0.057-6.762-2.482-9.905-2.482-9.905c-0.238-2.327-12.77-4.395-12.909-4.25
			l-3.108,4.146l-3.107-4.146c-0.139-0.145-12.671,1.923-12.909,4.25c0,0-1.365,2.823-2.471,9.936l0,0l-0.005,0.021
			c0,0.02-0.005,0.052-0.011,0.072h0.005l-1.519,8.065l6.829,1.572l0.967-9.637h0.031l-0.387,28.828l25.446,1.033l-0.677-29.861
			h0.02l1.463,10.526l6.049-1.065L225.131,242.371z"/>
		<path style="fill:#665046;" d="M198.873,213.543c-1.174,2.223,1.458,9.969,3.282,9.969c1.831,0,6.969,0,8.778,0
			c1.815,0,4.969-8.283,3.355-9.917c-2.016-1.375-7.057-3.092-7.057-3.092S200.388,212.23,198.873,213.543z"/>
		<g>
			<path style="fill:#FFB7A4;" d="M199.824,218.031c-1.039,0.217-2.078-0.559-2.321-1.716c-0.238-1.169,0.409-2.286,1.447-2.503
				C199.99,213.595,200.869,217.814,199.824,218.031z"/>
		</g>
		<g>
			<path style="fill:#FFB7A4;" d="M213.203,218.031c1.039,0.217,2.084-0.559,2.321-1.716c0.243-1.169-0.402-2.286-1.442-2.503
				C213.044,213.595,212.165,217.814,213.203,218.031z"/>
		</g>
		<path style="fill:#FFB7A4;" d="M206.57,225.745c8.107,0,7.233-14.775,7.233-14.775s-0.352-4.849-7.051-4.849
			c-5.836,0-7.274,4.963-7.274,4.963S198.583,225.745,206.57,225.745z"/>
		<path style="fill:#665046;" d="M198.541,213.947c0.708-0.155,1.463,1.189,1.463,1.189l0.29-5.128c0,0,8.323,1.55,9.704-1.634
			c2.29-0.911,2.74,1.623,2.74,1.623s0.61,5.604,0.589,5.387c0.367-1.438,1.391-1.293,1.391-1.293s2.197-10.288-8.091-10.288
			C196.334,203.803,198.526,213.658,198.541,213.947z"/>
	</g>
	<g>
		<path style="fill:#E6E6E6;" d="M256.78,332.048c0,0,5.739,2.554,6.008,2.905c0.269,0.342,0,1.365,0,1.365h-12.464v-4.27H256.78z"
			/>
		<path style="fill:#E6E6E6;" d="M243.861,332.048c0,0-5.739,2.554-6.008,2.905c-0.269,0.342,0,1.365,0,1.365h12.47v-4.27H243.861z"
			/>
		<polygon style="fill:#424242;" points="237.083,279.987 243.861,332.048 250.323,332.048 256.78,332.048 264.179,279.481 
			260.146,268.376 240.64,268.376 		"/>
		<path style="fill:#454545;" d="M242.46,220.834c-1.215,2.285,2.74,9.451,0,12.419c1.876,0,7.573,3.329,16.508-0.373
			c-3.211-2.223,1.013-10.319-0.647-11.994c-2.078-1.417-7.263-3.174-7.263-3.174S244.021,219.48,242.46,220.834z"/>
		<g>
			<g>
				<rect x="247.573" y="229.726" style="fill:#BD8779;" width="5.62" height="8.066"/>
			</g>
		</g>
		<g>
			<path style="fill:#FFB7A4;" d="M236.349,278.954c0,0,0.466-0.176,0.59-0.807c0.124-0.642-1.126-1.716-1.126-1.716
				s-0.047,0-0.13,0h0.172l-2.984-0.031c-0.088,1.54-1.246,3.122-1.06,3.991c0.688,0.931,1.831,2.751,2.776,2.751
				c0.988-0.434,2.29-1.2,2.803-2.554C237.181,279.781,236.349,278.954,236.349,278.954z"/>
			<path style="fill:#CF6C6C;" d="M239.792,236.375c-2.59,0.196-7.186,25.064-7.186,25.064l-0.816,16.419l5.309,0.073l-0.015-15.51
				l5.33-16.915C242.413,245.505,241.477,236.334,239.792,236.375z"/>
		</g>
		<g>
			<path style="fill:#FFB7A4;" d="M264.245,278.954c0,0-0.465-0.176-0.59-0.807c-0.124-0.642,1.128-1.716,1.128-1.716
				s0.047,0,0.129,0h-0.171l2.983-0.031c0.088,1.54,1.246,3.122,1.06,3.991c-0.687,0.931-1.83,2.751-2.776,2.751
				c-0.988-0.434-2.29-1.2-2.802-2.554C263.413,279.781,264.245,278.954,264.245,278.954z"/>
			<path style="fill:#CF6C6C;" d="M260.802,236.375c2.59,0.196,7.186,25.064,7.186,25.064l0.817,16.419l-5.31,0.073l0.016-15.51
				l-5.331-16.915C258.181,245.505,259.117,236.334,260.802,236.375z"/>
		</g>
		<g>
			<path style="fill:#FFB7A4;" d="M243.437,225.446c-1.07,0.227-2.136-0.57-2.389-1.768c-0.249-1.2,0.418-2.347,1.489-2.575
				C243.608,220.886,244.507,225.228,243.437,225.446z"/>
		</g>
		<g>
			<path style="fill:#FFB7A4;" d="M257.205,225.446c1.069,0.227,2.14-0.57,2.388-1.768c0.249-1.2-0.418-2.347-1.489-2.575
				C257.033,220.886,256.134,225.228,257.205,225.446z"/>
		</g>
		<g>
			<g>
				<path style="fill:#FFB7A4;" d="M250.374,233.387c10.568-4.384,7.445-15.211,7.445-15.211s-0.362-4.984-7.254-4.984
					c-6.008,0-7.486,5.108-7.486,5.108S240.231,229.417,250.374,233.387z"/>
			</g>
		</g>
		<path style="fill:#454545;" d="M242.119,221.248c0.723-0.156,1.499,1.22,1.499,1.22l0.3-5.273c0,0,3.934,5.16,11.782,3.908
			c-1.458-3.391,1.024-3.919,1.024-3.919s0.63,5.769,0.605,5.542c0.382-1.489,1.437-1.334,1.437-1.334s2.259-10.588-8.334-10.588
			C239.844,210.804,242.103,220.947,242.119,221.248z"/>
		<path style="fill:#B55176;" d="M250.323,230.367c1.215,0,2.12-0.807,2.12-1.003c0-0.197-1.21-0.796-1.499-0.796
			c-0.29,0-0.502,0.32-0.621,0.32c-0.125,0-0.337-0.32-0.626-0.32c-0.29,0-1.499,0.599-1.499,0.796
			C248.198,229.561,249.103,230.367,250.323,230.367z"/>
		<path style="fill:#995050;" d="M240.563,266.122l-2.048,6.204h23.891l-2.322-6.98c0,0-1.266-8.168-1.101-16.522
			c0.874-1.065,1.386-2.306,1.386-3.64c0-1.055-0.321-2.057-0.889-2.957c0.31-2.15,0.775-4.157,1.463-5.852
			c-0.475-0.331-6.68-1.985-6.897-2.026h-0.005c-0.201-0.032-0.382-0.156-0.522,0l-2.781,3.257
			c-0.098,0.113-0.233,0.165-0.366,0.186c-0.14-0.021-0.274-0.073-0.373-0.186l-2.781-3.257c-0.135-0.156-0.321-0.032-0.522,0
			h-0.005c-0.217,0.041-6.421,1.695-6.897,2.026c0.579,1.903,1.004,3.908,1.298,5.956c-0.522,0.879-0.817,1.84-0.817,2.853
			c0,1.334,0.512,2.575,1.386,3.64C241.994,257.964,240.563,266.122,240.563,266.122z"/>
	</g>
	<g>
		<path style="fill:#77A7FB;" d="M237.545,334.996c0,0,5.905,2.335,6.183,2.648c0.278,0.312,0,1.258,0,1.258H230.9v-3.906H237.545z"
			/>
		<path style="fill:#77A7FB;" d="M224.252,334.996c0,0-5.905,2.335-6.179,2.648c-0.278,0.312,0,1.258,0,1.258H230.9v-3.906H224.252z
			"/>
		<polygon style="fill:#3A4C5E;" points="221.037,297.236 221.255,314.963 231.125,315.004 241.213,315.139 240.763,297.236 
			238.927,288.724 222.994,288.724 		"/>
		<rect x="228.896" y="262.201" style="fill:#BD8779;" width="4.125" height="6.719"/>
		<g>
			<path style="fill:#FFB7A4;" d="M220.104,299.293c0,0,0.418-0.146,0.531-0.653c0.11-0.507-1.008-1.355-1.008-1.355
				s-0.046-0.007-0.117-0.007h0.152l0.258-11.118v-2.293l0.906-5.295l-3.965-0.834l-0.984,6.525l1.113,12.987
				c-0.078,1.23-1.117,2.495-0.953,3.183c0.617,0.737,1.641,2.196,2.492,2.196c0.879-0.354,2.051-0.959,2.508-2.036
				C220.853,299.946,220.104,299.293,220.104,299.293z"/>
			<polygon style="fill:#C99182;" points="220.826,278.571 220.08,282.922 216.201,282.129 216.861,277.737 			"/>
		</g>
		<g>
			<path style="fill:#FFB7A4;" d="M241.935,299.731c0,0-0.418-0.146-0.527-0.647c-0.114-0.507,1.008-1.362,1.008-1.362
				s0.042,0,0.117-0.006l-0.152,0.006l-0.258-11.118v-2.293l-0.91-5.302l3.965-0.828l0.984,6.525l-1.113,12.987
				c0.082,1.23,1.121,2.488,0.953,3.183c-0.618,0.736-1.641,2.189-2.488,2.189c-0.883-0.347-2.051-0.958-2.508-2.036
				C241.189,300.384,241.935,299.731,241.935,299.731z"/>
			<polygon style="fill:#C99182;" points="241.213,279.01 241.958,283.366 245.841,282.567 245.177,278.182 			"/>
		</g>
		<path style="fill:#BC6683;" d="M244.978,275.764c-0.043-4.545-2.896-6.657-2.896-6.657c-0.18-1.564-8.628-2.954-8.732-2.856
			l-2.348,2.786l-2.348-2.786c-0.105-0.098-8.601,1.292-8.781,2.856c0,0-2.003,1.897-2.839,6.677l0,0l-0.004,0.014
			c0,0.013-0.004,0.035-0.008,0.048h0.004l-1.148,5.42l5.504,1.324l0.881-6.744l-0.765,19.374l19.226,0.694l-1.086-20.283
			l1.368,7.289l4.898-0.716L244.978,275.764z"/>
		<path style="fill:#663F30;" d="M223.651,254.149c-1.116,1.938,1.385,8.69,3.119,8.69c1.74,0,6.622,0,8.342,0
			c1.724,0,4.722-7.221,3.188-8.645c-1.916-1.199-6.706-2.695-6.706-2.695S225.09,253.005,223.651,254.149z"/>
		<g>
			<path style="fill:#FFB7A4;" d="M224.554,258.062c-0.987,0.189-1.975-0.487-2.206-1.496c-0.226-1.019,0.388-1.993,1.375-2.182
				C224.712,254.195,225.547,257.873,224.554,258.062z"/>
		</g>
		<g>
			<path style="fill:#FFB7A4;" d="M237.269,258.062c0.987,0.189,1.98-0.487,2.205-1.496c0.231-1.019-0.382-1.993-1.37-2.182
				C237.117,254.195,236.282,257.873,237.269,258.062z"/>
		</g>
		<path style="fill:#FFB7A4;" d="M230.965,264.786c7.704,0,6.873-12.88,6.873-12.88s-0.334-4.227-6.701-4.227
			c-5.546,0-6.912,4.326-6.912,4.326S223.375,264.786,230.965,264.786z"/>
		<path style="fill:#663F30;" d="M223.336,254.501c0.673-0.135,1.39,1.036,1.39,1.036l0.276-4.47c0,0,1.497,1.103,3.262,1.168
			c-0.282-0.986-0.282-1.878-0.282-1.878c0.637,0.696,2.614,1.367,3.865,1.643c-0.567-1.432,1.347-1.189,2.756-0.094
			c-0.61-1.048-0.887-1.197-0.282-1.549c1.068-0.352,1.127,0.352,1.127,0.352c0.798-0.751,1.379,0.349,1.379,0.349
			s0.579,4.885,0.559,4.696c0.349-1.253,1.322-1.127,1.322-1.127s2.088-8.969-7.689-8.969c-1.025,0-1.919,0.094-2.7,0.263
			l-0.466-1.024l-0.593,1.321l-2.013-1.145l0.277,2.048C222.188,249.587,223.325,254.315,223.336,254.501z"/>
		<rect x="232.437" y="275.06" style="fill:#E6E6E6;" width="5.461" height="1.339"/>
		<polygon style="fill:#8F4D63;" points="237.898,280.774 235.167,281.887 232.437,280.774 232.437,276.399 237.898,276.399 		"/>
		<polygon style="fill:#FFB7A4;" points="230.184,334.996 224.918,334.996 223.285,314.978 230.184,315.01 		"/>
		<polygon style="fill:#FFB7A4;" points="231.577,334.996 236.843,334.996 238.431,315.102 231.577,315.01 		"/>
	</g>
</g>
<g>
	<g>
		<path style="fill:#CC884C;" d="M251.178,342.82c-4.474,0-7.923-1.235-9.97-3.569c-1.284-1.464-1.998-3.131-2.147-5.33
			c0.005,0.075,0,0,0,0l-1.965,0.119c0.21,2.545,1.085,4.765,2.622,6.517c2.436,2.777,6.399,4.245,11.46,4.245
			c0.548,0,0.991-0.443,0.991-0.991C252.169,343.263,251.725,342.82,251.178,342.82z"/>
		<path style="fill:#8A5C34;" d="M239.054,333.692c-0.021-0.303-0.027-0.614-0.026-0.929c0.001-0.143-0.003-0.283,0.002-0.428
			c0.017-0.46,0.051-0.929,0.114-1.411c0.072-0.543-0.311-1.04-0.852-1.112c-0.556-0.073-1.04,0.311-1.112,0.853
			c-0.072,0.548-0.112,1.082-0.131,1.608c-0.006,0.17,0,0.333,0,0.5c-0.002,0.353,0.003,0.703,0.026,1.045
			c0.005,0.073,0,0.15,0.005,0.222l0.016-0.001l1.965-0.119C239.054,333.846,239.059,333.767,239.054,333.692z"/>
	</g>
	<path style="fill:#E69A57;" d="M262.226,345.843h-8.453c-6.446,0-10.846-7.029-8.433-13.472l4.227-11.285
		c3.063-8.177,13.803-8.177,16.866,0l4.227,11.285C273.072,338.815,268.672,345.843,262.226,345.843z"/>
	<ellipse style="fill:#BDBDBD;" cx="258.133" cy="327.101" rx="1.401" ry="0.834"/>
	<path style="fill:#FFFFFF;" d="M258.153,326.345c0,0,1.467,1.372,2.969,0.973c2.605-0.692,1.597-3.691,1.597-3.691l-4.566,0.88
		V326.345z"/>
	<path style="fill:#FFFFFF;" d="M258.153,326.345c0,0-1.467,1.372-2.969,0.973c-2.605-0.692-1.597-3.428-1.597-3.428l4.566,0.617
		V326.345z"/>
	<path style="fill:#946338;" d="M263.721,321.907c0,1.74-2.616,3.15-5.844,3.15c-3.227,0-5.844-1.41-5.844-3.15
		c0-1.74,2.616-3.15,5.844-3.15C261.104,318.757,263.721,320.167,263.721,321.907z"/>
	<path style="fill:#E6C6AA;" d="M265.931,340.134c0,2.248-1.001,4.27-2.595,5.672c-1.057,0.461-10.076,0.423-10.599,0.065
		c-1.637-1.404-2.669-3.454-2.669-5.737c0-4.234,3.551-7.667,7.932-7.667C262.38,332.467,265.931,335.9,265.931,340.134z"/>
	<path style="fill:#FFFFFF;" d="M261.964,321.907c0,0.86-0.445,1.557-0.995,1.557c-0.549,0-0.995-0.697-0.995-1.557
		s0.445-1.557,0.995-1.557C261.518,320.35,261.964,321.047,261.964,321.907z"/>
	<path style="fill:#2B2B2B;" d="M261.416,322.412c0,0.358-0.187,0.649-0.418,0.649s-0.418-0.29-0.418-0.649
		c0-0.358,0.187-0.649,0.418-0.649S261.416,322.053,261.416,322.412z"/>
	<path style="fill:#FFFFFF;" d="M256.301,321.907c0,0.86-0.445,1.557-0.995,1.557c-0.549,0-0.995-0.697-0.995-1.557
		s0.445-1.557,0.995-1.557C255.856,320.35,256.301,321.047,256.301,321.907z"/>
	<path style="fill:#2B2B2B;" d="M255.753,322.412c0,0.358-0.187,0.649-0.418,0.649c-0.231,0-0.418-0.29-0.418-0.649
		c0-0.358,0.187-0.649,0.418-0.649C255.566,321.763,255.753,322.053,255.753,322.412z"/>
	<path style="fill:#A66F3F;" d="M265.103,318.781c-1.38-1.474-4.375-2.959-4.375-2.959s4.923-4.405,5.46-4.151
		C266.53,311.772,265.635,318.487,265.103,318.781z"/>
	<path style="fill:#FFA6FC;" d="M264.385,317.513c-0.763-0.816-2.421-1.638-2.421-1.638s2.725-2.438,3.022-2.298
		C265.176,313.633,264.68,317.349,264.385,317.513z"/>
	<path style="fill:#CF8A4E;" d="M250.932,318.781c1.38-1.474,4.375-2.959,4.375-2.959s-4.923-4.405-5.46-4.151
		C249.504,311.772,250.399,318.487,250.932,318.781z"/>
	<path style="fill:#FFA6FC;" d="M251.649,317.513c0.764-0.816,2.421-1.638,2.421-1.638s-2.725-2.438-3.022-2.298
		C250.859,313.633,251.354,317.349,251.649,317.513z"/>
	<path style="fill:#593C22;" d="M257.991,326.488l-0.787-0.812c-0.139-0.143-0.037-0.383,0.162-0.383h1.574
		c0.199,0,0.301,0.24,0.162,0.383l-0.787,0.812C258.227,326.58,258.08,326.58,257.991,326.488z"/>
	<path style="fill:#FFFFFF;" d="M274.486,326.077c-5.299-2.121-12.165-0.976-12.233-0.964l-0.058-0.341
		C262.263,324.76,269.064,323.653,274.486,326.077L274.486,326.077z"/>
	<path style="fill:#FFFFFF;" d="M273.33,329.202c-4.41-3.414-11.665-3.348-11.731-3.35l-0.005-0.346
		C261.681,325.509,269.252,325.505,273.33,329.202L273.33,329.202z"/>
	<path style="fill:#FFFFFF;" d="M271.315,331.91c-4.087-4.857-10.951-5.294-11.02-5.297l0.019-0.346
		C260.384,326.271,268.199,327.135,271.315,331.91L271.315,331.91z"/>
	<path style="fill:#FFFFFF;" d="M241.583,326.077c5.3-2.121,12.165-0.976,12.233-0.964l0.058-0.341
		C253.806,324.76,247.005,323.653,241.583,326.077L241.583,326.077z"/>
	<path style="fill:#FFFFFF;" d="M242.739,329.202c4.41-3.414,11.665-3.348,11.731-3.35l0.005-0.346
		C254.388,325.509,246.817,325.505,242.739,329.202L242.739,329.202z"/>
	<path style="fill:#FFFFFF;" d="M244.754,331.91c4.087-4.857,10.951-5.294,11.02-5.297l-0.019-0.346
		C255.685,326.271,247.87,327.135,244.754,331.91L244.754,331.91z"/>
	<path style="fill:#FFFFFF;" d="M252.041,345.493c0,0.923-1.165,1.672-2.601,1.672c-1.436,0-2.601-0.749-2.601-1.672
		c0-0.924,1.165-1.672,2.601-1.672C250.876,343.82,252.041,344.569,252.041,345.493z"/>
	<path style="fill:#946338;" d="M268.994,345.493c0,0.923-1.164,1.672-2.601,1.672c-1.436,0-2.601-0.749-2.601-1.672
		c0-0.924,1.164-1.672,2.601-1.672C267.83,343.82,268.994,344.569,268.994,345.493z"/>
	<rect x="259.41" y="331.724" style="fill:#E69A57;" width="3.22" height="14.646"/>
	<rect x="253.395" y="331.724" style="fill:#E69A57;" width="3.22" height="14.646"/>
	<ellipse style="fill:#FFFFFF;" cx="261.031" cy="346.597" rx="2.601" ry="1.672"/>
	<ellipse style="fill:#FFFFFF;" cx="255.005" cy="346.587" rx="2.601" ry="1.672"/>
</g>
<g>
	<path style="fill:#FFB7A4;" d="M282.779,197.734c-7.965-5.716-12.051-18.57-17.32-20.532c-6.108-0.806-14.596-8.29-20.361-7.47
		c-3.743,0.102-21.651-6.088-17.242,2.083c0.963,1.507,17.016,5.058,17.016,5.058s14.75,6.624,17.735,13.51
		c0.387,0.892,0.377,1.974,0.15,3.111c-2.595-0.096-3.297,0.71-6.292-1.291c-2.184-1.459-4.678-3.105-4.678-3.105
		c-2.052-1.302-6.233-2.575-7.452-0.659c-1.797,2.825,2.625,6.008,4.677,7.31c0,0,0.833,0.528,4.127,2.619
		c2.928,1.858,3.637,4.389,6.814,6.224c6.167,4.321,21.158,9.011,23.29,8.721c6.347-0.863,19.078-5.093,19.078-5.093l-4.303-19.254
		C292.215,194.691,282.779,197.734,282.779,197.734z"/>
	<path style="fill:#FFB7A4;" d="M165.826,198.208c7.832-5.896,11.624-18.84,16.847-20.922c6.088-0.945,14.403-8.621,20.185-7.932
		c3.744,0.016,21.506-6.58,17.285,1.689c-0.928,1.528-16.897,5.445-16.897,5.445s-14.595,6.959-17.423,13.911
		c-0.366,0.901-0.332,1.982-0.079,3.114c2.592-0.155,3.312,0.634,6.261-1.434c2.151-1.509,4.606-3.211,4.606-3.211
		c2.022-1.349,6.173-2.717,7.435-0.829c1.861,2.784-2.488,6.067-4.509,7.415c0,0-0.82,0.547-4.066,2.713
		c-2.885,1.925-3.536,4.471-6.67,6.378c-6.067,4.461-20.946,9.491-23.085,9.25c-6.365-0.718-19.189-4.657-19.189-4.657l3.863-19.348
		C156.323,195.381,165.826,198.208,165.826,198.208z"/>
</g>
<g>
	<path style="fill:#6E785F;" d="M122.389,217.353l-10.192,2.002l-3.324-2.273c0,0,7.451-6.783,14.535-6.308
		C124.491,210.711,122.389,217.353,122.389,217.353z"/>
	<path style="fill:#B2C98F;" d="M145.625,236.158c4.055,11.051-3.617,23.69-17.78,26.472c-14.163,2.782-26.045-6.016-26.472-17.78
		c-0.366-10.107,8.083-19.022,18.829-21.132C130.947,221.607,142.141,226.664,145.625,236.158z"/>
	<path style="fill:#3B3D35;" d="M126.12,224.176l-11.606,2.279c-1.179,0.232-2.228-0.057-2.343-0.644l-0.004-0.021
		c-0.115-0.587,0.747-1.251,1.925-1.483l11.606-2.279c1.179-0.232,2.228,0.057,2.343,0.644l0.004,0.021
		C128.161,223.28,127.299,223.944,126.12,224.176z"/>
	<path style="fill:#B2C98F;" d="M128.502,214.93c0,0-1.272-4.906-5.093-4.155c-2.89,0.568-3.843,4.069-6.736,5.306
		c-4.755,2.033-7.799,1.002-7.799,1.002l5.85,7.101l10.735-2.108L128.502,214.93z"/>
	<path style="fill:#5D694A;" d="M126.577,237.162c-1.142-0.699-2.063-0.992-3.194-0.771c-1.291,0.251-1.888,0.897-1.651,2.111
		c0.499,2.554,7.557,0.951,8.561,6.091c0.504,2.58-0.535,4.851-3.188,5.982l0.546,2.796l-2.61,0.509l-0.527-2.688
		c-1.621,0.122-3.641-0.208-5.132-1.116l1.2-3.001c1.575,0.751,2.864,1.06,4.157,0.807c1.5-0.292,2.056-1.043,1.812-2.282
		c-0.539-2.767-7.63-1.329-8.575-6.172c-0.517-2.635,0.687-4.771,3.115-5.772l-0.54-2.773l2.61-0.509l0.529,2.714
		c1.769-0.09,3.172,0.528,4.439,1.427L126.577,237.162z"/>
	<polygon style="fill:#8C9E70;" points="116.519,230.202 117.087,225.95 118.554,225.662 	"/>
	<polygon style="fill:#8C9E70;" points="128.711,230.819 122.017,224.982 123.484,224.693 	"/>
	<polygon style="fill:#8C9E70;" points="127.952,225.397 125.235,224.35 126.702,224.061 	"/>
	<polygon style="fill:#8C9E70;" points="113.12,228.645 113.971,226.562 115.438,226.274 	"/>
</g>
<g>
	<g>
		<g>
			<path style="fill:#424C57;" d="M334.186,315.676l-31.868-11.142c-0.568-0.199-0.868-0.821-0.669-1.389l5.206-14.889
				c0.199-0.568,0.821-0.868,1.389-0.669l31.868,11.142c0.568,0.199,0.868,0.821,0.669,1.389l-5.206,14.889
				C335.376,315.574,334.754,315.874,334.186,315.676z"/>
			<path style="fill:#576573;" d="M338.706,304.663l-33.061-11.559c-0.59-0.206-0.901-0.851-0.694-1.441l5.4-15.447
				c0.206-0.59,0.851-0.9,1.441-0.694l33.061,11.559c0.59,0.206,0.9,0.851,0.694,1.441l-5.401,15.447
				C339.941,304.558,339.296,304.869,338.706,304.663z"/>
			
				<rect x="328.24" y="295.797" transform="matrix(0.33 -0.944 0.944 0.33 -58.9697 513.345)" style="fill:#424C57;" width="7.853" height="4.838"/>
			<polygon style="fill:#576573;" points="331.135,306.99 328.778,308.094 327.507,305.722 331.478,294.363 335.106,295.631 			"/>
			<path style="fill:#9E9E9E;" d="M332.542,305.031l-4.916-1.719l1.182-3.381l4.916,1.719L332.542,305.031z M328.503,302.891
				l3.617,1.265l0.728-2.082l-3.617-1.265L328.503,302.891z"/>
			
				<rect x="311.278" y="289.867" transform="matrix(0.33 -0.944 0.944 0.33 -64.7357 493.3604)" style="fill:#424C57;" width="7.853" height="4.838"/>
			<polygon style="fill:#576573;" points="314.173,301.06 311.816,302.164 310.545,299.792 314.516,288.432 318.144,289.701 			"/>
			<path style="fill:#9E9E9E;" d="M315.58,299.101l-4.916-1.719l1.182-3.381l4.916,1.719L315.58,299.101z M311.541,296.96
				l3.617,1.265l0.728-2.082l-3.617-1.265L311.541,296.96z"/>
			<path style="fill:#424C57;" d="M324.343,276.814l-0.024-0.008c-0.664-0.232-1.34-0.025-1.511,0.463l-0.656,1.875l1.214,0.424
				L324.343,276.814z"/>
			<path style="fill:#424C57;" d="M333.773,280.111l0.024,0.009c0.664,0.232,1.063,0.816,0.893,1.304l-0.656,1.875l-1.214-0.424
				L333.773,280.111z"/>
			<path style="fill:#47403E;" d="M333.12,281.977c0,0-1.168-1.258-4.495-2.422c-3.327-1.163-4.935-0.875-4.935-0.875l0.652-1.866
				c0,0,1.601-0.351,4.981,0.831c3.38,1.182,4.449,2.466,4.449,2.466L333.12,281.977z"/>
		</g>
		<g>
			<path style="fill:#5F9653;" d="M352.503,304.51l-24.277-8.434c-0.191-0.066-0.284-0.295-0.21-0.511l3.876-11.157
				c0.075-0.216,0.291-0.337,0.481-0.271l24.277,8.434c0.191,0.066,0.285,0.295,0.21,0.511l-3.876,11.157
				C352.909,304.455,352.693,304.576,352.503,304.51z"/>
			<path style="fill:#BADBAC;" d="M350.887,302.207l-0.035,0.1c-0.113,0.326-0.453,0.505-0.759,0.399l-19.17-6.66
				c-0.309-0.107-0.464-0.462-0.347-0.79l0.022-0.061c0.118-0.327-0.038-0.683-0.346-0.79l-0.018-0.006
				c-0.306-0.106-0.462-0.457-0.349-0.783l2.271-6.538c0.113-0.326,0.453-0.505,0.759-0.398l0.011,0.004
				c0.306,0.106,0.646-0.072,0.759-0.398l0.033-0.095c0.113-0.326,0.453-0.505,0.759-0.398l19.175,6.662
				c0.303,0.105,0.46,0.452,0.351,0.777l-0.036,0.109c-0.109,0.325,0.048,0.671,0.351,0.776l0.25,0.087
				c0.306,0.106,0.462,0.457,0.349,0.783l-2.262,6.51c-0.113,0.324-0.45,0.503-0.755,0.4l-0.26-0.088
				C351.337,301.705,351,301.883,350.887,302.207z"/>
			<path style="fill:#5F9653;" d="M345.29,295.315c-0.717,2.063-2.577,3.292-4.154,2.744c-1.577-0.548-2.274-2.665-1.557-4.728
				c0.717-2.064,2.577-3.293,4.154-2.745C345.31,291.134,346.007,293.251,345.29,295.315z"/>
			<path style="fill:#5F9653;" d="M334.246,291.478c0.227-0.654,0.942-1.001,1.597-0.773c0.654,0.227,1,0.942,0.773,1.597
				c-0.227,0.654-0.942,1-1.596,0.773C334.365,292.847,334.019,292.132,334.246,291.478z"/>
			<path style="fill:#5F9653;" d="M348.214,296.35c0.227-0.654,0.942-1,1.596-0.773c0.654,0.227,1.001,0.942,0.773,1.596
				c-0.227,0.655-0.942,1.001-1.597,0.773C348.333,297.719,347.987,297.004,348.214,296.35z"/>
		</g>
		<g>
			<path style="fill:#6B6B6B;" d="M338.024,298.611c1.003-1.462,3.002-1.835,4.464-0.832c1.462,1.003,1.835,3.002,0.832,4.464
				c-1.003,1.462-3.002,1.834-4.464,0.831C337.393,302.072,337.021,300.074,338.024,298.611z"/>
			<path style="fill:#B0B0B0;" d="M338.454,298.907c0.84-1.225,2.514-1.538,3.739-0.697c1.225,0.84,1.537,2.515,0.697,3.74
				c-0.84,1.225-2.514,1.536-3.739,0.696C337.926,301.805,337.614,300.131,338.454,298.907z"/>
			<path style="fill:#6B6B6B;" d="M339.801,300.738c0.051,0.222,0.126,0.369,0.288,0.48c0.185,0.127,0.334,0.122,0.453-0.051
				c0.251-0.365-0.786-1.031-0.282-1.766c0.253-0.369,0.653-0.514,1.107-0.327l0.274-0.4l0.373,0.256l-0.263,0.385
				c0.208,0.182,0.409,0.467,0.477,0.756l-0.508,0.212c-0.097-0.281-0.213-0.474-0.398-0.601c-0.215-0.147-0.372-0.125-0.493,0.052
				c-0.272,0.396,0.749,1.085,0.274,1.778c-0.258,0.377-0.661,0.486-1.073,0.311l-0.272,0.397l-0.373-0.256l0.266-0.388
				c-0.222-0.204-0.314-0.448-0.356-0.709L339.801,300.738z"/>
		</g>
		<g>
			<path style="fill:#91713A;" d="M342.275,287.241c0.36,2.066-1.023,4.034-3.089,4.394c-2.066,0.36-4.034-1.023-4.394-3.089
				c-0.36-2.066,1.023-4.033,3.09-4.393C339.948,283.792,341.915,285.174,342.275,287.241z"/>
			<path style="fill:#F3BB61;" d="M341.668,287.347c0.302,1.731-0.856,3.379-2.587,3.681c-1.731,0.302-3.379-0.857-3.681-2.588
				c-0.302-1.73,0.857-3.378,2.588-3.68C339.718,284.458,341.366,285.616,341.668,287.347z"/>
			<path style="fill:#91713A;" d="M339.014,286.911c-0.227-0.145-0.411-0.208-0.64-0.168c-0.261,0.045-0.384,0.173-0.341,0.418
				c0.09,0.516,1.518,0.222,1.699,1.261c0.091,0.522-0.128,0.975-0.666,1.191l0.099,0.565l-0.528,0.092l-0.095-0.543
				c-0.327,0.018-0.732-0.057-1.029-0.246l0.254-0.599c0.314,0.158,0.572,0.225,0.834,0.179c0.303-0.053,0.418-0.202,0.374-0.452
				c-0.097-0.559-1.531-0.299-1.701-1.277c-0.093-0.533,0.158-0.958,0.651-1.15l-0.098-0.56l0.528-0.092l0.095,0.549
				c0.357-0.011,0.637,0.119,0.888,0.305L339.014,286.911z"/>
		</g>
	</g>
</g>
<g>
	
		<rect x="313.724" y="237.114" transform="matrix(0.1611 -0.9869 0.9869 0.1611 31.0863 517.3654)" style="fill:#BD8779;" width="12.277" height="6.568"/>
	<path style="fill:#333333;" d="M334.748,248.878c0.165-2.752-11.238-7.082-11.427-6.939l-4.401,4.232l-2.827-5.412
		c-0.134-0.195-12.636,0.234-13.355,2.895l-2.805,11.715l34.161,5.575L334.748,248.878z"/>
	<polygon style="fill:#242424;" points="316.385,241.318 318.92,246.171 312.119,239.796 316.801,238.77 	"/>
	<polygon style="fill:#242424;" points="322.867,242.376 318.92,246.171 327.395,242.289 323.283,239.828 	"/>
	<path style="fill:#665046;" d="M313.467,222.812c-1.788,2.363-0.197,11.87,1.925,12.216c2.129,0.347,8.105,1.323,10.209,1.666
		c2.111,0.344,7.351-8.69,5.784-10.896c-2.083-1.982-7.62-4.935-7.62-4.935S315.478,221.573,313.467,222.812z"/>
	<g>
		<path style="fill:#FFB7A4;" d="M313.721,228.212c-1.249,0.055-2.311-1.045-2.374-2.437c-0.055-1.405,0.909-2.581,2.158-2.636
			C314.756,223.084,314.978,228.158,313.721,228.212z"/>
	</g>
	<g>
		<path style="fill:#FFB7A4;" d="M329.282,230.752c1.167,0.449,2.529-0.255,3.025-1.556c0.505-1.313-0.034-2.735-1.202-3.185
			C329.938,225.562,328.115,230.302,329.282,230.752z"/>
	</g>
	<path style="fill:#FFB7A4;" d="M320.103,238.463c9.429,1.539,11.216-15.811,11.216-15.811s0.512-5.706-7.281-6.978
		c-6.787-1.108-9.401,4.391-9.401,4.391S310.814,236.947,320.103,238.463z"/>
	<path style="fill:#665046;" d="M313.005,223.218c0.853-0.045,1.476,1.661,1.476,1.661l1.311-5.908c0,0,9.386,3.382,11.596-0.058
		c2.836-0.624,2.879,2.408,2.879,2.408s-0.354,6.633-0.338,6.377c0.7-1.602,1.863-1.239,1.863-1.239s4.508-11.548-7.457-13.501
		C312.363,211.003,313.043,222.879,313.005,223.218z"/>
	<path style="fill:#333333;" d="M326.567,224.783c-2.041-0.333-3.883,0.378-4.413,1.613c-0.11-1.34-1.63-2.599-3.671-2.932
		c-2.269-0.37-4.307,0.544-4.552,2.042s1.397,3.013,3.666,3.383c2.041,0.333,3.882-0.378,4.413-1.613
		c0.11,1.34,1.63,2.599,3.671,2.932c2.269,0.37,4.307-0.544,4.551-2.042C330.478,226.668,328.837,225.153,326.567,224.783z
		 M317.926,226.88c-1.262-0.206-2.222-0.754-2.145-1.224c0.077-0.47,1.162-0.684,2.423-0.478c1.262,0.206,2.222,0.754,2.146,1.224
		C320.273,226.871,319.188,227.085,317.926,226.88z M326.01,228.199c-1.262-0.206-2.222-0.754-2.145-1.224
		c0.077-0.47,1.162-0.684,2.423-0.478c1.262,0.206,2.222,0.754,2.146,1.224C328.357,228.191,327.271,228.405,326.01,228.199z"/>
	<g>
		<path style="fill:#333333;" d="M333.306,220.778c0.422-2.587-3.018-8.74-8.359-9.611c-5.341-0.872-10.559,3.868-10.981,6.455
			L333.306,220.778z"/>
		<path style="fill:#242424;" d="M333.306,220.778c0.042-0.255,0.046-0.545,0.014-0.861l-19.071-3.165
			c-0.143,0.307-0.239,0.6-0.283,0.869L333.306,220.778z"/>
		<path style="fill:#333333;" d="M332.732,223.78l-19.988-3.262c-0.56-0.091-0.976-0.392-0.93-0.672l0.344-2.109
			c0.046-0.28,0.536-0.432,1.096-0.341l19.988,3.262c0.559,0.091,0.976,0.392,0.93,0.672l-0.344,2.109
			C333.782,223.719,333.292,223.871,332.732,223.78z"/>
	</g>
</g>
<g>
	<path style="fill:#696969;" d="M167.378,164.019v19.235c0,2.665-2.168,4.832-4.832,4.832c-2.665,0-4.832-2.168-4.832-4.832
		c0-0.712-0.577-1.289-1.289-1.289c-0.712,0-1.289,0.577-1.289,1.289c0,4.086,3.324,7.41,7.41,7.41c4.085,0,7.41-3.324,7.41-7.41
		v-19.235H167.378z"/>
	<g>
		<path style="fill:#CCCCCC;" d="M168.695,142.703L168.695,142.703c0,0-14.417,5.49-14.417,21.316h28.162
			C182.439,148.193,168.695,142.703,168.695,142.703z"/>
		<path style="fill:#E57368;" d="M168.695,142.703L168.695,142.703c0,0-5.263,5.49-5.263,21.316h10.363
			C173.795,148.193,168.695,142.703,168.695,142.703z"/>
		<path style="fill:#E57368;" d="M168.695,142.703c-11.772,0-21.545,9.544-21.545,21.316h0.229h6.899
			C154.278,148.193,168.695,142.703,168.695,142.703z"/>
		<path style="fill:#E57368;" d="M168.695,142.703L168.695,142.703c0,0,13.744,5.49,13.744,21.316h7.572h0.229
			C190.24,152.246,180.467,142.703,168.695,142.703z"/>
	</g>
	<path style="fill:#6A90D9;" d="M153.447,146.065c-5.779,3.239-5.12-8.907-5.12-8.907S159.226,142.826,153.447,146.065z"/>
	<path style="fill:#6A90D9;" d="M154.839,134.349c-3.495,1.959-3.096-5.386-3.096-5.386S158.334,132.39,154.839,134.349z"/>
	<path style="fill:#6A90D9;" d="M165.494,138.409c-4.43,2.483-3.924-6.827-3.924-6.827S169.924,135.927,165.494,138.409z"/>
	<polygon style="fill:#F3BB61;" points="179.484,127.94 176.132,138.881 181.672,138.322 176.132,152.382 186.933,135.901 
		180.322,136.273 184.372,127.521 	"/>
</g>
<g>
	<g>
		<polygon style="fill:#C8D3E8;" points="154.13,315.897 118.297,321.487 111.877,280.341 115.744,274.713 146.945,269.845 		"/>
		<polygon style="fill:#9C9C9C;" points="115.744,274.713 111.877,280.341 116.51,279.618 		"/>
	</g>
	<g>
		<polygon style="fill:#943E3E;" points="130.937,326.197 127.454,325.044 124.315,327.23 122.883,318.055 129.505,317.022 		"/>
		<path style="fill:#BD7070;" d="M130.602,313.176c0.428,2.743-1.449,5.314-4.192,5.742c-2.743,0.428-5.314-1.449-5.742-4.192
			c-0.428-2.743,1.449-5.314,4.192-5.742C127.603,308.556,130.173,310.433,130.602,313.176z"/>
		<path style="fill:#824747;" d="M129.567,313.338c0.339,2.172-1.147,4.207-3.319,4.546c-2.172,0.339-4.207-1.147-4.546-3.319
			c-0.339-2.172,1.147-4.207,3.319-4.546C127.193,309.68,129.228,311.166,129.567,313.338z"/>
	</g>
	<g>
		
			<rect x="115.697" y="280.261" transform="matrix(0.988 -0.1542 0.1542 0.988 -41.8825 23.4009)" style="fill:#5E828F;" width="28.504" height="2.999"/>
		
			<rect x="116.59" y="285.983" transform="matrix(0.988 -0.1542 0.1542 0.988 -42.7539 23.6069)" style="fill:#5E828F;" width="28.504" height="2.999"/>
		
			<rect x="117.482" y="291.706" transform="matrix(0.988 -0.1542 0.1542 0.988 -43.6243 23.8122)" style="fill:#5E828F;" width="28.504" height="2.999"/>
		
			<rect x="118.437" y="298.225" transform="matrix(0.988 -0.1542 0.1542 0.988 -44.6798 23.2402)" style="fill:#5E828F;" width="18.162" height="2.999"/>
		
			<rect x="136.494" y="309.261" transform="matrix(0.988 -0.1542 0.1542 0.988 -46.1996 25.7058)" style="fill:#405861;" width="12.329" height="2.999"/>
	</g>
</g>
<g>
	<g>
		<path style="fill:#C2C2C2;" d="M83.28,319.935c0,0,0.223-21.141-24.514-39.861l36.46-7.383
			C103.487,295.988,83.28,319.935,83.28,319.935z"/>
		<path style="fill:#C7C7C7;" d="M95.226,272.691c0.521,3.141-7.377,7.068-17.641,8.77c-10.264,1.703-19.007,0.536-19.528-2.605
			c-0.521-3.141,7.377-7.068,17.641-8.77C85.962,268.384,94.705,269.55,95.226,272.691z"/>
		<path style="fill:#A6A6A6;" d="M91.812,273.291c0.42,2.532-5.946,5.696-14.218,7.068c-8.272,1.372-15.319,0.432-15.739-2.099
			c-0.42-2.532,5.946-5.696,14.218-7.068S91.393,270.759,91.812,273.291z"/>
		<path style="fill:#878787;" d="M88.38,274.341c0.324,1.952-4.585,4.392-10.964,5.451c-6.379,1.058-11.813,0.333-12.137-1.619
			c-0.324-1.952,4.585-4.393,10.964-5.451C82.623,271.664,88.057,272.389,88.38,274.341z"/>
		
			<ellipse transform="matrix(0.9865 -0.1636 0.1636 0.9865 -44.2379 16.3278)" style="fill:#6E6E6E;" cx="76.989" cy="276.683" rx="8.62" ry="2.638"/>
		<path style="fill:#A1A1A1;" d="M71.447,292.173l-2.222-2.587c0,0,7.234,1.06,20.745-2.708
			C80.907,292.122,71.447,292.173,71.447,292.173z"/>
		<path style="fill:#A1A1A1;" d="M94.047,300.919c0,0-6.103,2.194-12.311,0.798c7.456-0.342,13.18-3.323,13.18-3.323L94.047,300.919
			z"/>
		<path style="fill:#C9C9C9;" d="M75.681,306.086l-19.772,3.626c-0.526,0.096-1.031-0.251-1.128-0.778
			c-0.097-0.527,0.252-1.031,0.778-1.128l19.772-3.626c0.526-0.096,1.031,0.251,1.128,0.778
			C76.556,305.485,76.207,305.989,75.681,306.086z"/>
		<path style="fill:#C9C9C9;" d="M71.357,301.215l-16.453,3.017c-0.526,0.096-1.031-0.251-1.128-0.778s0.252-1.031,0.778-1.128
			l16.453-3.017c0.526-0.096,1.031,0.251,1.128,0.778C72.232,300.615,71.883,301.119,71.357,301.215z"/>
		<path style="fill:#C9C9C9;" d="M67.732,296.217l-13.117,2.405c-0.526,0.096-1.031-0.251-1.128-0.778
			c-0.097-0.527,0.252-1.031,0.778-1.128l13.118-2.405c0.526-0.096,1.031,0.251,1.128,0.778
			C68.606,295.616,68.258,296.12,67.732,296.217z"/>
	</g>
</g>
<g>
	<g>
		<polygon style="fill:#3B4F54;" points="386.561,251.44 358.744,271.492 346.764,264.025 385.84,235.857 		"/>
		
			<rect x="353.996" y="241.751" transform="matrix(0.8112 -0.5848 0.5848 0.8112 -75.7597 258.5862)" style="fill:#CCCCCC;" width="17.176" height="9.737"/>
		<path style="fill:#737373;" d="M367.722,242.681c0.866,1.202,0.621,2.859-0.547,3.701c-1.168,0.842-2.818,0.551-3.684-0.651
			c-0.866-1.202-0.622-2.859,0.547-3.701C365.206,241.188,366.856,241.479,367.722,242.681z"/>
		<path style="fill:#77A7FB;" d="M367.341,242.956c0.71,0.985,0.509,2.343-0.448,3.034c-0.958,0.69-2.31,0.452-3.02-0.534
			c-0.71-0.985-0.509-2.343,0.448-3.034C365.279,241.732,366.631,241.971,367.341,242.956z"/>
		
			<rect x="351.455" y="240.621" transform="matrix(0.8112 -0.5848 0.5848 0.8112 -76.3385 251.8134)" style="fill:#4D4D4D;" width="0.605" height="6.989"/>
		<polygon style="fill:#E36055;" points="345.237,249.239 351.713,244.57 349.556,241.578 343.08,246.246 345.974,246.434 		"/>
		<polygon style="fill:#A35C5C;" points="386.147,242.494 351.867,267.206 349.315,265.616 385.993,239.176 		"/>
	</g>
	<g>
		<g>
			<path style="fill:#445F8F;" d="M387.601,270.061c-0.327-0.053-0.641-0.203-0.897-0.45c-0.028-0.026-3.204-3.015-8.008-3.795
				c-1.368-0.222-3.122,0.118-4.979,0.478c-2.094,0.405-4.258,0.825-6.269,0.499c-3.784-0.614-5.177-1.704-6.405-2.667
				c-1.013-0.794-1.889-1.479-4.668-1.93c-5.682-0.922-8.915,0.929-8.947,0.948c-0.796,0.467-1.823,0.209-2.296-0.58
				c-0.474-0.79-0.229-1.81,0.556-2.291c0.169-0.103,4.229-2.525,11.224-1.39c3.632,0.589,4.996,1.658,6.2,2.601
				c1.041,0.816,1.94,1.52,4.872,1.996c1.421,0.23,3.288-0.131,5.093-0.481c2.063-0.4,4.197-0.813,6.154-0.495
				c5.879,0.954,9.646,4.543,9.804,4.696c0.667,0.644,0.684,1.707,0.039,2.373C388.68,269.982,388.124,270.146,387.601,270.061z"/>
			<path style="fill:#77A7FB;" d="M387.111,273.082c-0.327-0.053-0.641-0.203-0.897-0.45c-0.028-0.026-3.204-3.016-8.008-3.795
				c-1.368-0.222-3.122,0.118-4.979,0.478c-2.094,0.405-4.258,0.825-6.269,0.499c-3.784-0.614-5.176-1.704-6.404-2.667
				c-1.013-0.794-1.889-1.479-4.668-1.93c-5.682-0.922-8.915,0.93-8.947,0.948c-0.796,0.467-1.823,0.209-2.296-0.58
				c-0.474-0.79-0.229-1.81,0.556-2.291c0.169-0.103,4.229-2.525,11.224-1.39c3.632,0.589,4.996,1.658,6.2,2.601
				c1.041,0.816,1.94,1.52,4.872,1.996c1.421,0.23,3.288-0.131,5.093-0.481c2.063-0.4,4.197-0.813,6.154-0.495
				c5.88,0.954,9.647,4.543,9.804,4.696c0.667,0.644,0.684,1.707,0.04,2.373C388.19,273.003,387.634,273.167,387.111,273.082z"/>
			<path style="fill:#445F8F;" d="M386.621,276.103c-0.327-0.053-0.641-0.203-0.897-0.45c-0.028-0.026-3.204-3.016-8.008-3.795
				c-1.368-0.222-3.122,0.118-4.979,0.478c-2.094,0.405-4.259,0.825-6.269,0.499c-3.784-0.614-5.177-1.704-6.405-2.667
				c-1.013-0.794-1.888-1.479-4.668-1.93c-5.682-0.922-8.915,0.929-8.947,0.948c-0.796,0.467-1.823,0.209-2.296-0.58
				c-0.474-0.79-0.229-1.81,0.556-2.291c0.169-0.103,4.229-2.525,11.224-1.39c3.632,0.589,4.996,1.658,6.2,2.601
				c1.041,0.816,1.94,1.52,4.872,1.996c1.421,0.23,3.288-0.131,5.093-0.481c2.063-0.4,4.197-0.813,6.154-0.495
				c5.88,0.954,9.647,4.543,9.804,4.696c0.667,0.644,0.684,1.707,0.04,2.373C387.7,276.024,387.144,276.188,386.621,276.103z"/>
			<path style="fill:#77A7FB;" d="M386.124,279.167c-0.327-0.053-0.641-0.203-0.897-0.45c-0.028-0.026-3.204-3.016-8.008-3.795
				c-1.368-0.222-3.122,0.118-4.979,0.477c-2.094,0.406-4.259,0.825-6.269,0.499c-3.784-0.614-5.177-1.704-6.405-2.667
				c-1.013-0.794-1.888-1.479-4.668-1.93c-5.682-0.922-8.915,0.93-8.947,0.948c-0.796,0.467-1.823,0.209-2.296-0.58
				c-0.474-0.79-0.229-1.81,0.556-2.291c0.169-0.103,4.229-2.525,11.224-1.39c3.632,0.589,4.996,1.658,6.2,2.601
				c1.041,0.816,1.94,1.52,4.872,1.996c1.421,0.23,3.288-0.131,5.093-0.481c2.063-0.4,4.197-0.813,6.154-0.495
				c5.879,0.954,9.647,4.543,9.804,4.696c0.667,0.644,0.684,1.707,0.04,2.373C387.203,279.087,386.647,279.252,386.124,279.167z"/>
		</g>
	</g>
	<g>
		<g>
			<path style="fill:#FF905E;" d="M385.725,260.136c-0.202,1.243-0.886,2.287-1.829,2.975l2.126,2.95
				c1.698-1.232,2.929-3.108,3.291-5.342c0.36-2.221-0.207-4.377-1.414-6.078l-2.951,2.127
				C385.611,257.713,385.925,258.906,385.725,260.136z"/>
			<path style="fill:#FF905E;" d="M376.655,258.665c0.18-1.112,0.759-2.049,1.551-2.73l-2.137-2.964
				c-1.545,1.23-2.661,3.009-3.002,5.112c-0.343,2.116,0.161,4.169,1.252,5.829l2.963-2.136
				C376.732,260.875,376.472,259.79,376.655,258.665z"/>
			<path style="fill:#FFFFFF;" d="M387.642,254.308c-1.23-1.56-3.019-2.687-5.135-3.031c-2.234-0.362-4.403,0.212-6.109,1.434
				c-0.114,0.081-0.22,0.172-0.33,0.26l2.137,2.964c0.107-0.092,0.205-0.192,0.32-0.274c0.951-0.677,2.157-0.997,3.4-0.795
				c1.125,0.182,2.072,0.772,2.754,1.578c0.091,0.107,0.188,0.208,0.268,0.324l2.951-2.127
				C387.818,254.526,387.729,254.418,387.642,254.308z"/>
			<path style="fill:#FFFFFF;" d="M383.896,263.111c-0.113,0.083-0.24,0.145-0.361,0.217c-0.896,0.536-1.969,0.789-3.081,0.608
				c-1.23-0.2-2.263-0.874-2.951-1.802c-0.084-0.113-0.149-0.237-0.222-0.357l-2.963,2.136c0.077,0.117,0.151,0.236,0.234,0.349
				c1.232,1.683,3.098,2.902,5.32,3.263c2.103,0.341,4.144-0.155,5.799-1.232c0.117-0.076,0.237-0.149,0.35-0.231L383.896,263.111z"
				/>
		</g>
	</g>
</g>
<g>
	<path style="fill:#E57368;" d="M302.638,153.832c0,0-9.159,2.708-18.171-4.77c-9.012,7.477-18.171,4.77-18.171,4.77
		s-4.487,25.615,18.171,36.623C307.125,179.447,302.638,153.832,302.638,153.832z"/>
	<path style="fill:#FFFFFF;" d="M300.251,156.697c0,0-7.956,2.352-15.784-4.143c-7.828,6.495-15.784,4.143-15.784,4.143
		s-3.897,21.707,15.784,31.269C304.148,178.403,300.251,156.697,300.251,156.697z"/>
	<path style="fill:#C4564A;" d="M298.879,158.349c0,0-7.404,1.781-14.412-4.034c-7.008,5.815-14.412,4.034-14.412,4.034
		s-3.208,19.596,14.412,28.157C302.087,177.945,298.879,158.349,298.879,158.349z"/>
	<polygon style="fill:#FFFFFF;" points="286.391,167.223 286.391,160.919 282.542,160.919 282.542,167.223 276.239,167.223 
		276.239,171.072 282.542,171.072 282.542,177.375 286.391,177.375 286.391,171.072 292.695,171.072 292.695,167.223 	"/>
</g>
<g>
	<path style="fill:#D45353;" d="M228.896,131.034c0,0,12.432-16.034,21.697-3.175c11.722,16.269-21.697,33.048-21.697,33.048
		s-33.418-16.779-21.696-33.048C216.465,115,228.896,131.034,228.896,131.034z"/>
	<path style="fill:#F3BB61;" d="M232.095,150.763c-0.359,0-0.693-0.193-0.871-0.509l-5.257-9.317l-2.253,3.965
		c-0.178,0.313-0.51,0.506-0.869,0.506h-7.625c-0.553,0-1-0.447-1-1c0-0.553,0.447-1,1-1h7.043l2.838-4.994
		c0.178-0.313,0.513-0.511,0.871-0.506c0.359,0.001,0.692,0.195,0.869,0.509l5.116,9.067l1.464-3.531
		c0.155-0.374,0.52-0.617,0.924-0.617h7.5c0.553,0,1,0.447,1,1c0,0.553-0.447,1-1,1h-6.832l-1.994,4.811
		c-0.146,0.354-0.481,0.593-0.863,0.615C232.135,150.762,232.114,150.763,232.095,150.763z"/>
</g>
<g>
	
		<rect x="118.521" y="182.731" transform="matrix(0.9894 -0.145 0.145 0.9894 -25.8743 19.6287)" style="fill:#BD8779;" width="6.339" height="9.097"/>
	<path style="fill:#D1FFF4;" d="M124.895,187.286l-2.165,3.628c-0.194,0.303-0.61,0.367-0.886,0.137l-3.216-2.814
		c-0.159-0.131-0.321,0.012-0.517,0.076l-0.007,0.002c-0.208,0.068-0.362,0.244-0.403,0.459l-2.173,11.507
		c-0.076,0.404,0.558,2.733,0.965,2.673l15.234-2.232c0.413-0.061,0.348-2.49,0.15-2.855l-5.632-10.329
		c-0.104-0.191-0.303-0.31-0.521-0.313l-0.282-0.002C125.237,187.22,125.006,187.113,124.895,187.286z"/>
	<path style="fill:#89695E;" d="M110.731,174.15c-0.313,3.236,1.687,9.41,6.176,10.781c2.097-0.307,6.519-0.956,8.6-1.261
		c4.33-3.116,3.944-10.206,2.933-12.059c-2.546-1.232-8.622-2.351-8.622-2.351S112.251,172.384,110.731,174.15z"/>
	<path style="fill:#385757;" d="M119.841,202.463l-15.927,2.336c0,0-1.343-5.86,1.072-11.179
		c-0.352-2.401,12.609-6.485,12.609-6.485L119.841,202.463z"/>
	<path style="fill:#385757;" d="M127.835,201.293l15.945-2.341c0,0-0.414-6.03-4.255-10.43c-0.352-2.403-13.942-2.593-13.942-2.593
		L127.835,201.293z"/>
	<path style="fill:#FFB7A4;" d="M111.598,177.168c-1.257,0.458-2.694-0.314-3.21-1.725c-0.514-1.41,0.087-2.924,1.346-3.385
		C110.991,171.6,112.858,176.706,111.598,177.168z"/>
	<path style="fill:#FFB7A4;" d="M128.3,174.72c1.337,0.077,2.492-1.074,2.58-2.574c0.089-1.498-0.923-2.777-2.261-2.857
		C127.284,169.212,126.962,174.638,128.3,174.72z"/>
	<path style="fill:#FFB7A4;" d="M121.426,185.566c10.755-1.576,6.33-19.775,6.33-19.775s-1.328-5.983-9.688-4.758
		c-7.287,1.068-8.174,7.528-8.174,7.528S110.597,187.153,121.426,185.566z"/>
	<path style="fill:#89695E;" d="M109.253,172.307c0.85-0.325,2.039,1.213,2.039,1.213l-0.577-6.451c0,0,4.363,2.187,14.317-0.739
		c-0.621-2.193,1.214-1.558,1.214-1.558s1.791,6.886,1.722,6.622c0.196-1.869,1.502-1.873,1.502-1.873s2.626-14.327-12.88-12.055
		c-5.289,0.775-5.233,2.69-6.508,5.288C105.232,164.674,109.209,172.094,109.253,172.307z"/>
	<path style="fill:#424242;" d="M121.619,202.204l4.547-0.666l-3.661-10.054c-0.109-0.08-0.261-0.053-0.336,0.06L121.619,202.204z"
		/>
	<path style="fill:#424242;" d="M120.236,188.967l3.392-0.497c0.205-0.03,0.488,1.175,0.364,1.341l-1.503,1.536
		c-0.08,0.108-0.236,0.127-0.339,0.039l-1.89-1.038C120.106,190.218,120.035,188.996,120.236,188.967z"/>
	<path style="fill:#D1FFF4;" d="M122.14,188.839l3.028,1.699c0.111,0.062,0.249-0.007,0.266-0.132l0.591-4.283
		c0.007-0.052-0.01-0.106-0.045-0.146l-1.04-1.138c-0.077-0.086-0.214-0.077-0.28,0.019l-2.579,3.722
		C122.021,188.666,122.048,188.786,122.14,188.839z"/>
	<path style="fill:#D1FFF4;" d="M121.777,188.892l-2.412,2.496c-0.088,0.091-0.242,0.065-0.294-0.05l-1.795-3.933
		c-0.022-0.048-0.022-0.105,0.002-0.153l0.669-1.388c0.05-0.104,0.183-0.135,0.275-0.063l3.538,2.825
		C121.844,188.692,121.851,188.815,121.777,188.892z"/>
	<path style="fill:#89695E;" d="M120.545,179.999c-0.447,0.942-4.452,1.529-4.452,1.529l0.096-0.578
		c0.189-1.143,1.095-2.032,2.241-2.2l1.891-0.277L120.545,179.999z"/>
	<path style="fill:#89695E;" d="M120.545,179.999c0.698,0.774,4.704,0.187,4.704,0.187l-0.258-0.526
		c-0.509-1.04-1.633-1.632-2.779-1.464l-1.891,0.277L120.545,179.999z"/>
	<g>
		
			<rect x="129.533" y="194.546" transform="matrix(0.9894 -0.145 0.145 0.9894 -26.9005 21.354)" style="fill:#876456;" width="6.94" height="1.246"/>
		
			<rect x="130.397" y="195.746" transform="matrix(0.9894 -0.145 0.145 0.9894 -27.5206 21.49)" style="fill:#FFFFFF;" width="6.484" height="7.524"/>
		
			<rect x="130.832" y="196.697" transform="matrix(0.9894 -0.145 0.145 0.9894 -27.2752 21.1819)" style="fill:#FFA682;" width="1.627" height="1.94"/>
		
			<rect x="131.188" y="199.591" transform="matrix(0.9894 -0.145 0.145 0.9894 -27.5877 21.5063)" style="fill:#ABA4A1;" width="5.049" height="0.759"/>
		
			<rect x="131.372" y="200.843" transform="matrix(0.9894 -0.145 0.145 0.9894 -27.7678 21.5466)" style="fill:#ABA4A1;" width="5.049" height="0.759"/>
		
			<rect x="132.098" y="193.769" transform="matrix(0.9894 -0.145 0.145 0.9894 -26.7491 21.3165)" style="fill:#ABA4A1;" width="1.526" height="0.787"/>
	</g>
</g>
<g>
	<path style="fill:#8C8C8C;" d="M347.102,178.668c-0.422-0.103-0.838-0.187-1.252-0.262c0.002-0.008,0.005-0.014,0.007-0.022
		c0.329-1.35-0.719-2.79-2.398-3.432c0.366-4.311-3.019-8.535-8.076-9.769c-4.948-1.207-9.792,0.864-11.555,4.696
		c-0.54-0.322-1.142-0.578-1.799-0.739c-3.038-0.741-6.013,0.753-6.643,3.339c-0.11,0.45-0.137,0.902-0.098,1.348
		c-0.072-0.02-0.142-0.045-0.216-0.063c-3.63-0.886-7.184,0.9-7.938,3.989c-0.754,3.089,1.578,6.311,5.208,7.197
		c2.139,0.522,4.246,0.111,5.775-0.942c1.241,2.876,5.332,5.698,10.619,6.988c6.752,1.647,12.924,0.183,14.03-3.262
		c0.632,0.221,1.294,0.418,1.98,0.585c5.554,1.355,10.584,0.294,11.235-2.371C356.632,183.282,352.656,180.023,347.102,178.668z"/>
	<polygon style="fill:#F3BB61;" points="328.976,185.614 324.36,193.374 328.711,193.982 321.835,203.723 333.197,193.11 
		328.06,192.159 332.802,186.207 	"/>
	<path style="fill:#6A90D9;" d="M335.888,199.265c2.611,1.063,1.693-4.031,1.693-4.031S333.276,198.202,335.888,199.265z"/>
	<path style="fill:#6A90D9;" d="M341.535,192.942c1.898,1.043,1.649-2.926,1.649-2.926S339.637,191.899,341.535,192.942z"/>
	<path style="fill:#6A90D9;" d="M311.917,188.679c1.898,1.043,1.649-2.926,1.649-2.926S310.019,187.636,311.917,188.679z"/>
	<path style="fill:#6A90D9;" d="M311.933,194.185c1.898,1.043,1.649-2.926,1.649-2.926S310.035,193.142,311.933,194.185z"/>
	<path style="fill:#6A90D9;" d="M317.704,193.801c2.978,1.975,3.113-4.585,3.113-4.585S314.726,191.826,317.704,193.801z"/>
</g>
<g>
	<g>
		<g>
			
				<rect x="368.278" y="193.649" transform="matrix(0.1641 -0.9864 0.9864 0.1641 98.8627 544.1569)" style="fill:#242424;" width="4.488" height="40.188"/>
			<path style="fill:#77A7FB;" d="M356.174,202.336l25.737,4.282c0,0-1.826-9.08-10.907-10.591
				C361.924,194.517,356.174,202.336,356.174,202.336z"/>
			<path style="fill:#CC655C;" d="M383.048,206.316c-2.254-5.622-6.615-9.755-12.16-10.678c-6.117-1.018-12.132,2.12-16.131,7.643
				c-5.317-0.885-6.363,5.407-7.162,10.204l2.768,0.461l0.321,0.053c0.447-2.689,2.991-4.509,5.682-4.061
				c2.689,0.447,4.508,2.993,4.06,5.682l7.634,1.27l2.627,0.437l8.772,1.46c0.448-2.689,2.991-4.509,5.681-4.061
				c2.689,0.447,4.507,2.993,4.06,5.682l1.952,0.325C392.319,213.714,390.652,207.581,383.048,206.316z M369.098,204.053
				l-11.382-1.894c1.254-1.863,6.531-6.281,12.559-5.279c0.006,0.001,0.108-0.584,0.113-0.583L369.098,204.053z M370.451,204.278
				l1.185-7.122c5.91,1.574,8.886,5.646,9.503,8.901L370.451,204.278z"/>
			<g>
				<path style="fill:#404040;" d="M393.362,227.387c-0.397,2.389-2.658,4.007-5.048,3.61c-2.395-0.399-4.011-2.662-3.614-5.051
					c0.398-2.392,2.659-4.008,5.055-3.61C392.145,222.733,393.76,224.995,393.362,227.387z"/>
				<path style="fill:#808080;" d="M392.013,227.162c-0.274,1.646-1.831,2.761-3.475,2.487c-1.651-0.275-2.766-1.834-2.492-3.48
					c0.274-1.649,1.833-2.762,3.484-2.487C391.175,223.956,392.287,225.513,392.013,227.162z"/>
				<path style="fill:#696969;" d="M390.984,226.991c-0.179,1.078-1.199,1.808-2.275,1.629c-1.081-0.18-1.814-1.201-1.635-2.279
					c0.18-1.081,1.204-1.811,2.285-1.63C390.436,224.889,391.164,225.911,390.984,226.991z"/>
			</g>
			<g>
				<path style="fill:#404040;" d="M359.942,215.54c-0.397,2.389-2.659,4.007-5.049,3.61c-2.393-0.398-4.011-2.662-3.613-5.051
					c0.398-2.392,2.661-4.008,5.055-3.61C358.724,210.886,360.34,213.148,359.942,215.54z"/>
				<path style="fill:#808080;" d="M358.593,215.315c-0.274,1.646-1.831,2.761-3.476,2.487c-1.65-0.274-2.763-1.833-2.49-3.479
					c0.274-1.649,1.832-2.762,3.482-2.487C357.755,212.109,358.867,213.666,358.593,215.315z"/>
				<path style="fill:#696969;" d="M357.565,215.144c-0.179,1.078-1.198,1.808-2.277,1.629c-1.081-0.18-1.813-1.201-1.633-2.279
					c0.18-1.081,1.203-1.811,2.284-1.631C357.017,213.042,357.744,214.064,357.565,215.144z"/>
			</g>
			<path style="fill:#FDE3A7;" d="M389.059,212.597c0.087,1.057-0.285,1.951-0.83,1.996c-0.545,0.045-1.058-0.776-1.145-1.833
				c-0.087-1.055,0.285-1.949,0.83-1.993C388.46,210.72,388.973,211.542,389.059,212.597z"/>
			<path style="fill:#96281B;" d="M351.881,207.343c-0.307,0.72-0.856,1.176-1.228,1.017c-0.372-0.159-0.425-0.87-0.118-1.591
				c0.308-0.72,0.857-1.175,1.229-1.016C352.135,205.911,352.188,206.622,351.881,207.343z"/>
			<path style="fill:#404040;" d="M372.897,207.569l-1.888-0.314c-0.379-0.063-0.643-0.377-0.589-0.701l0.002-0.012
				c0.054-0.324,0.405-0.536,0.784-0.473l1.888,0.314c0.379,0.063,0.643,0.377,0.589,0.701l-0.002,0.012
				C373.628,207.42,373.276,207.632,372.897,207.569z"/>
			<polygon style="fill:#696969;" points="377.218,224.406 375.495,223.921 377.052,218.387 378.828,218.681 			"/>
			
				<rect x="375.733" y="222.114" transform="matrix(0.2711 -0.9625 0.9625 0.2711 57.9971 525.8354)" style="fill:#424242;" width="0.96" height="5.015"/>
		</g>
	</g>
	<g>
		<path style="fill:#71AB95;" d="M356.024,212.87c0,0-2.367-2.924-7.407-4.334c-5.04-1.41-8.581-0.137-8.581-0.137
			s-5.125,10.716,3.488,18.347C354.846,224.69,356.024,212.87,356.024,212.87z"/>
		<path style="fill:#FFFFFF;" d="M355.163,213.302c0,0-2.174-2.637-6.781-3.926c-4.607-1.289-7.834-0.162-7.834-0.162
			s-4.685,9.796,3.188,16.772C354.086,224.108,355.163,213.302,355.163,213.302z"/>
		<path style="fill:#5B8A78;" d="M354.422,213.674c0,0-1.988-2.46-6.223-3.645c-4.235-1.185-7.211-0.113-7.211-0.113
			s-4.307,9.005,2.931,15.417C353.433,223.607,354.422,213.674,354.422,213.674z"/>
		<path style="fill:#FFFFFF;" d="M344.625,220.402l1.249,0.349l0.363-1.297c0.327,0.016,0.65-0.025,0.955-0.116l0.661,1.174
			l1.13-0.636l-0.661-1.174c0.235-0.214,0.437-0.468,0.594-0.756l1.297,0.363l0.349-1.249l-1.297-0.363
			c0.015-0.327-0.026-0.65-0.116-0.955l1.174-0.661l-0.636-1.13l-1.174,0.661c-0.214-0.236-0.468-0.438-0.756-0.595l0.363-1.296
			l-1.249-0.349l-0.363,1.296c-0.328-0.016-0.65,0.026-0.955,0.116l-0.661-1.174l-1.13,0.636l0.661,1.174
			c-0.236,0.214-0.438,0.468-0.594,0.756l-1.297-0.363l-0.349,1.248l1.297,0.363c-0.016,0.328,0.025,0.65,0.116,0.955l-1.174,0.661
			l0.636,1.13l1.174-0.661c0.214,0.235,0.468,0.438,0.756,0.594L344.625,220.402z M344.943,216.501
			c0.058-1.066,1.177-1.695,2.119-1.193c0.474,0.254,0.769,0.776,0.74,1.313c-0.059,1.066-1.178,1.697-2.12,1.193
			C345.207,217.561,344.913,217.039,344.943,216.501z"/>
	</g>
</g>
<g>
	<g>
		<g>
			<path style="fill:#795547;" d="M95.688,219.579c2.499,11.666-4.932,23.149-16.599,25.648
				c-11.666,2.499-23.149-4.932-25.648-16.599c-1.031-4.815,5.56-9.185,13.834-11.836l0.449,9.897l4.968-1.986l8.916,10.212
				l-3.648-15.428l-5.068-1.658l3.534-0.757l2.081-2.656C87.026,213.506,94.668,214.817,95.688,219.579z"/>
			<path style="fill:#77B05F;" d="M66.718,216.228c0,0-13.937,4.464-13.941,11.09c-0.001,0.958,1.522,2.247,1.522,2.247l0.847-1.413
				l0.978,0.475l0.931-1.787l0.656,0.763l0.294-1.952l1.406,0.684l0.355-1.664l1.066,0.374l0.539-2.087l1.271,0.823l0.249-1.395
				l1.06,0.348l0.105-1.555l1.286,0.382l0.176-1.735l0.983,0.501l0.034-1.376l1.376,0.8l-0.303-1.413l1.212,0.288L66.718,216.228z"
				/>
			<path style="fill:#77B05F;" d="M78.385,214.057c0,0,14.542-1.637,17.26,4.406c0.393,0.873-0.468,2.674-0.468,2.674l-1.267-1.467
				l-0.783,1.359l-1.216-1.629l-1.268,1.175l-0.53-1.899l-1.419,1.618l-0.754-1.604l-1.234,0.757l-0.687-1.441l-1.24,0.668
				l-0.6-0.867l-1.146,0.592l-0.407-1.323l-1.231,0.962l-0.442-1.192l-0.692,0.86l-0.282-1.295l-0.891,0.968l-0.135-1.159
				l-1.504,0.883L78.385,214.057z"/>
		</g>
		<g>
			<g>
				
					<rect x="83.103" y="204.899" transform="matrix(0.1967 -0.9805 0.9805 0.1967 -135.975 254.2363)" style="fill:#C2C2C2;" width="8.111" height="10.393"/>
				
					<rect x="85.332" y="208.614" transform="matrix(0.1967 -0.9805 0.9805 0.1967 -141.5028 257.2)" style="fill:#5E5E5E;" width="1.744" height="12.675"/>
				<polygon style="fill:#E57368;" points="88.993,201.049 80.73,204.671 95.219,207.577 				"/>
				<g>
					
						<rect x="83.624" y="206.456" transform="matrix(0.1967 -0.9805 0.9805 0.1967 -135.4559 249.95)" style="fill:#7D645A;" width="2.364" height="2.364"/>
					
						<rect x="84.596" y="205.997" transform="matrix(0.1967 -0.9805 0.9805 0.1967 -134.723 249.5614)" style="fill:#77A7FB;" width="0.677" height="1.999"/>
					
						<rect x="83.599" y="207.44" transform="matrix(0.1968 -0.9805 0.9805 0.1968 -136.2029 249.5658)" style="fill:#77A7FB;" width="1.222" height="0.936"/>
					
						<rect x="84.641" y="207.649" transform="matrix(0.1967 -0.9805 0.9805 0.1967 -135.5665 250.7781)" style="fill:#77A7FB;" width="1.222" height="0.936"/>
				</g>
				<g>
					
						<rect x="82.928" y="209.926" transform="matrix(0.1967 -0.9805 0.9805 0.1967 -139.4171 252.0571)" style="fill:#7D645A;" width="2.364" height="2.364"/>
					
						<rect x="83.9" y="209.467" transform="matrix(0.1967 -0.9805 0.9805 0.1967 -138.6846 251.6666)" style="fill:#77A7FB;" width="0.677" height="1.999"/>
					
						<rect x="82.903" y="210.91" transform="matrix(0.1966 -0.9805 0.9805 0.1966 -140.1593 251.6989)" style="fill:#77A7FB;" width="1.222" height="0.936"/>
					
						<rect x="83.945" y="211.119" transform="matrix(0.1966 -0.9805 0.9805 0.1966 -139.5273 252.8882)" style="fill:#77A7FB;" width="1.222" height="0.936"/>
				</g>
				<g>
					
						<rect x="89.032" y="207.541" transform="matrix(0.1967 -0.9805 0.9805 0.1967 -132.175 256.1249)" style="fill:#7D645A;" width="2.364" height="2.364"/>
					
						<rect x="90.004" y="207.081" transform="matrix(0.1967 -0.9805 0.9805 0.1967 -131.4426 255.7344)" style="fill:#77A7FB;" width="0.677" height="1.999"/>
					
						<rect x="89.007" y="208.525" transform="matrix(0.1966 -0.9805 0.9805 0.1966 -132.9169 255.7667)" style="fill:#77A7FB;" width="1.222" height="0.936"/>
					
						<rect x="90.048" y="208.734" transform="matrix(0.1966 -0.9805 0.9805 0.1966 -132.2849 256.9559)" style="fill:#77A7FB;" width="1.222" height="0.936"/>
				</g>
				
					<rect x="87.29" y="211.637" transform="matrix(0.1967 -0.9805 0.9805 0.1967 -137.1738 258.2655)" style="fill:#7D645A;" width="3.456" height="2.412"/>
			</g>
		</g>
		<g>
			<g>
				
					<rect x="50.554" y="211.776" transform="matrix(0.8222 -0.5691 0.5691 0.8222 -113.0379 70.3903)" style="fill:#C2C2C2;" width="11.23" height="8.764"/>
				
					<rect x="52.381" y="219.601" transform="matrix(0.8222 -0.5691 0.5691 0.8222 -114.9895 72.9114)" style="fill:#5E5E5E;" width="13.697" height="1.884"/>
				<polygon style="fill:#4E667A;" points="50.509,207.944 47.127,217.087 60.257,207.999 				"/>
				<g>
					
						<rect x="54.006" y="213.966" transform="matrix(0.8222 -0.5691 0.5691 0.8222 -113.0305 70.4006)" style="fill:#7D645A;" width="4.36" height="4.36"/>
					
						<rect x="53.656" y="214.529" transform="matrix(0.8223 -0.5691 0.5691 0.8223 -112.5842 69.8291)" style="fill:#77A7FB;" width="3.687" height="1.249"/>
					
						<rect x="54.918" y="216.157" transform="matrix(0.8222 -0.5691 0.5691 0.8222 -113.7491 70.3719)" style="fill:#77A7FB;" width="1.727" height="2.253"/>
					
						<rect x="56.53" y="215.041" transform="matrix(0.8222 -0.5691 0.5691 0.8222 -112.8278 71.0907)" style="fill:#77A7FB;" width="1.727" height="2.253"/>
				</g>
			</g>
		</g>
	</g>
</g>
<g>
	<g>
		
			<rect x="70.881" y="166.307" transform="matrix(0.9709 -0.2395 0.2395 0.9709 -39.6846 24.9963)" style="fill:#C2C2C2;" width="24.218" height="18.9"/>
		
			<rect x="71.027" y="184.91" transform="matrix(0.9709 -0.2395 0.2395 0.9709 -42.2823 25.9941)" style="fill:#424242;" width="29.537" height="4.063"/>
		<polygon style="fill:#E0895E;" points="77.881,154.861 64.054,170.695 97.486,162.447 		"/>
		<g>
			
				<rect x="78.332" y="171.045" transform="matrix(0.9709 -0.2395 0.2395 0.9709 -39.6806 25.0063)" style="fill:#7D645A;" width="9.402" height="9.402"/>
			
				<rect x="78.435" y="171.871" transform="matrix(0.9709 -0.2395 0.2395 0.9709 -39.0933 24.7833)" style="fill:#77A7FB;" width="7.95" height="2.693"/>
			
				<rect x="79.484" y="175.299" transform="matrix(0.9709 -0.2395 0.2395 0.9709 -40.2057 24.6607)" style="fill:#77A7FB;" width="3.724" height="4.86"/>
			
				<rect x="83.587" y="174.286" transform="matrix(0.9709 -0.2395 0.2395 0.9709 -39.8438 25.6141)" style="fill:#77A7FB;" width="3.724" height="4.86"/>
		</g>
	</g>
</g>
<g>
	<g>
		<path style="fill:#BABABA;" d="M332.907,150.076c-1.09-1.089-2.119-2.094-3.102-3.034l1.056-2.428
			c0.377,0.403,0.725,0.756,0.958,0.998c0.171,0.177,0.407,0.228,0.523,0.112l1.034-1.034c0.116-0.116,0.066-0.352-0.111-0.523
			c-0.354-0.341-0.924-0.946-1.545-1.526l0.73-1.679c0.428,0.463,0.833,0.873,1.094,1.144c0.171,0.178,0.407,0.228,0.523,0.112
			l1.034-1.034c0.116-0.116,0.066-0.352-0.112-0.523c-0.381-0.366-1.012-1.038-1.687-1.657l2.204-5.064
			c0.113-0.202,0.061-0.477-0.127-0.664l-1.623-1.623c-0.241-0.241-0.609-0.249-0.793-0.017l-8.409,10.62
			c-2.185-1.882-4.003-3.295-5.499-4.348l1.434-5.286c0.037-0.095-0.024-0.248-0.146-0.37l-1.06-1.061
			c-0.157-0.158-0.356-0.205-0.426-0.103l-3.275,4.658c-1.979-1.027-2.729-0.966-2.729-0.966s-0.052,0.753,0.974,2.726l-4.673,3.286
			c-0.102,0.071-0.054,0.269,0.103,0.426l1.06,1.06c0.122,0.123,0.276,0.183,0.371,0.146l5.305-1.44
			c1.149,1.632,4.322,5.53,4.322,5.53l-10.705,8.477c-0.232,0.184-0.224,0.552,0.017,0.793l1.623,1.623
			c0.187,0.187,0.462,0.24,0.664,0.127l5.064-2.204c0.619,0.675,1.291,1.307,1.657,1.687c0.171,0.177,0.407,0.228,0.523,0.112
			l1.035-1.034c0.116-0.116,0.066-0.352-0.112-0.523c-0.271-0.261-0.682-0.666-1.144-1.094l1.679-0.73
			c0.581,0.62,1.186,1.191,1.526,1.545c0.171,0.177,0.407,0.228,0.523,0.111l1.034-1.034c0.116-0.116,0.066-0.352-0.112-0.523
			c-0.242-0.233-0.595-0.581-0.998-0.958l2.569-1.118c0.943,0.986,1.951,2.019,3.044,3.113c4.151,4.151,7.132,2.376,7.132,2.376
			S337.058,154.227,332.907,150.076z"/>
		<path style="fill:#5B86C2;" d="M332.717,156.557c0.295,0.033,0.596,0.022,0.895-0.017c0.293-0.037,0.609-0.131,0.845-0.254
			l-0.091,0.092c0.119-0.239,0.208-0.557,0.242-0.85c0.038-0.298,0.044-0.6,0.011-0.895l0.763,0.256
			c0.036,0.321,0.032,0.654-0.008,0.99c-0.044,0.34-0.118,0.664-0.296,1.02l-0.031,0.061l-0.06,0.031
			c-0.355,0.184-0.679,0.264-1.02,0.312c-0.336,0.043-0.67,0.052-0.992,0.015L332.717,156.557z"/>
	</g>
</g>
<g>
	<path style="fill:#6A90D9;" d="M238.681,179.628c0,0-5.279-3.75-14.287-3.75c-9.008,0-14.286,3.75-14.286,3.75
		s-3.528,20.139,14.286,28.794C242.209,199.766,238.681,179.628,238.681,179.628z"/>
	<path style="fill:#FFFFFF;" d="M237.455,180.744c0,0-4.826-3.363-13.06-3.363c-8.234,0-13.06,3.363-13.06,3.363
		s-3.225,18.41,13.06,26.322C240.679,199.153,237.455,180.744,237.455,180.744z"/>
	<path style="fill:#5675B0;" d="M236.4,181.704c0,0-4.436-3.157-12.005-3.157c-7.569,0-12.005,3.157-12.005,3.157
		s-2.964,16.922,12.005,24.195C239.364,198.626,236.4,181.704,236.4,181.704z"/>
	<path style="fill:#FFFFFF;" d="M223.781,195.432c-0.3,0-0.6-0.115-0.829-0.344l-4.512-4.512c-0.458-0.458-0.458-1.201,0-1.658
		c0.458-0.458,1.2-0.458,1.658,0l3.683,3.682l5.914-5.914c0.458-0.458,1.2-0.458,1.658,0c0.458,0.458,0.458,1.201,0,1.658
		l-6.743,6.743C224.381,195.318,224.081,195.432,223.781,195.432z"/>
</g>
<g>
	<g>
		<path style="fill:#EB5C50;" d="M397.622,299.825c-3.54,4.526-8.654,6.352-12.397,7.498c-0.908-6.163-5.05-12.159,1.049-21.64
			c-11.074,3.221-16.734,10.946-20.469,18.725c-2.314-3.426-4.805-4.283-5.359-9.225c-4.772,8.828-6.446,25.277,9.647,30.816
			C389.228,332.584,398.421,313.009,397.622,299.825z"/>
		<path style="fill:#DC9061;" d="M395.271,305.128c-4.082,4.731-10.306,4.684-13.012,5.512c-0.656-4.455-6.436-10.471-3.465-17.952
			c-7.261,3.368-8.907,11.759-11.607,17.382c-1.482-1.364-6.146-4.891-6.828-7.667c-3.002,5.553-2.271,18.084,9.978,22.299
			C387.486,330.605,395.803,313.906,395.271,305.128z"/>
		<path style="fill:#EBB052;" d="M390.951,311.567c-1.792,2.291-10.101,2.398-11.996,2.978c-0.46-3.12-5.98-8.814-4.121-13.96
			c-4.371,3.531-5.303,8.483-7.194,12.421c-1.038-0.955-5.461-3.024-6.292-5.58c-2.134,3.948-0.326,12.859,9.543,16.255
			C383.122,327.892,390.084,318.253,390.951,311.567z"/>
	</g>
	<g>
		<path style="fill:#EB5C50;" d="M391.914,289.115c-1.521,4.119-6.879,7.398-7.304,7.733c-0.914,1.456,1.909,7.792,1.437,8.713
			c2.805-0.203,6.569-3.052,6.569-3.052S394.568,295.341,391.914,289.115z"/>
		<path style="fill:#DC9061;" d="M392.057,291.677c-1.165,3.154-5.859,5.813-6.185,6.069c-0.7,1.115,1.462,5.967,1.1,6.673
			c2.148-0.156,5.031-2.337,5.031-2.337S394.09,296.445,392.057,291.677z"/>
		<path style="fill:#EBB052;" d="M391.252,295.665c-0.729,1.976-4.106,3.763-4.31,3.924c-0.438,0.699,0.916,3.738,0.689,4.18
			c1.345-0.098,2.903-1.287,2.903-1.287S392.525,298.652,391.252,295.665z"/>
	</g>
	<g>
		<path style="fill:#EB5C50;" d="M369.829,287.676c-1.198,4.828-0.125,8.582-0.125,8.582s-3.237,3.477-4.416,6.363
			c-0.53-1.342-2.513-2.534-2.767-4.013C362.851,295.151,367.19,289.55,369.829,287.676z"/>
		<path style="fill:#DC9061;" d="M368.323,289.94c-0.909,3.661,0.137,6.821,0.137,6.821s-2.455,2.637-3.349,4.826
			c-0.402-1.018-1.633-1.594-1.826-2.715C363.536,296.25,366.322,291.361,368.323,289.94z"/>
		<path style="fill:#EBB052;" d="M366.787,293.639c-0.537,2.164,0.157,4.057,0.157,4.057s-1.451,1.558-1.979,2.852
			c-0.238-0.602-0.752-0.645-0.866-1.308C364.246,297.69,365.604,294.479,366.787,293.639z"/>
	</g>
</g>
<g>
	<path style="fill:#526D91;" d="M128.074,44.766c1.476-0.288,3.348-0.468,5.147-0.468c2.592,0,4.895,0.36,6.479,1.8
		c1.476,1.332,1.908,2.952,1.908,5.04c0,2.592-1.26,4.931-3.744,6.083v0.072c1.656,0.648,2.484,2.196,2.952,4.787
		c0.468,2.7,1.116,5.688,1.548,6.587h-4.931c-0.288-0.684-0.828-3.132-1.188-5.795c-0.432-3.023-1.188-3.887-2.771-3.887h-0.684
		v9.683h-4.715V44.766z M132.789,55.348h0.828c2.052,0,3.24-1.656,3.24-3.779c0-2.052-0.828-3.528-2.952-3.6
		c-0.396,0-0.864,0.036-1.116,0.144V55.348z"/>
	<path style="fill:#526D91;" d="M149.708,44.406v24.261h-4.715V44.406H149.708z"/>
	<path style="fill:#526D91;" d="M153.38,63.843c0.972,0.539,2.627,0.936,3.996,0.936c2.231,0,3.311-1.152,3.311-2.735
		c0-1.764-1.08-2.628-3.132-3.959c-3.312-2.016-4.571-4.572-4.571-6.767c0-3.888,2.592-7.127,7.667-7.127
		c1.584,0,3.096,0.432,3.815,0.864l-0.756,4.067c-0.684-0.432-1.727-0.828-3.096-0.828c-2.016,0-2.987,1.224-2.987,2.52
		c0,1.44,0.72,2.196,3.348,3.78c3.204,1.944,4.391,4.392,4.391,6.947c0,4.427-3.275,7.343-8.027,7.343
		c-1.944,0-3.852-0.504-4.644-0.972L153.38,63.843z"/>
	<path style="fill:#526D91;" d="M168.104,44.406h4.715v10.906h0.072c0.396-1.008,0.792-2.087,1.188-3.131l3.24-7.775h5.183
		l-5.435,10.546l5.507,13.714h-5.147l-3.528-10.043l-1.08,1.98v8.063h-4.715V44.406z"/>
	<path style="fill:#526D91;" d="M195.067,44.406v24.261h-4.715V44.406H195.067z"/>
	<path style="fill:#526D91;" d="M199.28,68.666V44.406h4.319l3.744,9.502c0.72,1.872,1.908,5.003,2.591,7.091h0.072
		c-0.144-2.556-0.468-6.767-0.468-11.23v-5.363h4.139v24.261h-4.319l-3.708-9.215c-0.792-2.052-1.908-5.111-2.448-7.307h-0.072
		c0.108,2.448,0.288,6.191,0.288,11.051v5.471H199.28z"/>
	<path style="fill:#526D91;" d="M217.315,63.843c0.972,0.539,2.628,0.936,3.996,0.936c2.231,0,3.312-1.152,3.312-2.735
		c0-1.764-1.08-2.628-3.132-3.959c-3.311-2.016-4.571-4.572-4.571-6.767c0-3.888,2.592-7.127,7.667-7.127
		c1.585,0,3.096,0.432,3.816,0.864l-0.756,4.067c-0.684-0.432-1.728-0.828-3.096-0.828c-2.016,0-2.987,1.224-2.987,2.52
		c0,1.44,0.72,2.196,3.348,3.78c3.204,1.944,4.391,4.392,4.391,6.947c0,4.427-3.275,7.343-8.027,7.343
		c-1.944,0-3.852-0.504-4.644-0.972L217.315,63.843z"/>
	<path style="fill:#526D91;" d="M236.611,44.406v15.766c0,3.564,1.08,4.644,2.304,4.644c1.367,0,2.34-0.972,2.34-4.644V44.406h4.715
		v14.938c0,6.227-2.34,9.611-7.019,9.611c-5.076,0-7.056-3.492-7.056-9.575V44.406H236.611z"/>
	<path style="fill:#526D91;" d="M250.04,44.766c1.476-0.288,3.348-0.468,5.146-0.468c2.592,0,4.896,0.36,6.479,1.8
		c1.476,1.332,1.908,2.952,1.908,5.04c0,2.592-1.26,4.931-3.744,6.083v0.072c1.656,0.648,2.484,2.196,2.952,4.787
		c0.468,2.7,1.115,5.688,1.548,6.587h-4.932c-0.288-0.684-0.828-3.132-1.188-5.795c-0.433-3.023-1.188-3.887-2.771-3.887h-0.685
		v9.683h-4.715V44.766z M254.755,55.348h0.828c2.052,0,3.239-1.656,3.239-3.779c0-2.052-0.827-3.528-2.951-3.6
		c-0.396,0-0.864,0.036-1.116,0.144V55.348z"/>
	<path style="fill:#526D91;" d="M270.81,63.123l-1.079,5.543h-4.572l5.256-24.261h5.651l4.715,24.261h-4.571l-1.044-5.543H270.81z
		 M274.734,59.452l-0.792-5.075c-0.252-1.476-0.576-3.888-0.792-5.507h-0.107c-0.252,1.62-0.612,4.139-0.864,5.543l-0.9,5.04
		H274.734z"/>
	<path style="fill:#526D91;" d="M283.447,68.666V44.406h4.319l3.743,9.502c0.721,1.872,1.908,5.003,2.592,7.091h0.072
		c-0.145-2.556-0.468-6.767-0.468-11.23v-5.363h4.14v24.261h-4.32l-3.707-9.215c-0.792-2.052-1.908-5.111-2.447-7.307h-0.072
		c0.107,2.448,0.288,6.191,0.288,11.051v5.471H283.447z"/>
	<path style="fill:#526D91;" d="M313.649,68.307c-0.684,0.324-2.016,0.576-3.671,0.576c-6.191,0-9.143-5.111-9.143-11.986
		c0-9.143,5.076-12.707,9.791-12.707c1.656,0,2.808,0.324,3.275,0.648l-0.791,3.96c-0.54-0.252-1.152-0.468-2.196-0.468
		c-2.663,0-5.075,2.304-5.075,8.315c0,5.795,2.195,8.063,5.075,8.063c0.792,0,1.691-0.18,2.267-0.36L313.649,68.307z"/>
	<path style="fill:#526D91;" d="M326.502,58.012h-5.544v6.551h6.264v4.103h-10.978V44.406h10.547v4.103h-5.832v5.58h5.544V58.012z"
		/>
</g>
</svg>
