<?xml version="1.0" encoding="UTF-8" standalone="no"?>
<!-- Generator: Adobe Illustrator 27.5.0, SVG Export Plug-In . SVG Version: 6.00 Build 0)  -->

<svg
   version="1.1"
   id="Layer_1"
   x="0px"
   y="0px"
   viewBox="0 0 24 24"
   xml:space="preserve"
   sodipodi:docname="insurance-policies.svg"
   width="24"
   height="24"
   inkscape:version="1.3.2 (091e20e, 2023-11-25, custom)"
   xmlns:inkscape="http://www.inkscape.org/namespaces/inkscape"
   xmlns:sodipodi="http://sodipodi.sourceforge.net/DTD/sodipodi-0.dtd"
   xmlns="http://www.w3.org/2000/svg"
   xmlns:svg="http://www.w3.org/2000/svg"><defs
   id="defs280" /><sodipodi:namedview
   id="namedview280"
   pagecolor="#ffffff"
   bordercolor="#000000"
   borderopacity="0.25"
   inkscape:showpageshadow="2"
   inkscape:pageopacity="0.0"
   inkscape:pagecheckerboard="true"
   inkscape:deskcolor="#d1d1d1"
   inkscape:zoom="33.875"
   inkscape:cx="12"
   inkscape:cy="12"
   inkscape:window-width="1920"
   inkscape:window-height="1009"
   inkscape:window-x="-8"
   inkscape:window-y="-8"
   inkscape:window-maximized="1"
   inkscape:current-layer="Layer_1" />









<g
   id="g280"
   transform="scale(0.51649864,0.55386697)"><g
     id="g175"
     transform="translate(-343.08,-235.857)">
	<g
   id="g166">
		<polygon
   style="fill:#3b4f54"
   points="346.764,264.025 385.84,235.857 386.561,251.44 358.744,271.492 "
   id="polygon164" />
		
			<rect
   x="353.996"
   y="241.75101"
   transform="matrix(0.8112,-0.5848,0.5848,0.8112,-75.7597,258.5862)"
   style="fill:#cccccc"
   width="17.176001"
   height="9.7370005"
   id="rect164" />
		<path
   style="fill:#737373"
   d="m 367.722,242.681 c 0.866,1.202 0.621,2.859 -0.547,3.701 -1.168,0.842 -2.818,0.551 -3.684,-0.651 -0.866,-1.202 -0.622,-2.859 0.547,-3.701 1.168,-0.842 2.818,-0.551 3.684,0.651 z"
   id="path164" />
		<path
   style="fill:#77a7fb"
   d="m 367.341,242.956 c 0.71,0.985 0.509,2.343 -0.448,3.034 -0.958,0.69 -2.31,0.452 -3.02,-0.534 -0.71,-0.985 -0.509,-2.343 0.448,-3.034 0.958,-0.69 2.31,-0.451 3.02,0.534 z"
   id="path165" />
		
			<rect
   x="351.45499"
   y="240.621"
   transform="matrix(0.8112,-0.5848,0.5848,0.8112,-76.3385,251.8134)"
   style="fill:#4d4d4d"
   width="0.60500002"
   height="6.9889998"
   id="rect165" />
		<polygon
   style="fill:#e36055"
   points="351.713,244.57 349.556,241.578 343.08,246.246 345.974,246.434 345.237,249.239 "
   id="polygon165" />
		<polygon
   style="fill:#a35c5c"
   points="349.315,265.616 385.993,239.176 386.147,242.494 351.867,267.206 "
   id="polygon166" />
	</g>
	<g
   id="g170">
		<g
   id="g169">
			<path
   style="fill:#445f8f"
   d="m 387.601,270.061 c -0.327,-0.053 -0.641,-0.203 -0.897,-0.45 -0.028,-0.026 -3.204,-3.015 -8.008,-3.795 -1.368,-0.222 -3.122,0.118 -4.979,0.478 -2.094,0.405 -4.258,0.825 -6.269,0.499 -3.784,-0.614 -5.177,-1.704 -6.405,-2.667 -1.013,-0.794 -1.889,-1.479 -4.668,-1.93 -5.682,-0.922 -8.915,0.929 -8.947,0.948 -0.796,0.467 -1.823,0.209 -2.296,-0.58 -0.474,-0.79 -0.229,-1.81 0.556,-2.291 0.169,-0.103 4.229,-2.525 11.224,-1.39 3.632,0.589 4.996,1.658 6.2,2.601 1.041,0.816 1.94,1.52 4.872,1.996 1.421,0.23 3.288,-0.131 5.093,-0.481 2.063,-0.4 4.197,-0.813 6.154,-0.495 5.879,0.954 9.646,4.543 9.804,4.696 0.667,0.644 0.684,1.707 0.039,2.373 -0.394,0.409 -0.95,0.573 -1.473,0.488 z"
   id="path166" />
			<path
   style="fill:#77a7fb"
   d="m 387.111,273.082 c -0.327,-0.053 -0.641,-0.203 -0.897,-0.45 -0.028,-0.026 -3.204,-3.016 -8.008,-3.795 -1.368,-0.222 -3.122,0.118 -4.979,0.478 -2.094,0.405 -4.258,0.825 -6.269,0.499 -3.784,-0.614 -5.176,-1.704 -6.404,-2.667 -1.013,-0.794 -1.889,-1.479 -4.668,-1.93 -5.682,-0.922 -8.915,0.93 -8.947,0.948 -0.796,0.467 -1.823,0.209 -2.296,-0.58 -0.474,-0.79 -0.229,-1.81 0.556,-2.291 0.169,-0.103 4.229,-2.525 11.224,-1.39 3.632,0.589 4.996,1.658 6.2,2.601 1.041,0.816 1.94,1.52 4.872,1.996 1.421,0.23 3.288,-0.131 5.093,-0.481 2.063,-0.4 4.197,-0.813 6.154,-0.495 5.88,0.954 9.647,4.543 9.804,4.696 0.667,0.644 0.684,1.707 0.04,2.373 -0.396,0.409 -0.952,0.573 -1.475,0.488 z"
   id="path167" />
			<path
   style="fill:#445f8f"
   d="m 386.621,276.103 c -0.327,-0.053 -0.641,-0.203 -0.897,-0.45 -0.028,-0.026 -3.204,-3.016 -8.008,-3.795 -1.368,-0.222 -3.122,0.118 -4.979,0.478 -2.094,0.405 -4.259,0.825 -6.269,0.499 -3.784,-0.614 -5.177,-1.704 -6.405,-2.667 -1.013,-0.794 -1.888,-1.479 -4.668,-1.93 -5.682,-0.922 -8.915,0.929 -8.947,0.948 -0.796,0.467 -1.823,0.209 -2.296,-0.58 -0.474,-0.79 -0.229,-1.81 0.556,-2.291 0.169,-0.103 4.229,-2.525 11.224,-1.39 3.632,0.589 4.996,1.658 6.2,2.601 1.041,0.816 1.94,1.52 4.872,1.996 1.421,0.23 3.288,-0.131 5.093,-0.481 2.063,-0.4 4.197,-0.813 6.154,-0.495 5.88,0.954 9.647,4.543 9.804,4.696 0.667,0.644 0.684,1.707 0.04,2.373 -0.395,0.409 -0.951,0.573 -1.474,0.488 z"
   id="path168" />
			<path
   style="fill:#77a7fb"
   d="m 386.124,279.167 c -0.327,-0.053 -0.641,-0.203 -0.897,-0.45 -0.028,-0.026 -3.204,-3.016 -8.008,-3.795 -1.368,-0.222 -3.122,0.118 -4.979,0.477 -2.094,0.406 -4.259,0.825 -6.269,0.499 -3.784,-0.614 -5.177,-1.704 -6.405,-2.667 -1.013,-0.794 -1.888,-1.479 -4.668,-1.93 -5.682,-0.922 -8.915,0.93 -8.947,0.948 -0.796,0.467 -1.823,0.209 -2.296,-0.58 -0.474,-0.79 -0.229,-1.81 0.556,-2.291 0.169,-0.103 4.229,-2.525 11.224,-1.39 3.632,0.589 4.996,1.658 6.2,2.601 1.041,0.816 1.94,1.52 4.872,1.996 1.421,0.23 3.288,-0.131 5.093,-0.481 2.063,-0.4 4.197,-0.813 6.154,-0.495 5.879,0.954 9.647,4.543 9.804,4.696 0.667,0.644 0.684,1.707 0.04,2.373 -0.395,0.409 -0.951,0.574 -1.474,0.489 z"
   id="path169" />
		</g>
	</g>
	<g
   id="g174">
		<g
   id="g173">
			<path
   style="fill:#ff905e"
   d="m 385.725,260.136 c -0.202,1.243 -0.886,2.287 -1.829,2.975 l 2.126,2.95 c 1.698,-1.232 2.929,-3.108 3.291,-5.342 0.36,-2.221 -0.207,-4.377 -1.414,-6.078 l -2.951,2.127 c 0.663,0.945 0.977,2.138 0.777,3.368 z"
   id="path170" />
			<path
   style="fill:#ff905e"
   d="m 376.655,258.665 c 0.18,-1.112 0.759,-2.049 1.551,-2.73 l -2.137,-2.964 c -1.545,1.23 -2.661,3.009 -3.002,5.112 -0.343,2.116 0.161,4.169 1.252,5.829 l 2.963,-2.136 c -0.55,-0.901 -0.81,-1.986 -0.627,-3.111 z"
   id="path171" />
			<path
   style="fill:#ffffff"
   d="m 387.642,254.308 c -1.23,-1.56 -3.019,-2.687 -5.135,-3.031 -2.234,-0.362 -4.403,0.212 -6.109,1.434 -0.114,0.081 -0.22,0.172 -0.33,0.26 l 2.137,2.964 c 0.107,-0.092 0.205,-0.192 0.32,-0.274 0.951,-0.677 2.157,-0.997 3.4,-0.795 1.125,0.182 2.072,0.772 2.754,1.578 0.091,0.107 0.188,0.208 0.268,0.324 l 2.951,-2.127 c -0.08,-0.115 -0.169,-0.223 -0.256,-0.333 z"
   id="path172" />
			<path
   style="fill:#ffffff"
   d="m 383.896,263.111 c -0.113,0.083 -0.24,0.145 -0.361,0.217 -0.896,0.536 -1.969,0.789 -3.081,0.608 -1.23,-0.2 -2.263,-0.874 -2.951,-1.802 -0.084,-0.113 -0.149,-0.237 -0.222,-0.357 l -2.963,2.136 c 0.077,0.117 0.151,0.236 0.234,0.349 1.232,1.683 3.098,2.902 5.32,3.263 2.103,0.341 4.144,-0.155 5.799,-1.232 0.117,-0.076 0.237,-0.149 0.35,-0.231 z"
   id="path173" />
		</g>
	</g>
</g></g>











</svg>
