<?xml version="1.0" encoding="UTF-8" standalone="no"?>
<!-- Created with Inkscape (http://www.inkscape.org/) -->

<svg
   width="8.9958334mm"
   height="8.9958334mm"
   viewBox="0 0 8.9958331 8.9958333"
   version="1.1"
   id="svg1"
   inkscape:export-filename="Final.png"
   inkscape:export-xdpi="96"
   inkscape:export-ydpi="96"
   inkscape:version="1.3.2 (091e20e, 2023-11-25, custom)"
   sodipodi:docname="logo-dark.svg"
   xmlns:inkscape="http://www.inkscape.org/namespaces/inkscape"
   xmlns:sodipodi="http://sodipodi.sourceforge.net/DTD/sodipodi-0.dtd"
   xmlns="http://www.w3.org/2000/svg"
   xmlns:svg="http://www.w3.org/2000/svg">
  <sodipodi:namedview
     id="namedview1"
     pagecolor="#ffffff"
     bordercolor="#000000"
     borderopacity="0.25"
     inkscape:showpageshadow="2"
     inkscape:pageopacity="0.0"
     inkscape:pagecheckerboard="true"
     inkscape:deskcolor="#d1d1d1"
     inkscape:document-units="mm"
     inkscape:zoom="24.147059"
     inkscape:cx="17.041413"
     inkscape:cy="17"
     inkscape:window-width="1920"
     inkscape:window-height="1017"
     inkscape:window-x="-8"
     inkscape:window-y="-8"
     inkscape:window-maximized="1"
     inkscape:current-layer="layer1" />
  <defs
     id="defs1" />
  <g
     inkscape:label="Layer 1"
     inkscape:groupmode="layer"
     id="layer1"
     transform="translate(-20.893498,-1.4782675)">
    <circle
       style="fill:none;fill-opacity:1;stroke:#cccccc;stroke-width:0.12332;stroke-dasharray:none;stroke-opacity:1"
       id="circle1"
       cx="25.391415"
       cy="5.9761844"
       r="4.4362569" />
    <path
       d="m 25.178909,2.8714386 c 0.115589,0.038681 0.208448,0.076395 0.301776,0.1496939 0.02077,0.016187 0.04154,0.032375 0.06294,0.049053 0.0216,0.017321 0.04319,0.034642 0.06545,0.052488 0.0227,0.018055 0.04538,0.03611 0.06876,0.054712 0.588179,0.4719926 1.248409,1.1226044 1.310419,1.8758037 0.03297,0.600275 -0.09315,1.1294773 -0.525465,1.602995 -0.421448,0.4106325 -1.017549,0.6153747 -1.615124,0.7039803 -0.06132,0.00177 -0.122752,0.0026 -0.184027,0 0.09471,-0.057465 0.166447,-0.088443 0.27144,-0.1235233 0.617012,-0.2218435 1.148797,-0.5318274 1.422327,-1.0941797 0.132186,-0.3249734 0.140994,-0.8150449 0.0081,-1.1407623 -0.256349,-0.5205367 -0.256349,-0.5205367 -0.708072,-0.8908363 -0.0054,0.028888 -0.01082,0.057776 -0.0164,0.08754 -0.147484,0.7305772 -0.436633,1.4102918 -0.828817,2.0596988 -0.03345,0.055823 -0.06584,0.1121586 -0.09807,0.1685692 -0.111696,0.1944538 -0.239949,0.3691401 -0.384443,0.5447349 -0.06155,0.075791 -0.11852,0.1524517 -0.174394,0.2317377 -0.157853,0.2193022 -0.342472,0.4214022 -0.522178,0.625993 0.02163,-0.0024 0.04327,-0.00485 0.06555,-0.00732 0.511823,-0.048187 1.055973,-0.075619 1.560779,0.024078 0.779423,0.1511199 1.478319,0.019226 2.151102,-0.3658607 l 0.08713,-0.052864 c 0.02496,-0.014681 0.04992,-0.029363 0.07562,-0.04449 0.04892,-0.029133 0.09719,-0.059155 0.145208,-0.089503 -0.03604,0.1426195 -0.0932,0.2784506 -0.184033,0.4019753 l -0.632295,0.3392591 -0.703221,0.1621699 c -2.210799,-0.137574 -1.915262,-0.058827 -2.49241,0.048867 l -0.919974,0.1866316 c -0.06365,0.010444 -0.127288,0.020922 -0.190927,0.031407 -0.03544,0.00583 -0.07089,0.011657 -0.107398,0.017662 -0.09705,0.016328 -0.193836,0.03356 -0.290561,0.051424 0.129537,-0.1396148 0.262042,-0.2758408 0.397959,-0.4103501 0.151286,-0.1508444 0.294917,-0.3057089 0.435769,-0.4646529 0.0777,-0.086725 0.156886,-0.1719608 0.236908,-0.2569023 0.205937,-0.2188267 0.399203,-0.4439555 0.585607,-0.6769844 0.02097,-0.025088 0.04194,-0.050176 0.06355,-0.076025 0.360174,-0.4435506 0.631793,-0.9543046 0.856588,-1.4648814 0.011,-0.024278 0.022,-0.048558 0.03333,-0.073571 0.334902,-0.7440763 0.39536,-1.4418155 0.371524,-2.2377729 z"
       fill="#0498dc"
       id="path3"
       style="stroke-width:0.0351128"
       sodipodi:nodetypes="cccccccccccccccccccccccccccccccccccccccccc" />
    <path
       d="m 23.076199,2.7101436 c 0.176643,0.022067 0.323798,0.085819 0.483071,0.1549281 0.02779,0.012001 0.05556,0.024003 0.08419,0.036369 0.227487,0.1001072 0.439146,0.2141876 0.64732,0.3446707 0.03169,0.018913 0.06339,0.037827 0.09603,0.057313 0.443767,0.2704826 0.443767,0.2704826 0.566459,0.4451565 0.0172,0.1687855 -0.01393,0.3192507 -0.05521,0.4836269 -0.0102,0.04141 -0.0205,0.082821 -0.03106,0.1254864 -0.008,0.031133 -0.01595,0.062267 -0.02416,0.094344 -0.07058,-0.079259 -0.140091,-0.158356 -0.205014,-0.2415519 -0.174087,-0.2205458 -0.390262,-0.4080149 -0.678312,-0.4954032 0.0089,0.025934 0.0089,0.025934 0.01802,0.05239 0.02445,0.1062113 0.02425,0.2067598 0.02497,0.3153025 1.54e-4,0.022727 3.08e-4,0.045454 4.82e-4,0.06887 3.6e-4,0.073614 3.6e-4,0.1472213 2.51e-4,0.2208358 -1.1e-5,0.025023 -2.1e-5,0.050045 -3.1e-5,0.075826 -0.001,0.5397394 -0.04486,1.0527515 -0.190897,1.5781363 -0.01395,0.051169 -0.01395,0.051169 -0.02818,0.1033728 -0.149813,0.4921026 -0.413109,0.9602653 -0.744734,1.3705372 -0.02081,0.02597 -0.04162,0.051946 -0.06306,0.078707 -0.149657,0.1866533 -0.300479,0.372496 -0.452214,0.5577542 -0.0368,-0.066997 -0.0368,-0.066997 -0.0157,-0.1323804 0.01774,-0.039339 0.01774,-0.039339 0.03583,-0.079468 0.01936,-0.043432 0.01936,-0.043432 0.0391,-0.087736 0.01385,-0.030338 0.02771,-0.060669 0.04199,-0.091924 0.01328,-0.029687 0.02657,-0.059373 0.04026,-0.08996 0.05508,-0.1227008 0.110521,-0.244473 0.172093,-0.3646174 0.09084,-0.1922576 0.141127,-0.398694 0.199411,-0.6006082 0.0065,-0.022216 0.01295,-0.044437 0.0196,-0.067326 0.375583,-1.2922995 0.360809,-2.4345532 0.03463,-3.7397053 -0.01515,-0.072451 -0.01515,-0.072451 -0.01515,-0.1729447 z"
       fill="#2d2d2d"
       id="path6"
       style="fill:#cccccc;fill-opacity:1;stroke:none;stroke-width:0.0351128" />
    <path
       d="m 28.585132,7.0604617 c 0,0.3212174 -0.507808,0.7375569 -0.736119,0.9714406 -0.02225,0.023103 -0.0445,0.046207 -0.06743,0.070006 C 27.349235,8.5241188 26.745224,8.7569125 26.119146,8.781706 25.773665,8.789036 25.448301,8.742984 25.109263,8.685113 24.67734,8.611453 24.275224,8.5799036 23.837155,8.601369 c -0.04807,0.00147 -0.09612,0.00304 -0.145643,0.00455 -0.280103,0.012015 -0.550561,0.047187 -0.824856,0.09831 -0.230323,0.041417 -0.230323,0.041417 -0.354518,-0.0024 0.287553,-0.1376422 0.564546,-0.2687911 0.883344,-0.3349793 0.04256,-0.00929 0.08512,-0.018569 0.128965,-0.028133 0.507828,-0.1031709 1.003525,-0.09565 1.51708,-0.029515 0.285447,0.032618 0.571861,0.031858 0.859066,0.032525 0.02499,1.676e-4 0.04998,3.353e-4 0.07572,5.392e-4 0.268144,0.00147 0.512412,-6.373e-4 0.76852,-0.075877 0.03805,-0.01075 0.0761,-0.021501 0.115305,-0.032584 0.489742,-0.162346 0.870042,-0.4136874 1.246518,-0.7378711 0.04576,-0.035163 0.09174,-0.070087 0.138021,-0.1046812 0.128522,-0.09891 0.234905,-0.2118545 0.340456,-0.3307925 z"
       fill="#2f2f2f"
       id="path7"
       style="fill:#cccccc;fill-opacity:1;stroke:none;stroke-width:0.0351131;stroke-opacity:1" />
    <path
       d="m 25.27994,8.9250588 c 0.62808,0.1480817 1.250145,0.080919 1.870173,-0.060584 0.04907,-0.011167 0.09815,-0.022334 0.147222,-0.033501 -0.221411,0.2287464 -0.631427,0.361218 -0.95694,0.4019753 -0.541247,0.030986 -1.022685,-0.013123 -1.537056,-0.1707613 -0.308655,-0.078277 -0.629082,-0.07359 -0.947308,-0.082567 -0.04782,-0.00147 -0.09565,-0.00289 -0.14492,-0.00436 -0.117315,-0.00353 -0.234631,-0.00695 -0.351952,-0.010275 0.589461,-0.2834482 1.307445,-0.1881827 1.920781,-0.039912 z"
       fill="#0799d9"
       id="path8"
       style="stroke-width:0.0351128" />
  </g>
</svg>
