<?xml version="1.0" encoding="UTF-8" standalone="no"?>
<!-- Generator: Adobe Illustrator 19.0.0, SVG Export Plug-In . SVG Version: 6.00 Build 0)  -->

<svg
   version="1.1"
   id="Layer_1"
   x="0px"
   y="0px"
   viewBox="0 0 24 24"
   xml:space="preserve"
   sodipodi:docname="arrivals.svg"
   inkscape:version="1.3.2 (091e20e, 2023-11-25, custom)"
   width="24"
   height="24"
   xmlns:inkscape="http://www.inkscape.org/namespaces/inkscape"
   xmlns:sodipodi="http://sodipodi.sourceforge.net/DTD/sodipodi-0.dtd"
   xmlns="http://www.w3.org/2000/svg"
   xmlns:svg="http://www.w3.org/2000/svg"><defs
   id="defs59" /><sodipodi:namedview
   id="namedview57"
   pagecolor="#ffffff"
   bordercolor="#000000"
   borderopacity="0.25"
   inkscape:showpageshadow="2"
   inkscape:pageopacity="0.0"
   inkscape:pagecheckerboard="true"
   inkscape:deskcolor="#d1d1d1"
   showgrid="false"
   inkscape:zoom="16.9375"
   inkscape:cx="23.232472"
   inkscape:cy="15.675277"
   inkscape:window-width="1920"
   inkscape:window-height="1009"
   inkscape:window-x="-8"
   inkscape:window-y="-8"
   inkscape:window-maximized="1"
   inkscape:current-layer="Layer_1" />



























<path
   id="path2"
   style="fill:none;fill-opacity:1;stroke:#ffffff;stroke-width:0.2;stroke-opacity:1;stroke-dasharray:none"
   d="M 6.265625 0 C 5.8257506 0 5.46875 0.60307783 5.46875 1.3476562 L 5.46875 4.0390625 L 5.4648438 4.0390625 L 5.4648438 9.3828125 C 5.4648438 9.9035779 5.8216109 10.326172 6.2617188 10.326172 L 20.371094 10.326172 C 20.695533 10.326172 20.99956 10.108918 21.126953 9.7558594 C 21.279722 9.3325981 21.152595 8.8493376 20.835938 8.5996094 L 16.503906 5.1816406 C 15.653844 4.511194 14.678022 4.1245254 13.664062 4.0527344 L 13.576172 3.5742188 C 13.180828 1.4361845 12.026545 0 10.703125 0 L 6.265625 0 z " /><path
   id="path10"
   style="fill:none;stroke-width:0.2;stroke:#ffffff;stroke-opacity:1;stroke-dasharray:none"
   d="M 3.4511719 10.337891 C 3.1279693 10.337891 2.8374217 10.667471 2.7148438 11.173828 L 0.05859375 22.140625 C 0.03342191 22.244579 0.017001452 22.352242 0.0078125 22.460938 C -0.0013764524 22.569633 -0.0025917873 22.678613 0.00390625 22.787109 C 0.010404287 22.895606 0.024985871 23.004063 0.046875 23.107422 C 0.068764129 23.21078 0.097781302 23.309063 0.13476562 23.402344 C 0.28265604 23.775546 0.53142226 24 0.796875 24 L 11.855469 24 L 16.726562 24 C 20.73765 24 24 18.475867 24 11.685547 C 24 10.940968 23.642999 10.337891 23.203125 10.337891 L 11.855469 10.337891 L 3.4511719 10.337891 z " /><g
   id="g1"
   style="fill:none;stroke-width:0.2;stroke-dasharray:none"><path
     id="path18"
     style="fill:none;stroke-width:0.2;stroke:#ffffff;stroke-opacity:1;stroke-dasharray:none"
     d="M 15.96875 15.820312 C 15.528922 15.820313 15.171875 16.423311 15.171875 17.167969 C 15.171875 17.912548 15.528875 18.517578 15.96875 18.517578 L 17.939453 18.517578 C 18.379281 18.517578 18.734421 17.912627 18.734375 17.167969 C 18.734375 16.423311 18.379328 15.820312 17.939453 15.820312 L 15.96875 15.820312 z " /><path
     style="fill:none;stroke-width:0.2;stroke-dasharray:none"
     d="m 16.953519,18.516873 h -0.985078 c -0.439875,0 -0.796453,-0.603725 -0.796453,-1.348305 0,-0.744658 0.356625,-1.348304 0.796453,-1.348304 h 0.985078 z"
     id="path20" /></g><g
   id="g26"
   transform="matrix(0.04687498,0,0,0.07935406,1.0538369e-5,-8.3146389)">
</g><g
   id="g28"
   transform="matrix(0.04687498,0,0,0.07935406,1.0538369e-5,-8.3146389)">
</g><g
   id="g30"
   transform="matrix(0.04687498,0,0,0.07935406,1.0538369e-5,-8.3146389)">
</g><g
   id="g32"
   transform="matrix(0.04687498,0,0,0.07935406,1.0538369e-5,-8.3146389)">
</g><g
   id="g34"
   transform="matrix(0.04687498,0,0,0.07935406,1.0538369e-5,-8.3146389)">
</g><g
   id="g36"
   transform="matrix(0.04687498,0,0,0.07935406,1.0538369e-5,-8.3146389)">
</g><g
   id="g38"
   transform="matrix(0.04687498,0,0,0.07935406,1.0538369e-5,-8.3146389)">
</g><g
   id="g40"
   transform="matrix(0.04687498,0,0,0.07935406,1.0538369e-5,-8.3146389)">
</g><g
   id="g42"
   transform="matrix(0.04687498,0,0,0.07935406,1.0538369e-5,-8.3146389)">
</g><g
   id="g44"
   transform="matrix(0.04687498,0,0,0.07935406,1.0538369e-5,-8.3146389)">
</g><g
   id="g46"
   transform="matrix(0.04687498,0,0,0.07935406,1.0538369e-5,-8.3146389)">
</g><g
   id="g48"
   transform="matrix(0.04687498,0,0,0.07935406,1.0538369e-5,-8.3146389)">
</g><g
   id="g50"
   transform="matrix(0.04687498,0,0,0.07935406,1.0538369e-5,-8.3146389)">
</g><g
   id="g52"
   transform="matrix(0.04687498,0,0,0.07935406,1.0538369e-5,-8.3146389)">
</g><g
   id="g54"
   transform="matrix(0.04687498,0,0,0.07935406,1.0538369e-5,-8.3146389)">
</g><g
   id="g3608"
   style="opacity:1;fill:#ffffff;fill-opacity:0.51648355;stroke:none"
   transform="matrix(-0.13687131,0,0,-0.13687131,15.63125,24.000055)">
	<path
   d="m 51.780876,124.20466 h 22.660079 c 4.610493,0 8.828603,-3.80204 8.828603,-8.60562 V 81.181573 c 0,-4.702524 3.433345,-9.004833 8.043838,-9.004833 h 14.419074 c 7.06288,0 10.9867,-8.10535 6.67148,-13.80741 L 69.142813,3.3397959 c -3.433346,-4.5024164 -10.00575,-4.4023627 -13.341,0 L 13.718808,58.36933 c -4.3162054,5.70206 -0.392382,13.80741 6.6705,13.80741 h 14.518146 c 4.610493,0 8.141934,4.202255 8.141934,9.004833 v 34.417467 c 9.81e-4,4.80358 4.0229,8.60562 8.731488,8.60562 z"
   id="path3606"
   style="fill:#ffffff;fill-opacity:0.51648355;stroke:none;stroke-width:0.990698"
   sodipodi:insensitive="true" />
</g></svg>
